<svg xmlns="http://www.w3.org/2000/svg" xmlns:xlink="http://www.w3.org/1999/xlink" width="500" zoomAndPan="magnify" viewBox="0 0 375 374.999991" height="500" preserveAspectRatio="xMidYMid meet" version="1.0"><path fill="#1d1d1b" d="M 201.332031 30.941406 Z M 257.21875 45.953125 Z M 259.222656 46.65625 Z M 259.214844 46.777344 C 259.210938 46.777344 259.210938 46.777344 259.210938 46.78125 C 259.210938 46.777344 259.210938 46.777344 259.214844 46.777344 Z M 261.476562 51.945312 Z M 258 54.238281 Z M 313.59375 136.25 Z M 313.742188 136.265625 C 313.738281 136.265625 313.738281 136.265625 313.738281 136.265625 C 313.738281 136.265625 313.738281 136.265625 313.742188 136.265625 Z M 295.925781 240.976562 C 295.925781 240.980469 295.925781 240.984375 295.925781 240.988281 C 295.925781 240.984375 295.925781 240.980469 295.925781 240.976562 Z M 260.375 332.308594 C 260.371094 332.3125 260.371094 332.316406 260.367188 332.316406 C 260.371094 332.316406 260.371094 332.3125 260.375 332.308594 Z M 200.167969 370.714844 C 201.351562 370.714844 202.746094 370.78125 204.367188 370.980469 C 208.730469 369.078125 212.640625 369.152344 216.421875 369.226562 C 222.394531 369.34375 228.035156 369.457031 236.117188 361.949219 C 236.175781 361.894531 236.242188 361.839844 236.308594 361.792969 C 239.78125 359.332031 243.554688 355.289062 243.632812 352.234375 C 243.644531 351.703125 243.882812 351.203125 244.289062 350.855469 L 244.921875 350.3125 C 248.460938 347.292969 254.378906 342.234375 254.5 337.816406 C 254.515625 337.175781 254.855469 336.589844 255.402344 336.257812 C 255.539062 336.175781 255.683594 336.109375 255.835938 336.066406 C 255.835938 336.058594 255.832031 336.054688 255.832031 336.050781 C 255.792969 335.3125 255.746094 334.480469 256.40625 333.800781 C 256.515625 333.691406 256.636719 333.597656 256.765625 333.515625 C 256.816406 333.140625 256.828125 332.570312 256.832031 332.257812 C 256.835938 332.117188 256.835938 331.980469 256.839844 331.855469 C 255.695312 330.484375 254.867188 329.03125 255.425781 327.566406 C 256.117188 325.753906 258.144531 325.535156 260.492188 325.28125 C 264.648438 324.835938 268.21875 324.148438 269.78125 320.285156 C 270.171875 317.484375 270.214844 314.246094 270.257812 310.820312 C 270.316406 306.433594 270.378906 301.917969 271.21875 298.121094 C 268.921875 296.378906 267.277344 293.179688 268.171875 290.277344 C 268.304688 289.851562 268.585938 289.484375 268.960938 289.242188 L 269.097656 289.15625 C 272.804688 286.800781 279.011719 282.859375 280.046875 278.648438 C 280.265625 277.769531 281.078125 277.171875 281.984375 277.21875 C 285.664062 277.425781 290.207031 276.191406 292.792969 274.292969 C 299.613281 269.273438 299.480469 258.21875 299.375 249.335938 C 299.363281 248.105469 299.347656 246.921875 299.351562 245.808594 C 299.351562 245.742188 299.355469 245.683594 299.363281 245.621094 C 299.476562 244.511719 299.167969 243.25 298.660156 242.738281 C 298.507812 242.585938 298.332031 242.488281 297.976562 242.527344 C 297.003906 242.628906 296.125 241.972656 295.933594 241.027344 C 295.773438 240.601562 294.796875 239.34375 293.574219 238.113281 C 293.230469 237.765625 293.03125 237.296875 293.027344 236.8125 C 293.019531 236.183594 293.007812 235.484375 292.992188 234.734375 C 292.863281 227.4375 292.644531 215.21875 295.363281 209.367188 C 295.457031 209.164062 295.585938 208.984375 295.742188 208.828125 C 297.835938 206.734375 299.5625 204.070312 301.390625 201.25 C 304.726562 196.105469 308.171875 190.789062 314.253906 188.472656 C 316.898438 184.308594 321.074219 181.125 325.113281 178.042969 C 328.84375 175.199219 332.371094 172.507812 334.644531 169.203125 C 337.074219 160.875 343.542969 151.089844 348.007812 144.40625 C 348.003906 143.75 348.03125 142.976562 348.054688 142.117188 C 348.117188 140.28125 348.1875 137.996094 347.996094 136.121094 C 347.742188 133.65625 347.171875 133.253906 347.167969 133.25 C 347.148438 133.25 346.417969 133.160156 344.464844 134.828125 C 344.160156 135.089844 343.773438 135.246094 343.371094 135.273438 C 341.609375 135.394531 339.578125 136.28125 337.429688 137.21875 C 334.628906 138.441406 331.730469 139.707031 328.808594 139.519531 C 327.957031 139.515625 317.628906 139.449219 317.476562 139.449219 C 317.472656 139.449219 317.46875 139.449219 317.46875 139.449219 C 316.964844 139.445312 316.480469 139.238281 316.128906 138.878906 C 315.902344 138.644531 315.667969 138.359375 315.394531 138.03125 C 315 137.558594 314.089844 136.46875 313.632812 136.265625 C 312.808594 136.234375 312.089844 135.667969 311.882812 134.859375 C 311.289062 132.589844 309.695312 130.242188 308 129.15625 C 307.695312 128.957031 307.453125 128.675781 307.300781 128.339844 C 305.507812 124.34375 300.617188 121.109375 296.304688 118.253906 C 294.699219 117.191406 293.179688 116.1875 291.851562 115.171875 C 291.5 114.902344 291.253906 114.519531 291.15625 114.089844 C 289 104.554688 288.769531 104.328125 284.859375 100.558594 C 283.582031 99.324219 281.992188 97.789062 279.878906 95.53125 C 279.527344 95.15625 279.34375 94.652344 279.375 94.140625 C 279.539062 91.136719 279.296875 85.738281 278.449219 83.140625 C 278.1875 82.964844 277.90625 82.777344 277.609375 82.582031 C 274.589844 80.585938 269.679688 77.347656 270.265625 72.777344 C 267.296875 69.417969 264.125 65.136719 264.042969 62.109375 C 263.355469 60.265625 261.808594 56.394531 259.886719 56.394531 C 259.875 56.394531 259.867188 56.394531 259.855469 56.394531 C 259.300781 56.394531 258.769531 56.148438 258.410156 55.71875 C 258.0625 55.300781 257.910156 54.753906 257.996094 54.214844 C 257.921875 53.589844 256.613281 51.976562 255.90625 51.101562 C 254.925781 49.894531 254.082031 48.847656 253.738281 47.824219 C 253.726562 47.78125 253.714844 47.738281 253.703125 47.695312 C 253.160156 45.5625 253.519531 44.167969 254.777344 43.550781 C 255.664062 43.109375 257.085938 43.058594 258.839844 45.273438 C 259.15625 45.675781 259.292969 46.1875 259.226562 46.691406 C 259.320312 47.390625 260.472656 48.910156 261.558594 49.960938 C 261.554688 49.894531 261.554688 49.832031 261.550781 49.773438 C 261.527344 48.519531 261.503906 47.339844 261.832031 46.425781 C 261.929688 46.152344 262.089844 45.90625 262.300781 45.703125 C 263.945312 44.128906 262.527344 41.546875 260.34375 38.070312 C 260.117188 37.707031 259.894531 37.351562 259.683594 37.007812 C 253.5625 40.6875 248.121094 41.175781 244.121094 38.390625 C 243.636719 38.605469 242.9375 38.980469 242.425781 39.25 C 240.570312 40.246094 239.34375 40.863281 238.230469 40.8125 C 237.828125 40.824219 237.191406 40.898438 236.519531 40.976562 C 233.617188 41.316406 228.972656 41.855469 227.0625 39.113281 C 226.960938 39.101562 226.863281 39.089844 226.761719 39.078125 C 223.515625 38.695312 218.789062 38.136719 217.03125 34.957031 C 210.027344 34.105469 208.128906 32.03125 207.417969 28.996094 C 207.398438 28.90625 207.375 28.800781 207.347656 28.707031 C 207.261719 28.695312 207.136719 28.683594 206.964844 28.679688 C 205.136719 29.371094 203.109375 30.160156 202.035156 30.617188 C 202.117188 31.480469 202.527344 32.84375 202.773438 33.664062 C 203.472656 35.992188 204.132812 38.191406 202.476562 39.445312 C 200.917969 40.632812 198.792969 39.726562 195.867188 37.882812 C 195.636719 37.738281 195.441406 37.542969 195.292969 37.316406 C 193.601562 34.722656 188.210938 34.613281 184.640625 34.542969 C 184.140625 34.53125 183.667969 34.523438 183.234375 34.507812 C 182.21875 34.472656 181.417969 33.640625 181.417969 32.628906 C 181.417969 32.628906 181.417969 30.953125 181.417969 30.015625 C 178.335938 26.378906 170.0625 26.15625 165.539062 26.039062 L 164.933594 26.019531 C 164.554688 26.011719 164.191406 25.886719 163.882812 25.667969 C 160.972656 23.574219 158.222656 21.601562 158.023438 18.558594 C 157.917969 16.917969 158.605469 15.277344 160.121094 13.585938 C 160.03125 13.523438 159.945312 13.464844 159.867188 13.414062 C 159.140625 12.921875 158.234375 12.308594 157.753906 11.3125 C 157.699219 11.210938 157.660156 11.101562 157.628906 10.992188 C 157.027344 8.792969 158.199219 7.628906 159.015625 7 C 157.085938 6.609375 156.136719 5.53125 155.390625 4.488281 C 155.339844 4.414062 155.277344 4.332031 155.222656 4.253906 C 151.6875 6.757812 144.746094 7.410156 137.421875 8.097656 C 131.863281 8.621094 126.117188 9.160156 123.929688 10.511719 C 123.683594 10.664062 123.40625 10.757812 123.117188 10.785156 C 115.871094 11.484375 106.492188 14.003906 101.871094 18.066406 C 101.464844 18.421875 100.925781 18.585938 100.390625 18.519531 C 98.351562 18.261719 94.628906 18.164062 91.34375 18.074219 C 89.84375 18.035156 88.429688 17.996094 87.304688 17.949219 C 87.207031 17.945312 87.109375 17.933594 87.011719 17.910156 C 86.859375 17.886719 86.328125 17.878906 85.941406 17.867188 C 84.867188 17.847656 83.347656 17.816406 82.050781 17.425781 C 80.496094 20.699219 77.722656 25.71875 75.949219 27.058594 C 75.578125 27.335938 75.117188 27.46875 74.652344 27.429688 C 70.785156 27.101562 69.5625 27.925781 68.148438 28.882812 C 67.359375 29.417969 66.5 30 65.292969 30.382812 C 65.976562 43.8125 64.3125 46.605469 60.21875 47.910156 C 58.914062 48.328125 57.886719 48.65625 57.285156 53.496094 C 57.21875 54.027344 56.929688 54.503906 56.492188 54.808594 C 56.050781 55.113281 55.503906 55.21875 54.980469 55.097656 C 54.441406 54.96875 53.484375 55.292969 52.695312 55.867188 C 52.332031 56.132812 51.886719 56.261719 51.4375 56.222656 C 49.953125 56.105469 47.921875 55.941406 47.449219 56.277344 C 47.121094 56.511719 46.84375 57.714844 46.632812 59.855469 C 46.582031 60.359375 46.332031 60.820312 45.9375 61.136719 C 45.542969 61.453125 45.042969 61.597656 44.539062 61.542969 C 43.144531 61.378906 42.464844 63.15625 41.554688 66.960938 C 41.257812 68.214844 40.976562 69.394531 40.574219 70.398438 C 40.488281 70.613281 40.363281 70.808594 40.207031 70.980469 L 33.355469 78.351562 C 33.035156 78.699219 32.769531 78.984375 32.546875 79.21875 C 32.277344 82.160156 31.015625 84.425781 29.019531 85.632812 C 29.144531 85.925781 29.273438 86.144531 29.375 86.265625 C 29.945312 86.148438 30.542969 86.296875 30.988281 86.671875 C 31.46875 87.082031 31.714844 87.703125 31.640625 88.328125 C 31.421875 90.210938 31.878906 92.445312 32.363281 94.816406 C 33.101562 98.425781 33.9375 102.515625 32.359375 106.238281 C 32.0625 107.433594 31.347656 108.9375 30.53125 110.664062 C 29.183594 113.507812 27.144531 117.804688 27.925781 119.667969 C 28.039062 119.941406 28.265625 120.289062 29.015625 120.550781 C 29.332031 120.660156 29.609375 120.851562 29.828125 121.105469 C 30.628906 122.035156 30.394531 123.210938 29.664062 124.882812 C 29.695312 127.0625 29.757812 128.554688 29.851562 129.339844 C 30.683594 129.609375 31.363281 130.167969 31.984375 131.101562 C 33.085938 130.960938 34.453125 130.933594 35.460938 131.796875 C 36.09375 132.335938 36.441406 133.125 36.441406 134.019531 C 36.441406 134.289062 36.386719 134.550781 36.273438 134.792969 C 35.519531 136.46875 40.257812 140.515625 42.804688 142.6875 C 44.800781 144.394531 46.53125 145.871094 47.46875 147.210938 C 47.707031 147.550781 47.824219 147.957031 47.804688 148.371094 C 47.582031 153.503906 48.449219 154.027344 52.089844 156.214844 C 52.628906 156.535156 53.207031 156.886719 53.828125 157.277344 C 57.546875 158.953125 60.234375 161.691406 62.609375 164.113281 C 66.4375 168.015625 69.484375 171.121094 75.769531 169.789062 C 78.949219 166.363281 84.804688 164.777344 89.386719 164.734375 C 91.199219 164.753906 92.867188 165.558594 94.480469 166.335938 C 97.265625 167.675781 98.273438 167.949219 99.183594 167.035156 C 99.285156 166.933594 99.402344 166.84375 99.523438 166.765625 C 108.292969 161.3125 118.371094 156.105469 126.628906 158.832031 C 130.574219 160.136719 133.636719 163.148438 135.738281 167.792969 C 139.179688 167.792969 148.566406 167.792969 148.960938 167.792969 C 149.089844 167.792969 149.21875 167.804688 149.347656 167.828125 C 149.964844 167.953125 150.480469 168.378906 150.71875 168.960938 C 151.210938 170.152344 153.375 170.304688 154.710938 170.121094 C 155.25 170.046875 155.792969 170.207031 156.203125 170.5625 C 156.617188 170.917969 156.851562 171.433594 156.855469 171.976562 C 156.855469 171.976562 156.917969 183.84375 156.917969 183.84375 C 156.917969 183.902344 156.914062 183.964844 156.910156 184.023438 C 156.855469 184.5625 156.730469 185.339844 156.582031 186.238281 C 156.332031 187.777344 155.742188 191.382812 156.019531 192.265625 C 156.175781 192.757812 156.121094 193.292969 155.871094 193.742188 C 155.621094 194.195312 155.195312 194.523438 154.695312 194.652344 C 154.648438 194.664062 154.601562 194.675781 154.554688 194.6875 C 154.695312 196.40625 154.683594 198.355469 153.414062 199.820312 C 153.199219 200.0625 152.964844 200.28125 152.703125 200.472656 C 156.363281 204.644531 164.25 213.703125 166.035156 216.402344 C 166.285156 216.78125 166.390625 217.238281 166.332031 217.691406 C 165.8125 221.492188 168.164062 224.613281 170.652344 227.910156 C 171.335938 228.820312 172.042969 229.757812 172.691406 230.714844 C 173.199219 231.253906 173.277344 232.03125 173.320312 232.433594 C 173.640625 235.519531 173.234375 237.507812 172.113281 238.34375 L 172.113281 240.539062 C 172.113281 240.601562 172.113281 240.679688 172.113281 240.757812 C 172.238281 240.960938 172.394531 241.203125 172.554688 241.453125 C 174.175781 243.953125 176.394531 247.378906 175.039062 249.808594 C 175.015625 249.847656 174.992188 249.886719 174.96875 249.925781 C 174.1875 251.113281 173.859375 252.859375 173.511719 254.707031 C 172.90625 257.957031 172.160156 261.925781 168.285156 263.46875 C 168.019531 266.09375 167.671875 268.519531 167.332031 270.871094 C 165.863281 281.140625 164.796875 288.566406 173.035156 298.398438 C 173.25 298.546875 173.941406 298.742188 174.359375 298.863281 C 175.617188 299.222656 177.183594 299.667969 177.859375 301.097656 C 178.128906 301.671875 178.34375 302.617188 177.808594 303.855469 C 177.726562 304.042969 177.613281 304.214844 177.476562 304.367188 C 175.175781 306.917969 175.953125 309.273438 177.527344 313.226562 C 178.511719 315.695312 179.621094 318.484375 179.285156 321.421875 C 179.347656 322.128906 179.410156 322.921875 179.476562 323.78125 C 179.964844 330.09375 180.871094 341.847656 186.390625 343.128906 C 187.351562 343.347656 187.976562 344.273438 187.828125 345.246094 C 187.453125 347.652344 188.074219 351.9375 189.425781 354.058594 C 193.742188 357.753906 194.039062 359.234375 193.363281 363.300781 C 193.257812 363.933594 193.140625 364.636719 193.039062 365.464844 C 193.636719 367.746094 194.3125 370.128906 194.898438 370.765625 C 195.082031 370.964844 195.667969 370.945312 197.058594 370.847656 C 197.875 370.789062 198.902344 370.714844 200.167969 370.714844 Z M 204.742188 374.761719 C 204.679688 374.761719 204.613281 374.757812 204.550781 374.753906 C 204.414062 374.765625 204.269531 374.761719 204.121094 374.746094 C 201.019531 374.339844 198.882812 374.492188 197.328125 374.601562 C 192.085938 374.972656 191.25 373.542969 189.304688 366.070312 C 189.246094 365.847656 189.230469 365.613281 189.253906 365.386719 C 189.378906 364.3125 189.527344 363.410156 189.648438 362.683594 C 190.117188 359.847656 190.15625 359.613281 186.785156 356.757812 C 186.660156 356.652344 186.554688 356.535156 186.460938 356.402344 C 184.714844 353.914062 183.859375 349.542969 183.964844 346.257812 C 177.191406 343.148438 176.28125 331.328125 175.71875 324.070312 C 175.648438 323.148438 175.582031 322.304688 175.515625 321.570312 C 175.5 321.421875 175.503906 321.277344 175.523438 321.128906 C 175.8125 319.09375 174.945312 316.921875 174.027344 314.621094 C 172.636719 311.128906 170.929688 306.839844 173.992188 302.683594 C 173.761719 302.609375 173.511719 302.539062 173.324219 302.480469 C 172.257812 302.175781 171.046875 301.832031 170.238281 300.925781 C 170.226562 300.910156 170.214844 300.898438 170.203125 300.882812 C 160.824219 289.734375 162.113281 280.746094 163.601562 270.339844 C 163.988281 267.660156 164.386719 264.890625 164.648438 261.875 C 164.71875 261.054688 165.320312 260.375 166.125 260.199219 C 168.632812 259.65625 169.136719 257.601562 169.808594 254.015625 C 170.195312 251.957031 170.59375 249.828125 171.699219 248.046875 C 171.710938 247.410156 170.9375 245.878906 169.390625 243.496094 C 169.042969 242.960938 168.769531 242.535156 168.574219 242.183594 C 168.421875 241.898438 168.34375 241.582031 168.34375 241.269531 C 168.34375 241.0625 168.34375 236.535156 168.34375 236.535156 C 168.34375 235.753906 168.828125 235.054688 169.558594 234.777344 C 169.582031 234.769531 169.601562 234.761719 169.621094 234.753906 C 169.652344 234.097656 169.625 233.308594 169.578125 232.839844 C 168.988281 231.960938 168.332031 231.09375 167.644531 230.179688 C 165.066406 226.761719 162.164062 222.914062 162.519531 217.945312 C 160.03125 214.554688 151.167969 204.398438 148.003906 200.84375 C 147.523438 200.296875 147.394531 199.527344 147.679688 198.859375 C 147.960938 198.191406 148.605469 197.742188 149.328125 197.710938 C 149.941406 197.683594 150.394531 197.550781 150.566406 197.351562 C 150.988281 196.867188 150.839844 195.34375 150.730469 194.230469 C 150.707031 193.953125 150.679688 193.679688 150.65625 193.414062 C 150.601562 192.695312 150.960938 192.007812 151.582031 191.640625 C 151.742188 191.546875 151.910156 191.480469 152.085938 191.4375 C 152.105469 191.433594 152.140625 191.421875 152.191406 191.410156 C 152.199219 189.871094 152.492188 187.902344 152.867188 185.632812 C 152.988281 184.886719 153.101562 184.179688 153.148438 183.75 L 153.097656 173.933594 C 151.132812 173.820312 149.113281 173.148438 147.902344 171.554688 C 147.566406 171.558594 147.175781 171.558594 146.714844 171.558594 L 134.488281 171.558594 C 133.714844 171.558594 133.023438 171.085938 132.738281 170.367188 C 131.039062 166.070312 128.65625 163.46875 125.449219 162.40625 C 118.675781 160.175781 109.214844 165.1875 101.683594 169.859375 C 98.773438 172.585938 95.351562 170.9375 92.84375 169.726562 C 91.601562 169.128906 90.320312 168.511719 89.386719 168.5 C 85.511719 168.539062 80.421875 169.980469 78.257812 172.667969 C 78 172.988281 77.644531 173.214844 77.242188 173.3125 C 68.476562 175.476562 64.125 171.039062 59.917969 166.75 C 57.648438 164.433594 55.300781 162.039062 52.175781 160.664062 C 52.09375 160.625 52.011719 160.582031 51.933594 160.53125 C 51.292969 160.128906 50.695312 159.769531 50.148438 159.441406 C 45.957031 156.921875 43.882812 155.375 44.019531 148.914062 C 43.210938 147.988281 41.761719 146.753906 40.355469 145.550781 C 36.488281 142.25 32.167969 138.558594 32.433594 134.84375 C 32.222656 134.871094 32.023438 134.898438 31.882812 134.921875 C 31.589844 134.96875 31.328125 135.003906 31.128906 135.023438 C 30.355469 135.085938 29.625 134.664062 29.28125 133.96875 C 28.953125 133.289062 28.730469 133.011719 28.632812 132.914062 C 25.992188 132.585938 25.964844 130.390625 25.890625 124.515625 C 25.886719 124.242188 25.941406 123.960938 26.066406 123.699219 C 26.121094 123.574219 26.179688 123.445312 26.230469 123.324219 C 25.429688 122.757812 24.824219 122.015625 24.449219 121.125 C 23.019531 117.710938 25.199219 113.109375 27.125 109.050781 C 27.824219 107.574219 28.546875 106.046875 28.71875 105.25 C 28.746094 105.121094 28.789062 104.996094 28.839844 104.875 C 30.03125 102.210938 29.371094 98.984375 28.671875 95.570312 C 28.277344 93.636719 27.871094 91.65625 27.824219 89.734375 C 27.6875 89.667969 27.554688 89.597656 27.425781 89.511719 C 25.640625 88.371094 25.074219 85.867188 24.914062 84.839844 C 24.761719 83.882812 25.367188 82.964844 26.3125 82.726562 C 28.460938 82.179688 28.785156 79.496094 28.824219 78.367188 C 28.839844 77.898438 29.03125 77.46875 29.332031 77.148438 C 29.433594 77.039062 35.832031 70.15625 37.191406 68.6875 C 37.441406 67.976562 37.660156 67.054688 37.890625 66.089844 C 38.617188 63.054688 39.660156 58.691406 43.085938 57.886719 C 43.925781 52.605469 46.050781 52.070312 51.089844 52.421875 C 51.726562 52.039062 52.691406 51.566406 53.800781 51.382812 C 54.777344 46.136719 56.847656 45.035156 59.070312 44.324219 C 60.117188 43.988281 60.511719 43.863281 60.949219 42.53125 C 61.695312 40.269531 61.859375 35.839844 61.441406 28.996094 C 61.382812 27.996094 62.117188 27.121094 63.113281 27.011719 C 64.410156 26.867188 65.089844 26.40625 66.035156 25.765625 C 67.605469 24.703125 69.542969 23.394531 74.109375 23.621094 C 75.65625 21.796875 78.800781 15.917969 79.523438 13.792969 C 79.816406 12.9375 80.679688 12.410156 81.578125 12.539062 C 82.308594 12.644531 82.894531 13.160156 83.105469 13.839844 C 83.765625 14.058594 85.308594 14.089844 86.015625 14.105469 C 86.648438 14.117188 87.164062 14.128906 87.585938 14.191406 C 88.660156 14.238281 90.015625 14.273438 91.441406 14.3125 C 94.425781 14.390625 97.765625 14.480469 100.03125 14.695312 C 105.664062 10.203125 115.371094 7.804688 122.351562 7.078125 C 125.382812 5.449219 130.820312 4.9375 137.066406 4.347656 C 143.308594 3.761719 151.074219 3.03125 153.382812 0.910156 C 153.644531 0.667969 153.972656 0.507812 154.324219 0.441406 C 156.8125 -0.0078125 157.882812 1.496094 158.457031 2.300781 C 159.003906 3.0625 159.363281 3.570312 161.582031 3.335938 C 162.574219 3.230469 163.472656 3.917969 163.636719 4.902344 C 164.136719 7.9375 162.378906 9.210938 161.535156 9.820312 C 161.5 9.847656 161.460938 9.878906 161.417969 9.90625 C 161.597656 10.035156 161.816406 10.183594 161.976562 10.292969 C 162.925781 10.933594 164.898438 12.265625 164.152344 14.566406 C 164.054688 14.871094 163.882812 15.144531 163.652344 15.359375 C 162.382812 16.550781 161.734375 17.574219 161.785156 18.3125 C 161.863281 19.484375 163.699219 20.890625 165.613281 22.273438 L 165.640625 22.273438 C 171.242188 22.421875 180.527344 22.667969 184.5625 27.917969 C 185.152344 28.417969 185.183594 29.34375 185.183594 30.789062 C 189.402344 30.875 195.386719 31.128906 198.191406 34.894531 C 198.679688 35.195312 199.085938 35.425781 199.417969 35.605469 C 199.332031 35.304688 199.242188 35.003906 199.164062 34.746094 C 198.539062 32.664062 197.894531 30.511719 198.507812 28.757812 C 198.601562 28.492188 198.753906 28.25 198.953125 28.050781 C 199.257812 27.746094 199.574219 27.429688 205.949219 25.039062 C 206.144531 24.964844 206.351562 24.925781 206.554688 24.917969 C 209.847656 24.824219 210.683594 26.410156 211.085938 28.140625 C 211.324219 29.152344 211.679688 30.679688 218.53125 31.335938 C 219.328125 31.410156 219.988281 31.980469 220.179688 32.753906 C 220.632812 34.5625 224.746094 35.046875 227.203125 35.339844 C 227.6875 35.394531 228.140625 35.449219 228.542969 35.503906 C 229.257812 35.605469 229.847656 36.101562 230.070312 36.785156 C 230.433594 37.894531 234.539062 37.414062 236.085938 37.234375 C 236.929688 37.136719 237.660156 37.050781 238.253906 37.046875 C 238.273438 37.046875 238.292969 37.046875 238.3125 37.046875 C 238.753906 36.945312 239.933594 36.3125 240.648438 35.929688 C 242.574219 34.902344 243.847656 34.222656 245.074219 34.554688 C 245.335938 34.625 245.582031 34.753906 245.792969 34.929688 C 249.84375 38.335938 255.988281 35.046875 259.289062 32.78125 C 259.75 32.464844 260.324219 32.367188 260.859375 32.515625 C 261.394531 32.664062 261.839844 33.042969 262.070312 33.546875 C 262.386719 34.238281 262.941406 35.128906 263.535156 36.070312 C 265.585938 39.335938 268.648438 44.214844 265.332031 47.980469 C 265.292969 48.425781 265.308594 49.191406 265.320312 49.691406 C 265.355469 51.425781 265.390625 53.066406 264.515625 54.128906 C 264.390625 54.28125 264.238281 54.414062 264.074219 54.519531 C 265.96875 56.445312 267.054688 59.390625 267.703125 61.140625 C 267.800781 61.40625 267.835938 61.691406 267.808594 61.972656 C 267.703125 63.074219 269.730469 66.601562 273.699219 70.96875 C 274.148438 71.464844 274.300781 72.160156 274.105469 72.796875 C 273.335938 75.246094 277.15625 77.773438 279.6875 79.441406 C 280.210938 79.785156 280.691406 80.105469 281.097656 80.394531 C 281.382812 80.597656 281.605469 80.875 281.742188 81.199219 C 283.039062 84.273438 283.261719 90.34375 283.167969 93.53125 C 284.953125 95.414062 286.339844 96.753906 287.476562 97.851562 C 291.839844 102.058594 292.480469 102.933594 294.675781 112.582031 C 295.789062 113.394531 297.054688 114.234375 298.382812 115.113281 C 302.96875 118.144531 308.144531 121.570312 310.507812 126.308594 C 312.53125 127.785156 314.277344 130.226562 315.199219 132.84375 C 316.460938 133.425781 317.484375 134.65625 318.289062 135.625 C 318.308594 135.648438 318.328125 135.667969 318.34375 135.691406 C 318.609375 135.691406 318.917969 135.695312 319.273438 135.695312 L 328.890625 135.757812 C 328.929688 135.757812 328.972656 135.757812 329.011719 135.761719 C 331.023438 135.902344 333.519531 134.816406 335.925781 133.769531 C 338.0625 132.835938 340.269531 131.871094 342.472656 131.582031 C 343.75 130.535156 346.375 128.695312 348.800781 129.855469 C 352.164062 131.46875 351.972656 137.4375 351.824219 142.238281 C 351.789062 143.316406 351.757812 144.246094 351.78125 144.890625 C 351.800781 145.285156 351.6875 145.679688 351.46875 146.007812 C 347.078125 152.574219 340.441406 162.496094 338.1875 170.519531 C 338.132812 170.707031 338.050781 170.886719 337.941406 171.050781 C 335.328125 174.988281 331.296875 178.0625 327.398438 181.035156 C 323.273438 184.179688 319.378906 187.152344 317.140625 190.972656 C 316.910156 191.363281 316.546875 191.660156 316.113281 191.804688 C 310.867188 193.5625 307.800781 198.292969 304.554688 203.296875 C 302.765625 206.058594 300.917969 208.910156 298.65625 211.238281 C 296.433594 216.460938 296.644531 228.269531 296.757812 234.667969 C 296.769531 235.136719 296.777344 235.585938 296.78125 236.011719 C 297.796875 237.078125 298.546875 238.023438 299.027344 238.839844 C 299.890625 239.007812 300.671875 239.425781 301.324219 240.078125 C 302.898438 241.652344 303.277344 244.175781 303.117188 245.910156 C 303.113281 246.980469 303.128906 248.113281 303.144531 249.289062 C 303.253906 258.519531 303.40625 271.160156 295.027344 277.328125 C 292.097656 279.476562 287.421875 280.90625 283.226562 281 C 281.246094 285.734375 275.726562 289.398438 271.691406 291.972656 C 271.699219 293.328125 272.921875 294.96875 274.15625 295.519531 C 275.015625 295.902344 275.460938 296.863281 275.195312 297.765625 C 274.15625 301.328125 274.089844 306.179688 274.027344 310.871094 C 273.980469 314.347656 273.933594 317.945312 273.480469 321.039062 C 273.460938 321.175781 273.425781 321.304688 273.378906 321.433594 C 270.910156 327.953125 264.640625 328.625 260.894531 329.027344 C 260.46875 329.074219 259.96875 329.125 259.53125 329.1875 C 259.699219 329.402344 259.921875 329.667969 260.210938 329.984375 C 260.671875 330.492188 260.808594 331.191406 260.613281 331.816406 C 260.605469 331.949219 260.601562 332.160156 260.597656 332.324219 C 260.582031 333.273438 260.550781 335.113281 259.613281 336.183594 C 259.65625 337.226562 259.609375 338.710938 258.398438 339.519531 C 258.300781 339.582031 258.183594 339.652344 258.039062 339.714844 C 256.839844 345.089844 251.214844 349.890625 247.367188 353.175781 L 247.328125 353.210938 C 246.5625 358.753906 240.175781 363.652344 238.589844 364.792969 C 229.4375 373.25 222.488281 373.113281 216.347656 372.992188 C 212.714844 372.921875 209.277344 372.855469 205.53125 374.585938 C 205.273438 374.703125 205.003906 374.761719 204.742188 374.761719 " fill-opacity="1" fill-rule="nonzero"/></svg>