<svg xmlns="http://www.w3.org/2000/svg" xmlns:xlink="http://www.w3.org/1999/xlink" width="500" zoomAndPan="magnify" viewBox="0 0 375 374.999991" height="500" preserveAspectRatio="xMidYMid meet" version="1.0"><path fill="#000000" d="M 166.128906 48.242188 C 178.316406 47.152344 191.171875 41.609375 202.976562 46.507812 C 210.222656 49.355469 222.4375 59.359375 223.109375 61.367188 C 220.707031 56.898438 218.347656 52.402344 215.042969 48.539062 C 225.839844 49.734375 223.0625 42.816406 213.53125 46.117188 C 204.878906 48.355469 197.347656 39.203125 188.957031 43.121094 Z M 197.203125 240.703125 C 206.015625 222.148438 218.054688 204.84375 222.234375 184.375 C 214.425781 200.152344 208.691406 216.964844 200.820312 232.777344 Z M 147.710938 319.039062 C 150.648438 319.203125 163.082031 314.78125 157.046875 319.785156 C 154.761719 321.417969 150.519531 318.910156 147.710938 319.039062 Z M 146.558594 312.875 C 148.855469 309.429688 160.164062 307.324219 158.222656 309.816406 C 154.691406 312.070312 150.515625 311.996094 146.558594 312.875 Z M 193.171875 334.585938 C 198.601562 337.980469 206.328125 338.660156 210.859375 333.460938 C 209.957031 332.765625 201.859375 338.382812 197.816406 335.421875 Z M 192.308594 323.730469 C 197.929688 326.300781 204.695312 328.316406 210.457031 326.019531 C 217.886719 318.820312 207.597656 326.734375 203.222656 324.570312 Z M 194.613281 296.445312 C 197.296875 303.066406 203.304688 307.023438 209.277344 310.101562 C 219.089844 312.589844 209.898438 308.859375 206.203125 305.902344 Z M 161.808594 263.882812 C 165.851562 259.257812 171.371094 260.0625 176.824219 260.625 C 182.109375 261.292969 184.074219 272.007812 178.550781 263.933594 C 173.394531 261.449219 167.152344 262.191406 161.808594 263.882812 Z M 163.535156 247.746094 C 170.085938 248.359375 177.613281 246.332031 183.390625 249.210938 C 181.628906 253.113281 168.054688 247.027344 163.535156 247.746094 Z M 162.386719 238.0625 C 167.3125 238.972656 187.652344 231.277344 181.664062 238.355469 C 175.21875 238.613281 168.8125 238.855469 162.386719 238.0625 Z M 162.386719 218.992188 C 170.648438 219.140625 193.027344 206.492188 175.34375 217.601562 C 171.542969 220.253906 166.367188 222.886719 162.386719 218.992188 Z M 156.628906 180.265625 C 168.519531 179.464844 186.164062 178.355469 190.871094 192.296875 C 181.757812 183.769531 168.332031 182.679688 156.628906 180.265625 Z M 148.285156 166.183594 C 153.0625 160.253906 158.984375 153.722656 167.316406 155.328125 C 174.652344 156.113281 182.664062 153.390625 189.433594 156.796875 C 195.234375 163.953125 199.601562 170.570312 191.148438 160.992188 C 187.730469 155.140625 180.421875 158.484375 174.953125 157.492188 C 166.421875 155.671875 160.183594 159.816406 153.378906 164.214844 Z M 160.082031 128.042969 C 171.769531 123.984375 196.121094 127.84375 197.164062 136.625 C 188.804688 131.066406 178.539062 127.96875 168.378906 128.203125 Z M 152.027344 112.199219 C 165.285156 102.894531 186.617188 97.757812 199.214844 110.4375 C 187.3125 102.316406 171.949219 105.558594 159.21875 109.558594 C 156.730469 110.15625 154.394531 111.253906 152.023438 112.199219 Z M 152.890625 94.597656 C 164.996094 84.605469 180.804688 87.53125 194.492188 91.207031 C 201.058594 90.625 217.5 105.976562 204.648438 95.84375 C 191.65625 86.785156 170.230469 78.816406 156.847656 91.296875 C 155.519531 92.382812 154.199219 93.480469 152.890625 94.59375 Z M 236.621094 218.113281 C 232.28125 242.921875 226.933594 267.707031 220.730469 292.007812 C 214.695312 297.199219 217.539062 328.492188 215.523438 308.476562 C 214.113281 293.851562 224.597656 282.332031 225.761719 267.867188 C 229.355469 251.273438 233.238281 234.75 236.621094 218.109375 Z M 251.007812 206.082031 C 250.023438 222.503906 248.335938 239.425781 242.375 254.785156 C 234.890625 265.703125 232.089844 278.019531 230.003906 290.871094 C 226.316406 285.476562 237.75 260.890625 227.570312 275.871094 C 231.464844 267.320312 244.679688 249.746094 245.582031 235.4375 C 243.636719 228.613281 234.019531 241.828125 241.613281 231.828125 C 250.015625 226.539062 249.890625 208.996094 251.007812 206.082031 Z M 268.273438 140.363281 C 265.488281 155.949219 263.015625 171.960938 255.035156 185.839844 C 251.644531 191.890625 253.335938 209.246094 250.71875 194.640625 C 239.109375 204.292969 252.808594 180.863281 252.859375 173.570312 C 255.085938 165.335938 254.53125 159.894531 253.144531 171.320312 C 256.773438 183.539062 261.246094 158.632812 263.785156 154.523438 C 265.347656 149.824219 266.84375 145.105469 268.273438 140.363281 Z M 220.078125 346.324219 C 226.871094 334.128906 226.828125 320.550781 226.808594 307.902344 C 228.332031 300.765625 230.765625 283.394531 226.78125 300.242188 C 220.664062 315.136719 227.90625 322.824219 222.421875 338.644531 C 221.683594 341.21875 220.898438 343.777344 220.078125 346.320312 Z M 221.085938 353.511719 C 215.238281 344.988281 214.820312 327.25 215.945312 321.765625 C 213.226562 334.207031 212.265625 344.164062 221.085938 353.511719 Z M 187.851562 360.992188 C 195.09375 369.15625 221.457031 366.5 222.089844 354.390625 C 219.445312 363.976562 206.03125 349.539062 207.039062 359.066406 C 219.074219 355.367188 203.277344 367.347656 201.375 356.886719 C 189.746094 356.941406 197.578125 358.953125 199.828125 361.542969 C 196.007812 362.90625 191.660156 361.933594 187.851562 360.992188 Z M 183.679688 319.625 C 183.386719 330.277344 189.257812 352.203125 189.121094 354.832031 C 189.542969 343.476562 186.214844 331.007812 183.679688 319.625 Z M 149.148438 356.152344 C 158.394531 348.078125 179.363281 355.371094 183.050781 357.339844 C 171.863281 355.191406 160.441406 353.878906 149.148438 356.152344 Z M 186.84375 357.910156 C 183.335938 374.84375 158.179688 364.460938 147.277344 359.671875 C 145.21875 356.191406 163.546875 365.722656 170.585938 363.78125 C 177.117188 364.632812 183.167969 363.914062 186.84375 357.910156 Z M 174.039062 353.511719 C 175.265625 342.683594 190.050781 356.71875 180.800781 347.496094 C 177.457031 346.25 173.207031 350.019531 174.039062 353.511719 Z M 159.9375 351.605469 C 159.121094 342.851562 176.824219 348.101562 163.246094 345.148438 C 160.523438 345.753906 159.546875 349.144531 159.9375 351.605469 Z M 145.839844 355.417969 C 141.828125 344.988281 161.214844 346.210938 156.054688 348.230469 C 151.25 345.863281 147.15625 353.070312 145.839844 355.417969 Z M 145.40625 316.835938 C 150.199219 330.367188 139.84375 345.230469 143.679688 356.589844 C 141.152344 347.0625 151.570312 341.320312 146.988281 331.066406 C 147.429688 326.238281 146.496094 321.507812 145.40625 316.835938 Z M 192.355469 219.199219 C 192.136719 233.566406 194.167969 247.324219 190.929688 261.523438 C 190.179688 267.207031 186.476562 286.992188 188.359375 271.273438 C 190.585938 253.964844 191.125 236.585938 192.355469 219.199219 Z M 131.597656 194.640625 C 134.113281 210.917969 131.007812 227.433594 134.449219 243.523438 C 136.195312 260.730469 141.253906 277.355469 141.507812 294.761719 C 141.097656 302.097656 146.519531 322.269531 144.832031 303.78125 C 139.601562 287.386719 142.011719 269.839844 138.324219 253.3125 C 133.382812 235.441406 135.304688 216.664062 132.054688 198.453125 L 131.71875 195.664062 Z M 173.230469 345.851562 C 184.523438 337.582031 175.542969 331.742188 167.636719 339.109375 C 157.785156 330.019531 160.914062 345.753906 169.871094 346.371094 C 157.375 339.257812 171.476562 340.433594 176.433594 338.785156 C 175.710938 341.242188 174.910156 343.867188 173.230469 345.851562 Z M 198.257812 188.082031 C 186.09375 220.113281 186.90625 255.085938 185.640625 288.902344 C 187.523438 305.886719 180.570312 321.839844 178.925781 338.484375 C 178.320312 321.785156 186.648438 305.730469 184.125 288.800781 C 180.328125 266.082031 189.808594 243.75 187.066406 221.0625 C 190.410156 209.882812 192.554688 198.410156 198.257812 188.078125 Z M 150.238281 185.382812 C 152.300781 200.695312 155.882812 215.824219 155.410156 231.339844 C 156.480469 248.003906 157.875 264.601562 159.800781 281.230469 C 160.351562 295.304688 160.785156 309.179688 160.539062 323.1875 C 159.355469 329.574219 160.925781 345.375 161.441406 330 C 163.175781 314.03125 163.921875 298.363281 160.523438 282.734375 C 161.898438 266.261719 154.679688 250.410156 158.375 233.722656 C 155.683594 219.597656 156.210938 205.480469 151.527344 191.421875 L 150.851562 188.277344 L 150.238281 185.386719 Z M 99.371094 132.6875 C 102.515625 148.472656 107.554688 163.726562 113.820312 178.429688 C 119.09375 193.359375 121.449219 209.371094 130.273438 223.023438 C 135.597656 234.453125 126.765625 212.195312 126.433594 208.410156 C 120.320312 200.816406 113.96875 172.792969 126.484375 193.824219 C 129.871094 202.261719 130.867188 204.691406 127.9375 194.261719 C 120.875 182.6875 112.253906 172.453125 110.085938 158.152344 C 105.417969 150.21875 102.742188 141.230469 99.371094 132.6875 Z M 136.402344 160.074219 C 132.523438 167.03125 123.769531 197.5625 137.425781 188.226562 C 133.714844 182.527344 149.953125 163.824219 140.0625 175.027344 C 139.582031 182.097656 131.222656 194.75 130.816406 180.226562 C 131.410156 173.230469 133.832031 166.53125 136.402344 160.074219 Z M 209.242188 171.484375 C 213.058594 178.832031 200.136719 193.828125 214.734375 190.15625 C 223.980469 187.183594 221.96875 160.871094 218.054688 164.144531 C 223.828125 171.671875 217.210938 197.246094 209.164062 186.066406 C 213.78125 184.988281 211.320312 173.347656 209.242188 171.484375 Z M 130.097656 55.515625 C 115.496094 60.429688 111.546875 76.9375 107.984375 90.386719 C 107.046875 96.21875 97.804688 108.765625 106.683594 96.539062 C 111.039062 86.78125 119.644531 80.164062 117.625 69.566406 C 121.320312 64.433594 124.34375 58.644531 130.097656 55.515625 Z M 150.238281 183.515625 C 147.746094 169.40625 129.832031 160.792969 135.792969 145.136719 C 135.636719 132.207031 154.542969 113.148438 136.816406 106.902344 C 133.960938 101.265625 129.75 83.09375 135.125 97.589844 C 134.683594 105.558594 146.03125 112.457031 147.847656 108.339844 C 147.109375 124.777344 134.277344 138.214844 136.402344 155.097656 C 138.222656 162.742188 149.136719 175.296875 145.335938 159.199219 C 144.382812 153.371094 145.914062 137.167969 147.597656 136.960938 C 146.667969 152.230469 145.402344 168.566406 150.238281 183.515625 Z M 69.871094 93.066406 C 83.464844 98.773438 77.734375 117.308594 91.234375 123.355469 C 96.335938 131.238281 105.265625 134.808594 109.402344 144.542969 C 117.09375 150.261719 127.980469 163.097656 132.621094 154.867188 C 138.390625 154.769531 130.652344 147.054688 126.636719 154.265625 C 111.6875 152.742188 109.40625 135.769531 100.921875 128.058594 C 90.507812 124.832031 83.679688 108.730469 79.875 97.65625 C 77.507812 94.574219 73.304688 94.070312 69.871094 93.066406 Z M 157.765625 13.402344 C 140.699219 10.976562 123.65625 3.984375 106.316406 5.664062 C 91.910156 13.214844 77.007812 23.304688 73.128906 40.371094 C 66.421875 54.167969 60.144531 71.605469 66.328125 86.78125 C 70.574219 96.210938 62.886719 72.320312 65.867188 67.5 C 69.289062 51.839844 82.894531 41.425781 82.691406 24.808594 C 90.152344 16.785156 104.65625 2.992188 109.75 15.058594 C 96.710938 0.144531 122.566406 12.152344 129.894531 9.457031 C 139.109375 12.011719 148.132812 13.8125 157.765625 13.398438 Z M 135.335938 88.726562 C 139.984375 77.464844 150.007812 102.261719 139.59375 89.5625 C 130.976562 95.910156 154.058594 96.875 139.507812 99.875 C 154.988281 106.953125 139.390625 72.265625 135.335938 88.726562 Z M 119.3125 27.507812 C 125.578125 41.007812 140.605469 53.355469 134.40625 69.195312 C 135.453125 75.042969 129.613281 93.800781 135.257812 79.203125 C 145.023438 64.285156 133.582031 48.765625 142.441406 33.667969 C 143.097656 25.554688 162.308594 11.617188 147.707031 22.121094 C 137.910156 28.109375 138.5 47.035156 133.875 51.59375 C 131.40625 42.230469 124.761719 35.210938 119.3125 27.503906 Z M 159.191406 14.230469 C 163.800781 23.550781 180.84375 14.671875 189.941406 15.273438 C 196.664062 9.527344 215.960938 11.988281 215.71875 15.160156 C 204.734375 2.035156 188.648438 17.027344 175.078125 15.863281 C 169.691406 16.582031 164.246094 16.460938 159.191406 14.230469 Z M 226.742188 24.808594 C 233.070312 26.035156 244.921875 47.671875 243.042969 41.738281 C 240.015625 33.769531 235.082031 27.363281 226.742188 24.808594 Z M 221.652344 32.277344 C 230.707031 35.171875 235.097656 50.675781 236.816406 54.671875 C 234.183594 45.035156 232.878906 35.019531 221.652344 32.277344 Z M 218.195312 17.132812 C 232.34375 14.617188 246.855469 12.007812 261.328125 12.152344 C 275.285156 7.375 288.066406 17.605469 297.953125 26.46875 C 285.960938 15.621094 270.929688 14.59375 256.148438 13.847656 C 245.171875 10.660156 242.648438 22.242188 245.054688 27.089844 C 247.199219 9.488281 228.042969 20.335938 218.199219 17.132812 Z M 238.335938 57.792969 C 251.070312 49.089844 250.671875 28.34375 268.246094 26.882812 C 281.429688 26.335938 294.703125 36.535156 294.492188 50.742188 C 292.855469 68.175781 292.464844 45.53125 287.195312 40.023438 C 281.246094 28.617188 253.59375 28.75 259.402344 45.894531 C 251.492188 44.523438 247.898438 55.761719 238.339844 57.792969 Z M 287.261719 105.742188 C 293.980469 95.890625 307.082031 112.820312 309.117188 95.964844 C 315.140625 81.515625 303.449219 63.089844 314.605469 51.492188 C 312.589844 41.960938 301.300781 29.988281 297.742188 26.167969 C 310.039062 39.542969 307.476562 55.859375 308.855469 72.546875 C 308.390625 84.453125 308.054688 101.390625 293.367188 98.621094 C 290.125 99.523438 288.835938 103.125 287.261719 105.742188 Z M 238.347656 136.398438 C 250.175781 128.195312 259.863281 116.4375 264.390625 102.515625 C 261.871094 118.980469 253.707031 130.195312 238.347656 136.398438 Z M 224.679688 161.042969 C 239.636719 160.101562 252.195312 151.480469 263.816406 143 C 267.539062 131.3125 281.234375 129.402344 286.941406 123.265625 C 283.363281 116.066406 286.421875 98.878906 282.804688 115.128906 C 290.695312 133.457031 259.789062 124.144531 258.78125 141.976562 C 251.175781 153.933594 236.203125 155.089844 224.683594 161.046875 Z M 218.496094 98.113281 C 221.296875 89.585938 234.449219 93.933594 223.097656 99.433594 C 210.109375 101.234375 230.246094 102.824219 227.578125 102.269531 C 225.785156 107.402344 211 102.4375 218.496094 98.113281 Z M 216.914062 96.792969 C 219.660156 90.289062 226.648438 83.890625 232.449219 91.21875 C 225.238281 81.074219 220.386719 88.273438 216.914062 96.792969 Z M 237.117188 68.789062 C 241.570312 75.066406 240.527344 89.40625 240.171875 92.855469 C 242.632812 86.871094 242.746094 66.027344 242.917969 67.863281 C 241.316406 71.105469 239.75 70.25 237.117188 68.789062 Z M 221.085938 114.835938 C 220.796875 124.199219 218.398438 133.601562 221.660156 142.707031 C 221.941406 146.957031 222.242188 155.746094 222.867188 157.078125 C 223.320312 150.558594 224.238281 144.015625 222.234375 137.710938 C 225.46875 129.558594 232.777344 121.59375 232.953125 111.644531 C 234.949219 101.421875 227.511719 134.785156 222.546875 130.390625 C 224.238281 123.488281 223.601562 125.09375 222.523438 119.234375 C 228.660156 111.1875 234.039062 102.46875 238.0625 93.125 C 233.214844 101.535156 227.929688 109.636719 222.234375 117.476562 Z M 223.386719 158.84375 C 211.933594 163.386719 205.011719 179.46875 197.878906 184.683594 C 204.789062 178.578125 205.273438 160.742188 205.179688 148.175781 C 205.558594 140.394531 205.976562 127.066406 205.941406 142.636719 C 209.53125 151.605469 198.671875 170.382812 206.410156 172.339844 C 210.722656 166.222656 215.203125 159.429688 223.386719 158.84375 Z M 223.386719 158.84375 " fill-opacity="1" fill-rule="nonzero"/></svg>