<svg xmlns="http://www.w3.org/2000/svg" xmlns:xlink="http://www.w3.org/1999/xlink" width="500" zoomAndPan="magnify" viewBox="0 0 375 374.999991" height="500" preserveAspectRatio="xMidYMid meet" version="1.0"><defs><clipPath id="ab087e3078"><path d="M 68.046875 1 L 307.296875 1 L 307.296875 375 L 68.046875 375 Z M 68.046875 1 " clip-rule="nonzero"/></clipPath></defs><g clip-path="url(#ab087e3078)"><path fill="#000000" d="M 157.324219 162.804688 C 155.832031 164.53125 154.597656 166.421875 153.628906 168.484375 C 152.539062 170.476562 151.570312 172.539062 150.523438 174.558594 C 150.207031 175.164062 149.890625 175.988281 149 175.574219 C 148.148438 175.175781 148.734375 174.46875 148.921875 173.921875 C 149.96875 170.949219 151.046875 167.984375 152.113281 165.019531 C 152.203125 164.78125 152.429688 164.484375 152.355469 164.316406 C 151.300781 161.898438 153.304688 160.828125 154.519531 159.453125 C 155.582031 158.277344 156.527344 157.011719 157.359375 155.664062 C 157.550781 155.257812 157.820312 154.914062 158.167969 154.632812 C 158.515625 154.351562 158.910156 154.160156 159.347656 154.058594 C 163.269531 153.160156 167.214844 153.039062 171.183594 153.703125 C 172.339844 153.925781 173.414062 154.355469 174.410156 154.980469 C 175.40625 155.605469 176.257812 156.390625 176.957031 157.335938 C 178.21875 159.386719 179.894531 161.003906 181.988281 162.191406 C 181.410156 161.117188 180.777344 160.070312 180.273438 158.960938 C 179.898438 158.417969 179.675781 157.820312 179.597656 157.167969 C 179.519531 156.515625 179.59375 155.882812 179.828125 155.269531 C 180.375 153.980469 178.976562 152.441406 177.972656 151.59375 C 173.582031 147.878906 168.867188 144.507812 162.671875 145.40625 C 157.011719 146.179688 151.523438 147.625 146.214844 149.738281 C 145.816406 149.933594 145.402344 150.089844 144.972656 150.210938 C 144.726562 150.257812 144.480469 150.261719 144.234375 150.222656 C 143.988281 150.1875 143.753906 150.109375 143.535156 149.988281 C 143.316406 149.871094 143.121094 149.722656 142.953125 149.535156 C 142.785156 149.351562 142.652344 149.144531 142.554688 148.914062 C 142.167969 147.910156 143.503906 147.957031 144.113281 147.789062 C 151.292969 145.832031 158.355469 143.367188 165.835938 142.671875 C 169.230469 142.558594 172.5 143.140625 175.644531 144.414062 C 177.972656 145.273438 180.378906 145.753906 182.859375 145.855469 C 185.335938 145.960938 187.773438 145.679688 190.164062 145.015625 C 190.378906 144.929688 190.582031 144.835938 190.785156 144.722656 C 190.003906 144.324219 189.175781 144.136719 188.300781 144.15625 C 187.484375 144.074219 186.675781 143.921875 185.871094 143.765625 C 185.179688 143.632812 184.332031 143.464844 184.445312 142.582031 C 184.558594 141.695312 185.421875 141.988281 186.015625 142.011719 C 187.792969 142.113281 189.554688 141.980469 191.296875 141.613281 C 191.6875 141.523438 192.085938 141.363281 191.988281 140.902344 C 191.863281 140.339844 191.398438 140.585938 191.058594 140.675781 C 185.839844 142.140625 180.785156 141.113281 175.765625 139.703125 C 172.296875 138.625 168.75 138.136719 165.117188 138.242188 C 161.488281 138.347656 157.972656 139.035156 154.574219 140.3125 C 151.136719 141.585938 147.613281 141.914062 144 141.308594 C 138.261719 140.503906 134.703125 142.027344 132.695312 147.539062 C 130.027344 154.292969 127.789062 161.183594 125.972656 168.210938 C 124.75 174.363281 122.84375 180.296875 120.265625 186.011719 C 117.183594 192.769531 115.152344 199.828125 114.171875 207.183594 C 112.765625 215.828125 111.125 224.4375 109.410156 233.03125 C 108.214844 239.019531 107.917969 245.125 106.820312 251.121094 C 105.574219 257.902344 103.136719 264.363281 101.453125 271.03125 C 100.347656 276.113281 98.65625 280.992188 96.371094 285.667969 C 95.785156 286.773438 95.371094 288.691406 93.820312 288.246094 C 92.050781 287.738281 93.09375 285.875 93.058594 284.585938 C 93.085938 284.210938 93.152344 283.84375 93.253906 283.480469 C 92.847656 283.558594 92.453125 283.667969 92.066406 283.816406 C 91.683594 283.960938 91.3125 284.140625 90.957031 284.351562 C 90.601562 284.5625 90.269531 284.800781 89.957031 285.070312 C 89.644531 285.34375 89.359375 285.636719 89.097656 285.957031 C 88.839844 286.277344 88.609375 286.617188 88.410156 286.976562 C 88.207031 287.339844 88.042969 287.714844 87.90625 288.101562 C 87.773438 288.492188 87.675781 288.890625 87.609375 289.300781 C 87.546875 289.707031 87.519531 290.117188 87.527344 290.527344 C 87.695312 291.347656 87.675781 292.160156 87.472656 292.972656 C 86.207031 296.273438 86.046875 299.878906 84.570312 303.105469 C 83.957031 304.449219 83.304688 305.988281 81.625 305.96875 C 79.839844 305.949219 79.152344 304.335938 78.691406 302.886719 C 77.09375 297.886719 78.28125 293.164062 80.316406 288.558594 C 80.636719 287.726562 81.054688 286.949219 81.570312 286.222656 C 82.121094 285.539062 82.582031 284.800781 82.953125 284.003906 C 83.324219 283.210938 83.59375 282.382812 83.765625 281.519531 C 83.9375 280.660156 84.003906 279.792969 83.964844 278.914062 C 83.925781 278.039062 83.78125 277.179688 83.535156 276.335938 C 81.390625 267.117188 80.59375 257.652344 78.691406 248.394531 C 78.363281 246.796875 78.070312 246.042969 76.355469 247.078125 C 75.503906 247.59375 74.375 247.914062 73.601562 246.878906 C 72.859375 245.886719 73.476562 244.964844 74.042969 244.105469 C 74.191406 243.820312 74.390625 243.578125 74.636719 243.375 C 77.101562 241.84375 76.785156 239.738281 76.207031 237.320312 C 73.664062 227.71875 72.121094 217.957031 71.578125 208.039062 C 71.320312 199.402344 72.476562 191.007812 77.867188 183.773438 C 79.667969 181.226562 82.007812 179.347656 84.882812 178.136719 C 88.1875 176.828125 91.1875 174.949219 94.4375 173.554688 C 94.804688 173.449219 95.128906 173.269531 95.410156 173.015625 C 98.222656 169.269531 100.550781 165.246094 102.394531 160.941406 C 104.238281 156.636719 105.542969 152.175781 106.304688 147.558594 C 108.578125 134.960938 110.984375 122.386719 113.289062 109.792969 C 114.851562 101.234375 116.027344 92.609375 116.914062 83.957031 C 118.472656 68.734375 120.507812 53.59375 126.117188 39.253906 C 132.195312 23.71875 142.164062 11.402344 157.683594 4.285156 C 159.355469 3.445312 161.09375 2.777344 162.894531 2.277344 C 164.699219 1.78125 166.535156 1.460938 168.402344 1.320312 C 170.265625 1.179688 172.128906 1.222656 173.988281 1.445312 C 175.84375 1.667969 177.664062 2.070312 179.445312 2.652344 C 179.992188 2.824219 180.550781 2.875 181.121094 2.808594 C 183.664062 2.53125 186.207031 2.527344 188.746094 2.800781 C 191.289062 3.074219 193.773438 3.617188 196.199219 4.425781 C 198.625 5.234375 200.933594 6.296875 203.128906 7.605469 C 205.324219 8.914062 207.355469 10.445312 209.21875 12.195312 C 213.3125 15.664062 216.960938 19.554688 220.164062 23.859375 C 223.367188 28.164062 226.046875 32.773438 228.195312 37.6875 C 230.429688 43.0625 231.179688 48.761719 232.199219 54.398438 C 233.515625 61.652344 235.144531 68.863281 235.871094 76.214844 C 236.527344 82.867188 237.203125 89.519531 237.609375 96.195312 C 238.273438 107.042969 238.042969 117.90625 238.402344 128.761719 C 238.476562 131.074219 239.179688 133.355469 239.453125 135.667969 C 239.648438 137.328125 239.25 137.597656 237.636719 137.121094 C 237.992188 139.046875 238.574219 140.902344 239.386719 142.683594 C 242.980469 150.460938 245.703125 158.691406 251.09375 165.550781 C 251.40625 165.878906 251.628906 166.257812 251.753906 166.691406 C 252.109375 169.03125 253.890625 169.300781 255.757812 169.765625 C 265.972656 172.320312 274.613281 177.753906 282.757812 184.265625 C 291.085938 190.925781 294.625 199.945312 296.839844 209.921875 C 298.683594 218.21875 298.207031 226.421875 297.386719 234.75 C 296.261719 246.203125 295.722656 257.699219 299.445312 268.878906 C 300.695312 272.953125 302.53125 276.746094 304.953125 280.257812 C 305.484375 281.050781 305.871094 281.910156 306.109375 282.835938 C 306.320312 283.558594 306.40625 284.308594 305.597656 284.625 C 304.820312 284.929688 304.488281 284.214844 304.210938 283.65625 C 303.847656 282.921875 303.5625 282.148438 303.214844 281.402344 C 303.09375 281.070312 302.941406 280.75 302.75 280.449219 C 302.5625 280.144531 302.339844 279.867188 302.09375 279.613281 C 301.84375 279.355469 301.570312 279.128906 301.273438 278.933594 C 300.976562 278.738281 300.660156 278.574219 300.328125 278.445312 C 299.996094 278.3125 299.65625 278.21875 299.300781 278.164062 C 298.949219 278.105469 298.59375 278.085938 298.238281 278.105469 C 297.882812 278.125 297.53125 278.179688 297.1875 278.273438 C 296.84375 278.367188 296.511719 278.496094 296.195312 278.660156 C 293.796875 279.636719 291.40625 280.640625 289.019531 281.640625 C 288.917969 281.679688 288.859375 281.8125 288.742188 281.945312 C 291.203125 282.203125 293.613281 282.703125 295.976562 283.449219 C 302.246094 285.917969 306.71875 290.007812 307.210938 297.074219 C 307.296875 300.359375 307.09375 303.625 306.601562 306.871094 C 305.894531 313.257812 305.503906 319.6875 304.410156 326.027344 C 303.15625 333.316406 303.175781 340.71875 302.171875 348.035156 C 300.78125 358.199219 295.570312 362.703125 285.210938 363.390625 C 278.632812 363.828125 272.058594 363.671875 265.480469 363.695312 C 255.613281 363.90625 245.816406 364.859375 236.089844 366.550781 C 224.992188 368.273438 213.871094 369.882812 202.792969 371.742188 C 188.890625 373.886719 174.90625 374.757812 160.84375 374.351562 C 156.613281 374.191406 152.402344 373.804688 148.214844 373.191406 C 146.523438 372.984375 144.855469 370.449219 144.675781 368.070312 C 144.445312 365.035156 144.445312 365.03125 141.496094 365.699219 C 133.664062 367.253906 125.828125 367.300781 117.980469 365.84375 C 107.820312 364.292969 97.753906 361.949219 87.40625 361.851562 C 85.628906 361.816406 83.867188 361.9375 82.113281 362.207031 C 79.871094 362.578125 79.582031 364.800781 78.664062 366.367188 C 77.953125 367.582031 79.28125 367.9375 79.890625 368.558594 C 80.851562 369.394531 81.695312 370.328125 82.425781 371.367188 C 82.710938 371.859375 83.011719 372.367188 82.6875 372.960938 C 82.308594 373.644531 81.640625 373.59375 81.011719 373.558594 C 80.449219 373.554688 79.910156 373.453125 79.382812 373.25 C 78.859375 373.046875 78.390625 372.757812 77.972656 372.382812 C 77.554688 372.007812 77.214844 371.574219 76.957031 371.074219 C 76.699219 370.578125 76.535156 370.050781 76.472656 369.492188 C 76.453125 369.210938 76.386719 368.941406 76.277344 368.683594 C 76.167969 368.425781 76.019531 368.191406 75.828125 367.984375 C 75.636719 367.777344 75.417969 367.605469 75.171875 367.472656 C 74.921875 367.339844 74.660156 367.25 74.382812 367.207031 C 72.796875 366.761719 71.207031 366.351562 69.632812 365.871094 C 68.902344 365.644531 68.171875 365.285156 68.050781 364.410156 C 68.039062 364.015625 68.132812 363.652344 68.339844 363.316406 C 68.542969 362.980469 68.824219 362.730469 69.179688 362.5625 C 70.914062 361.390625 72.828125 360.828125 74.921875 360.875 C 75.792969 360.945312 76.65625 360.902344 77.515625 360.746094 C 78.375 360.589844 79.199219 360.328125 79.992188 359.957031 C 80.78125 359.585938 81.511719 359.121094 82.179688 358.5625 C 82.851562 358.003906 83.4375 357.367188 83.941406 356.65625 C 87.953125 351.554688 92.683594 347.019531 96.496094 341.722656 C 96.949219 341.230469 97.234375 340.65625 97.34375 339.996094 C 97.457031 339.335938 97.378906 338.703125 97.109375 338.089844 C 96.761719 337.363281 96.570312 336.601562 96.535156 335.800781 C 96.496094 335 96.617188 334.222656 96.898438 333.472656 C 97.296875 332.515625 97.800781 331.53125 99.050781 331.707031 C 99.304688 331.757812 99.539062 331.847656 99.761719 331.980469 C 99.980469 332.113281 100.175781 332.277344 100.339844 332.476562 C 100.5 332.675781 100.625 332.894531 100.714844 333.136719 C 100.800781 333.378906 100.84375 333.628906 100.84375 333.886719 C 101.175781 335.503906 100.933594 337.035156 100.128906 338.476562 C 99.980469 338.695312 99.871094 338.9375 99.804688 339.195312 C 99.734375 339.453125 99.707031 339.714844 99.726562 339.980469 C 99.746094 340.25 99.808594 340.503906 99.914062 340.75 C 100.019531 340.996094 100.160156 341.21875 100.339844 341.417969 C 102.289062 344.289062 104.613281 346.8125 107.3125 348.996094 C 110.015625 351.175781 112.972656 352.921875 116.191406 354.226562 C 122.25 356.683594 128.699219 354.699219 133.988281 349.179688 C 142.058594 340.769531 146.003906 330.378906 147.980469 319.253906 C 149.800781 308.398438 149.9375 297.519531 148.390625 286.617188 C 147.359375 278.75 145.859375 270.945312 144.542969 263.117188 C 142.730469 252.371094 140.414062 241.691406 139.113281 230.867188 C 138.046875 221.6875 137.835938 212.484375 138.480469 203.265625 C 138.613281 200.46875 139.285156 197.804688 140.492188 195.28125 C 141.558594 193.121094 143.15625 191.480469 145.289062 190.359375 C 147.273438 189.210938 149.066406 187.824219 150.671875 186.191406 C 152.277344 184.558594 153.636719 182.746094 154.75 180.746094 C 155.578125 179.339844 155.375 177.445312 155.980469 176.195312 C 156.683594 174.675781 157.15625 173.085938 157.402344 171.429688 C 157.714844 168.550781 157.691406 165.675781 157.324219 162.804688 Z M 244.300781 333.335938 C 247.878906 332.957031 251.449219 333.023438 255.011719 333.539062 C 260.246094 334.261719 265.011719 336.152344 269.3125 339.214844 C 269.816406 339.585938 270.253906 340.019531 270.625 340.519531 C 271 341.019531 271.289062 341.5625 271.496094 342.148438 C 271.703125 342.734375 271.820312 343.339844 271.847656 343.960938 C 271.871094 344.585938 271.804688 345.195312 271.644531 345.796875 C 271.144531 348.210938 270.050781 350.316406 268.363281 352.117188 C 264.742188 356.152344 259.867188 357.945312 254.914062 359.527344 C 245.359375 362.582031 235.6875 361.6875 226.019531 360.160156 C 218.523438 358.972656 211.21875 356.921875 203.867188 355.15625 C 199.101562 353.949219 194.265625 353.300781 189.351562 353.21875 C 184.4375 353.136719 179.582031 353.621094 174.78125 354.667969 C 165.234375 356.816406 156.472656 361.222656 147.203125 364.167969 C 146.890625 364.261719 146.636719 364.441406 146.4375 364.703125 C 146.238281 364.964844 146.136719 365.261719 146.125 365.589844 C 145.867188 367.199219 146.109375 368.734375 146.855469 370.1875 C 147.171875 370.75 147.621094 371.539062 148.207031 371.34375 C 149.949219 370.769531 151.246094 372.027344 152.796875 372.175781 C 158.597656 372.726562 164.417969 372.761719 170.234375 372.738281 C 181.5 372.679688 192.695312 371.75 203.816406 369.949219 C 214.722656 368.195312 225.652344 366.542969 236.558594 364.8125 C 246.402344 363.117188 256.324219 362.15625 266.3125 361.933594 C 272.886719 361.875 279.457031 362.191406 286.035156 361.617188 C 293.503906 360.960938 297.785156 357.984375 299.785156 351.503906 C 300.328125 349.6875 300.65625 347.828125 300.773438 345.933594 C 301.089844 341.65625 301.394531 337.375 301.847656 333.113281 C 302.269531 329.164062 302.96875 325.25 303.382812 321.304688 C 304.175781 313.78125 304.84375 306.246094 305.597656 298.710938 C 305.761719 296.984375 305.523438 295.316406 304.875 293.707031 C 301.183594 284.195312 288.074219 282.125 282.027344 284.78125 C 277.21875 287.1875 272.265625 289.257812 267.171875 290.988281 C 264.441406 291.765625 261.601562 292.195312 259.617188 294.539062 C 259.46875 294.765625 259.265625 294.914062 259.003906 294.980469 C 258.746094 295.050781 258.496094 295.019531 258.257812 294.894531 C 257.726562 294.5625 257.820312 294 258.039062 293.535156 C 258.527344 292.515625 258.160156 292.175781 257.128906 291.855469 C 255.183594 291.257812 254.746094 290.066406 255.625 288.191406 C 255.941406 287.511719 256.417969 286.902344 256.785156 286.242188 C 259.648438 281.171875 261.117188 275.929688 259.019531 270.148438 C 257.402344 266.226562 256.183594 262.183594 255.367188 258.019531 C 255.03125 254.886719 254.34375 251.832031 253.300781 248.855469 C 252.894531 247.449219 252.222656 246.175781 251.296875 245.042969 C 249.476562 243.179688 248.414062 243.171875 246.90625 245.351562 C 244.058594 249.449219 241.386719 253.667969 238.539062 257.761719 C 235.757812 261.757812 232.914062 265.730469 228.476562 268.140625 C 221.144531 272.121094 213.410156 271.792969 205.585938 270.191406 C 197.097656 268.457031 189.59375 264.390625 182.140625 260.21875 C 175.3125 256.179688 168.113281 252.964844 160.542969 250.578125 C 155.757812 249.191406 150.976562 248.207031 146.085938 250.289062 C 145.75 250.363281 145.449219 250.503906 145.175781 250.707031 C 144.902344 250.914062 144.683594 251.164062 144.519531 251.460938 C 144.351562 251.761719 144.257812 252.078125 144.230469 252.417969 C 144.199219 252.757812 144.246094 253.089844 144.359375 253.410156 C 146.171875 264.121094 148.367188 274.765625 149.714844 285.554688 C 151.269531 296.761719 151.175781 307.953125 149.4375 319.132812 C 147.5625 330.289062 143.582031 340.636719 135.898438 349.3125 C 128.644531 357.503906 120.1875 358.917969 110.847656 353.234375 C 106.351562 350.511719 102.570312 347.019531 99.5 342.757812 C 99.089844 342.191406 98.753906 341.003906 97.808594 342.378906 C 94.246094 347.21875 90.398438 351.820312 86.257812 356.179688 C 84.945312 357.351562 83.859375 358.703125 83 360.234375 C 83.253906 360.332031 83.371094 360.414062 83.476562 360.410156 C 94.890625 359.839844 105.964844 362.378906 117.109375 364.164062 C 125.09375 365.441406 133.027344 366.003906 141.019531 364.261719 C 143.523438 363.714844 145.804688 363.15625 146.582031 360.285156 C 146.753906 359.871094 146.992188 359.503906 147.304688 359.179688 C 150.914062 354.5 155.875 351.820312 161.292969 349.835938 C 171.675781 346.039062 182.59375 345.128906 193.464844 344.214844 C 203.054688 343.679688 212.582031 342.617188 222.054688 341.035156 C 228.695312 340.011719 234.894531 337.765625 240.648438 334.300781 C 241.65625 333.714844 242.550781 332.992188 243.335938 332.125 C 244.117188 331.261719 244.75 330.300781 245.230469 329.238281 C 245.714844 328.179688 246.023438 327.070312 246.160156 325.914062 C 246.292969 324.753906 246.25 323.605469 246.027344 322.460938 C 245.359375 318.027344 242.742188 315.644531 238.949219 316.414062 C 237.921875 316.558594 236.933594 316.839844 235.988281 317.265625 C 235.039062 317.6875 234.171875 318.234375 233.382812 318.902344 C 232.589844 319.574219 231.910156 320.339844 231.335938 321.207031 C 230.765625 322.070312 230.324219 322.996094 230.015625 323.984375 C 229.292969 326.269531 228.75 328.609375 228.066406 330.90625 C 227.621094 332.414062 227.101562 333.90625 226.558594 335.378906 C 226.382812 335.855469 226.007812 336.328125 225.398438 336.011719 C 224.894531 335.753906 225.050781 335.222656 225.210938 334.824219 C 226.632812 331.234375 227.234375 327.40625 228.421875 323.742188 C 228.753906 322.664062 229.222656 321.648438 229.824219 320.695312 C 230.425781 319.742188 231.140625 318.882812 231.972656 318.117188 C 232.804688 317.351562 233.71875 316.707031 234.722656 316.1875 C 235.722656 315.664062 236.773438 315.285156 237.878906 315.039062 C 242.140625 313.867188 245.15625 315.46875 246.78125 319.582031 C 247.28125 320.722656 247.601562 321.910156 247.75 323.144531 C 247.894531 324.382812 247.855469 325.609375 247.636719 326.835938 C 247.414062 328.058594 247.019531 329.226562 246.453125 330.332031 C 245.886719 331.441406 245.167969 332.441406 244.300781 333.335938 Z M 253.785156 245.777344 C 253.230469 240.667969 253.929688 235.738281 255.875 230.984375 C 256.832031 228.367188 257.488281 225.671875 257.839844 222.90625 C 258.679688 218.042969 258.96875 213.144531 258.703125 208.214844 C 258.628906 207.441406 258.546875 206.339844 259.652344 206.257812 C 260.644531 206.183594 260.617188 207.214844 260.785156 207.9375 C 262.058594 212.4375 262.984375 217.007812 263.558594 221.648438 C 264.230469 230.226562 263.980469 238.710938 259.960938 246.613281 C 258.390625 249.59375 257.75 252.761719 258.050781 256.117188 C 258.476562 258.992188 259.128906 261.8125 260.003906 264.585938 C 262.011719 272.535156 263.328125 280.519531 261.238281 288.6875 C 261.097656 289.230469 260.550781 290.003906 261.179688 290.40625 C 261.707031 290.75 262.371094 290.210938 262.917969 289.898438 C 267.699219 287.105469 272.78125 285.042969 278.15625 283.710938 C 281.578125 282.824219 284.902344 281.65625 288.125 280.207031 C 291.191406 278.878906 294.261719 277.546875 297.4375 276.449219 C 298.515625 276.082031 300.058594 277.296875 300.394531 276.070312 C 300.640625 275.164062 299.589844 273.90625 299.128906 272.800781 C 293.992188 260.671875 294.539062 247.972656 295.648438 235.300781 C 296.402344 226.722656 297.230469 218.21875 295.050781 209.726562 C 293.476562 203.605469 292.277344 197.285156 288.074219 192.296875 C 285.894531 189.667969 283.511719 187.230469 280.9375 184.980469 C 278.359375 182.734375 275.617188 180.707031 272.714844 178.902344 C 269.808594 177.09375 266.78125 175.535156 263.621094 174.214844 C 260.464844 172.898438 257.226562 171.839844 253.898438 171.042969 C 240.304688 167.667969 229.609375 174.605469 224.835938 185.652344 C 222.117188 192.460938 219.90625 199.429688 218.210938 206.5625 C 215.605469 216.3125 211.144531 224.996094 202.90625 231.210938 C 192.285156 239.222656 177.828125 237.332031 170.417969 226.226562 C 166.957031 220.597656 164.320312 214.613281 162.511719 208.261719 C 160.402344 200.953125 157.519531 193.964844 153.867188 187.292969 C 153.183594 186.144531 152.757812 186.003906 151.851562 187.027344 C 150.265625 188.960938 148.363281 190.503906 146.140625 191.652344 C 145.359375 192.050781 144.636719 192.535156 143.976562 193.109375 C 143.316406 193.6875 142.738281 194.335938 142.238281 195.058594 C 141.742188 195.78125 141.34375 196.550781 141.042969 197.375 C 140.738281 198.195312 140.542969 199.042969 140.453125 199.914062 C 138.960938 208.433594 139.558594 217.042969 140.097656 225.605469 C 140.761719 233.085938 141.851562 240.503906 143.367188 247.855469 C 143.640625 249.382812 144.117188 249.605469 145.460938 248.988281 C 148.226562 247.695312 151.117188 247.261719 154.140625 247.6875 C 159.410156 248.519531 164.484375 250.011719 169.363281 252.171875 C 176.515625 255.117188 183.066406 259.238281 189.917969 262.773438 C 198.449219 267.175781 207.335938 270.285156 217.121094 269.800781 C 218.515625 269.792969 219.898438 269.648438 221.265625 269.367188 C 222.632812 269.089844 223.957031 268.679688 225.246094 268.140625 C 226.53125 267.601562 227.753906 266.945312 228.910156 266.164062 C 230.070312 265.386719 231.140625 264.503906 232.121094 263.515625 C 234.617188 260.816406 236.839844 257.910156 238.789062 254.796875 C 241.109375 251.257812 243.457031 247.734375 245.910156 244.285156 C 247.820312 241.601562 249.890625 241.542969 252.203125 243.933594 C 252.636719 244.378906 253.023438 244.875 253.785156 245.773438 Z M 248.679688 165.308594 C 244.050781 159.285156 242.015625 152 238.503906 145.460938 C 238.71875 147.152344 239.144531 148.800781 239.28125 150.472656 C 239.382812 150.925781 239.414062 151.382812 239.367188 151.84375 C 239.324219 152.308594 239.207031 152.75 239.019531 153.175781 C 238.828125 153.601562 238.578125 153.984375 238.265625 154.328125 C 237.953125 154.671875 237.59375 154.960938 237.1875 155.1875 C 236.753906 155.394531 236.300781 155.527344 235.824219 155.585938 C 235.347656 155.648438 234.871094 155.632812 234.398438 155.542969 C 233.929688 155.453125 233.480469 155.292969 233.0625 155.0625 C 232.640625 154.828125 232.265625 154.539062 231.9375 154.1875 C 231.382812 153.671875 230.894531 153.097656 230.472656 152.464844 C 229.472656 150.828125 228.84375 149.058594 228.589844 147.152344 C 227.664062 142.242188 228.667969 137.496094 229.71875 132.738281 C 231.515625 124.609375 233.039062 116.425781 234.234375 108.1875 C 234.335938 107.507812 234.347656 106.449219 235.148438 106.554688 C 236.644531 106.742188 236.246094 105.859375 236.257812 105.121094 C 236.28125 100.066406 235.882812 95.03125 235.429688 90 C 234.914062 84.289062 234.511719 78.554688 233.691406 72.886719 C 232.683594 65.898438 231.257812 58.972656 230.09375 52.007812 C 229.175781 44.984375 227.023438 38.363281 223.636719 32.140625 C 223.378906 31.414062 222.921875 30.847656 222.261719 30.445312 C 222.648438 31.628906 222.824219 32.839844 222.789062 34.082031 C 222.730469 35.574219 223.078125 37.398438 221.226562 37.953125 C 219.453125 38.480469 218.734375 36.785156 217.929688 35.640625 C 215.355469 31.660156 212.5625 27.832031 209.554688 24.164062 C 204.234375 18.160156 198.015625 13.597656 190 11.867188 C 188.765625 11.601562 187.535156 11.3125 186.320312 10.96875 C 185.960938 10.917969 185.652344 10.769531 185.390625 10.523438 C 185.125 10.273438 184.957031 9.976562 184.882812 9.621094 C 184.855469 9.261719 184.933594 8.929688 185.113281 8.617188 C 185.292969 8.304688 185.546875 8.070312 185.871094 7.917969 C 186.402344 7.574219 186.964844 7.292969 187.550781 7.0625 C 189.917969 6.015625 192.367188 5.746094 194.902344 6.25 C 191.425781 4.734375 187.789062 4.054688 184 4.214844 C 181.503906 4.339844 179.035156 4.132812 176.59375 3.585938 C 174.792969 3.226562 172.972656 3.035156 171.136719 3.007812 C 169.296875 2.984375 167.472656 3.125 165.660156 3.433594 C 163.847656 3.738281 162.078125 4.210938 160.351562 4.84375 C 158.628906 5.472656 156.972656 6.257812 155.390625 7.191406 C 140.742188 15.390625 131.578125 27.9375 126.285156 43.605469 C 121.609375 57.460938 119.894531 71.851562 118.320312 86.28125 C 117.398438 94.742188 116.234375 103.179688 114.710938 111.5625 C 113.035156 120.742188 111.277344 129.90625 109.523438 139.070312 C 108.171875 146.125 107.25 153.28125 104.605469 160.039062 C 103.652344 162.863281 102.382812 165.535156 100.785156 168.054688 C 100.582031 168.34375 100.464844 168.664062 100.433594 169.015625 C 100.402344 169.371094 100.460938 169.707031 100.613281 170.027344 C 100.824219 170.578125 101.320312 170.472656 101.746094 170.28125 C 105.429688 168.910156 108.582031 166.757812 111.203125 163.828125 C 113.75 160.484375 115.773438 156.855469 117.28125 152.9375 C 119.867188 146.464844 120.105469 139.625 120.324219 132.832031 C 120.542969 126.195312 119.667969 119.605469 119.316406 112.988281 C 118.972656 105.535156 119.101562 98.085938 119.707031 90.648438 C 120.09375 85.433594 120.441406 80.207031 121.300781 75.035156 C 121.851562 71.726562 122.644531 68.476562 123.679688 65.285156 C 124.714844 62.097656 125.980469 59 127.480469 56 C 128.976562 53 130.691406 50.125 132.621094 47.378906 C 134.546875 44.636719 136.671875 42.046875 138.988281 39.621094 C 144.070312 34.160156 149.71875 29.429688 156.855469 26.820312 C 162.976562 24.578125 169.382812 23.320312 175.652344 21.582031 C 175.917969 21.457031 176.199219 21.421875 176.492188 21.476562 C 176.785156 21.535156 177.03125 21.671875 177.234375 21.886719 C 177.746094 22.535156 177.308594 23.097656 176.945312 23.597656 C 175.691406 25.398438 174.195312 26.976562 172.460938 28.324219 C 170.730469 29.675781 168.832031 30.738281 166.777344 31.511719 C 163.039062 32.882812 159.25 34.148438 155.609375 35.742188 C 153.132812 36.8125 150.796875 38.128906 148.601562 39.695312 C 146.40625 41.265625 144.40625 43.046875 142.59375 45.042969 C 140.777344 47.039062 139.199219 49.203125 137.851562 51.535156 C 136.5 53.871094 135.414062 56.320312 134.59375 58.886719 C 131.539062 67.515625 130.894531 76.511719 130.605469 85.546875 C 130.414062 91.480469 130.636719 97.433594 130.34375 103.359375 C 129.789062 112.710938 130.105469 122.03125 131.292969 131.324219 C 131.6875 134.246094 132.304688 137.117188 133.152344 139.941406 C 133.972656 138.386719 134.574219 137.144531 135.269531 135.953125 C 136.105469 134.449219 136.660156 132.847656 136.929688 131.152344 C 137.203125 129.453125 137.175781 127.761719 136.851562 126.070312 C 135.84375 119.398438 133.84375 112.929688 133.039062 106.207031 C 131.996094 98.851562 132.019531 91.5 133.109375 84.148438 C 134.710938 73.636719 137.941406 63.648438 142.796875 54.183594 C 147.207031 45.945312 153.863281 40.332031 163.34375 38.585938 C 165.351562 38.332031 167.324219 37.914062 169.265625 37.332031 C 171.117188 36.664062 173.433594 36.128906 174.429688 34.488281 C 175.703125 32.621094 176.691406 30.609375 177.386719 28.457031 C 179.300781 21.414062 179.695312 14.289062 178.570312 7.078125 C 178.457031 6.332031 178.070312 5.214844 179.167969 4.992188 C 180.097656 4.808594 180.277344 5.902344 180.476562 6.582031 C 182.042969 11.308594 182.636719 16.15625 182.25 21.121094 C 181.773438 24.953125 181.617188 28.796875 181.773438 32.652344 C 181.757812 33.292969 181.851562 33.917969 182.054688 34.527344 C 182.257812 35.132812 182.5625 35.6875 182.964844 36.1875 C 183.367188 36.6875 183.839844 37.101562 184.390625 37.433594 C 184.941406 37.765625 185.53125 37.992188 186.160156 38.113281 C 187.691406 38.511719 189.246094 38.757812 190.824219 38.855469 C 192.652344 38.886719 194.4375 39.160156 196.191406 39.671875 C 197.941406 40.183594 199.597656 40.914062 201.152344 41.871094 C 202.707031 42.824219 204.109375 43.964844 205.355469 45.296875 C 206.605469 46.625 207.65625 48.097656 208.507812 49.707031 C 213.507812 58.398438 215.339844 67.855469 216.277344 77.601562 C 216.566406 80.605469 217.660156 83.429688 217.816406 86.46875 C 219.097656 84.332031 220.03125 82.050781 220.609375 79.628906 C 221.59375 75.675781 221.898438 71.675781 221.53125 67.621094 C 221.296875 65.691406 222.230469 65.105469 224.089844 65.835938 C 224.5625 66.015625 225.089844 66.480469 225.472656 66.375 C 227.144531 65.910156 227.316406 67.0625 227.738281 68.15625 C 231.070312 76.726562 230.125 85.148438 226.722656 93.402344 C 225.285156 96.886719 223.714844 100.394531 220.640625 102.875 C 219.753906 103.679688 218.707031 104.050781 217.507812 103.980469 C 216.402344 103.894531 216.117188 102.894531 215.484375 102.1875 C 214.277344 105.4375 212.886719 108.507812 212.003906 111.707031 C 210.863281 115.871094 208.496094 119.695312 208.894531 124.328125 C 209.054688 126.09375 207.960938 127.960938 207.472656 129.785156 C 204.953125 139.21875 204.703125 148.621094 208.179688 157.878906 C 209.71875 161.976562 212.242188 165.34375 216.652344 166.726562 C 220.019531 167.777344 220.5625 167.21875 219.753906 163.910156 C 219.707031 163.726562 219.628906 163.550781 219.59375 163.367188 C 219.46875 162.746094 219.59375 162.148438 220.226562 161.96875 C 220.96875 161.753906 221.148438 162.402344 221.367188 162.941406 C 223.019531 167.039062 225.320312 168.238281 229.785156 167.601562 C 232.539062 167.179688 235.222656 166.476562 237.832031 165.492188 C 239.5625 164.769531 241.363281 164.390625 243.238281 164.359375 C 245.113281 164.324219 246.925781 164.640625 248.679688 165.304688 Z M 136.546875 76.050781 C 136.753906 76.03125 136.957031 75.988281 137.152344 75.917969 C 137.425781 75.753906 137.679688 75.566406 137.914062 75.355469 C 142.519531 70.953125 148.023438 70.164062 153.957031 71.5625 C 158.242188 72.578125 162.359375 74.035156 164.859375 78.105469 C 166.484375 80.835938 167.65625 83.746094 168.363281 86.84375 C 169.074219 89.941406 169.289062 93.074219 169.007812 96.238281 C 168.710938 100.078125 168.191406 103.882812 167.449219 107.660156 C 167.363281 108.019531 167.339844 108.382812 167.378906 108.75 C 167.414062 109.117188 167.511719 109.46875 167.667969 109.800781 C 167.824219 110.136719 168.03125 110.433594 168.289062 110.699219 C 168.546875 110.964844 168.839844 111.179688 169.171875 111.34375 C 169.523438 111.589844 169.90625 111.777344 170.316406 111.90625 C 170.726562 112.035156 171.148438 112.097656 171.578125 112.09375 C 172.007812 112.09375 172.429688 112.023438 172.839844 111.890625 C 173.246094 111.757812 173.625 111.5625 173.976562 111.3125 C 174.519531 110.925781 175.191406 110.613281 175.6875 111.203125 C 176.289062 111.910156 175.5625 112.355469 175.082031 112.710938 C 173.988281 113.742188 173.332031 115.003906 173.113281 116.492188 C 172.984375 116.90625 172.992188 117.582031 173.496094 117.609375 C 175.457031 117.714844 176.957031 119.191406 179.105469 119.03125 C 183.152344 118.714844 187.238281 118.898438 191.308594 118.867188 C 191.816406 118.867188 192.382812 118.761719 192.609375 119.359375 C 192.683594 119.585938 192.667969 119.804688 192.558594 120.015625 C 192.449219 120.226562 192.28125 120.367188 192.054688 120.4375 C 190.230469 121.136719 189.617188 122.851562 188.628906 124.277344 C 186.703125 127.050781 184.394531 129.460938 181.707031 131.507812 C 181.261719 131.84375 180.367188 132.171875 181.164062 132.929688 C 182.203125 134.1875 182.75 135.628906 182.8125 137.253906 C 182.839844 137.539062 182.914062 137.808594 183.035156 138.066406 C 183.15625 138.324219 183.316406 138.550781 183.519531 138.753906 C 183.71875 138.957031 183.945312 139.121094 184.203125 139.242188 C 184.457031 139.367188 184.726562 139.445312 185.011719 139.480469 C 188.578125 140.183594 191.640625 138.847656 194.496094 137.097656 C 197.234375 135.335938 199.632812 133.199219 201.695312 130.679688 C 203.757812 128.164062 205.382812 125.390625 206.566406 122.363281 C 209.496094 115.476562 211.539062 108.210938 213.953125 101.105469 C 214.09375 100.695312 214.359375 100.035156 214.1875 99.851562 C 212.78125 98.367188 213.820312 96.945312 214.394531 95.699219 C 216.746094 90.582031 216.410156 85.429688 215.078125 80.160156 C 214.726562 78.789062 214.460938 78.363281 213.199219 79.363281 C 211.386719 80.855469 209.3125 81.734375 206.976562 82 C 202.464844 82.441406 198.140625 83.898438 193.570312 84.113281 C 190.683594 84.253906 188.664062 83.984375 187.296875 81.523438 C 186.757812 80.554688 186.449219 80.890625 185.9375 81.195312 C 184.636719 81.972656 183.367188 82.804688 182.070312 83.585938 C 181.519531 83.917969 180.886719 84.191406 180.3125 83.6875 C 179.820312 83.261719 179.957031 82.628906 180.058594 82.082031 C 180.429688 80.640625 180.984375 79.269531 181.722656 77.976562 C 180.636719 78.003906 179.628906 79.167969 178.804688 78.058594 C 178.015625 76.988281 178.683594 75.878906 179.039062 74.816406 C 179.234375 74.242188 179.515625 73.710938 179.871094 73.222656 C 180.230469 72.734375 180.65625 72.308594 181.144531 71.949219 C 181.636719 71.589844 182.167969 71.3125 182.742188 71.113281 C 183.316406 70.917969 183.910156 70.8125 184.515625 70.796875 C 187.21875 70.488281 189.886719 69.992188 192.515625 69.308594 C 193.84375 68.933594 195.195312 68.695312 196.570312 68.585938 C 197.945312 68.480469 199.320312 68.507812 200.691406 68.671875 C 202.058594 68.835938 203.398438 69.132812 204.710938 69.5625 C 206.023438 69.992188 207.277344 70.546875 208.476562 71.226562 C 210.5 72.558594 212.230469 74.199219 213.667969 76.148438 C 213.863281 75.859375 214.035156 75.71875 214.058594 75.558594 C 214.136719 75.058594 214.171875 74.554688 214.15625 74.050781 C 213.730469 66.578125 211.808594 59.515625 208.390625 52.859375 C 207.371094 50.746094 206.15625 48.757812 204.734375 46.890625 C 200.792969 41.9375 195.296875 40.664062 189.402344 40.277344 C 182.722656 39.839844 179.976562 36.910156 180.050781 30.246094 C 180.050781 29.488281 180.15625 28.734375 180.210938 27.976562 C 180.386719 25.777344 180.628906 23.578125 180.71875 21.378906 C 180.804688 19.242188 180.738281 17.101562 180.738281 14.960938 C 180.683594 21.472656 179.425781 27.742188 176.96875 33.773438 C 176.785156 34.378906 176.523438 34.945312 176.183594 35.480469 C 175.84375 36.015625 175.4375 36.492188 174.964844 36.914062 C 174.492188 37.335938 173.972656 37.6875 173.40625 37.964844 C 172.835938 38.246094 172.242188 38.441406 171.617188 38.558594 C 168.585938 39.160156 165.558594 39.796875 162.539062 40.464844 C 153.789062 42.386719 147.980469 48.007812 143.867188 55.582031 C 140.417969 61.949219 138.707031 68.96875 136.546875 76.050781 Z M 125.226562 164.804688 C 124.886719 164.988281 124.5625 165.195312 124.257812 165.425781 C 121.839844 167.671875 119.015625 169.136719 115.785156 169.820312 C 112.734375 170.363281 109.757812 171.1875 106.859375 172.28125 C 101.933594 174.453125 96.855469 176.160156 91.617188 177.410156 C 90.359375 177.703125 89.265625 178.300781 88.34375 179.203125 C 76.410156 190.503906 72.804688 204.609375 74.519531 220.460938 C 75.152344 226.273438 77.351562 231.695312 78.984375 237.257812 C 79.457031 238.871094 79.972656 239.015625 81.433594 238.179688 C 83.050781 237.207031 84.761719 236.4375 86.566406 235.878906 C 88.371094 235.316406 90.21875 234.980469 92.105469 234.867188 C 93.992188 234.753906 95.863281 234.867188 97.722656 235.207031 C 99.582031 235.546875 101.371094 236.105469 103.097656 236.878906 C 104.363281 237.402344 105.65625 239.054688 106.667969 238.449219 C 107.480469 237.957031 107.398438 235.941406 107.65625 234.589844 C 109.574219 224.5 111.589844 214.429688 113.230469 204.285156 C 113.832031 199.246094 115.132812 194.390625 117.132812 189.722656 C 120.953125 181.78125 123.652344 173.476562 125.226562 164.804688 Z M 249.746094 168.417969 C 249.117188 167.878906 248.433594 167.429688 247.691406 167.066406 C 246.949219 166.703125 246.171875 166.4375 245.363281 166.269531 C 244.554688 166.101562 243.734375 166.039062 242.910156 166.078125 C 242.085938 166.117188 241.277344 166.257812 240.488281 166.503906 C 238.242188 167.152344 236.027344 167.90625 233.773438 168.527344 C 230.054688 169.550781 226.335938 170.117188 222.753906 168.023438 C 222.414062 167.824219 222.066406 167.65625 221.707031 167.949219 C 219.585938 169.6875 217.265625 168.90625 215.265625 168.011719 C 214.9375 167.804688 214.578125 167.671875 214.191406 167.617188 C 213.804688 167.5625 213.425781 167.589844 213.050781 167.695312 C 212.675781 167.804688 212.335938 167.984375 212.039062 168.238281 C 211.742188 168.488281 211.507812 168.789062 211.339844 169.140625 C 207.628906 174.117188 204.4375 179.40625 201.765625 185.011719 C 200.554688 187.953125 198.933594 190.652344 196.898438 193.105469 C 194.28125 195.949219 191.5 198.632812 187.246094 198.847656 C 185.359375 198.863281 183.539062 198.527344 181.785156 197.839844 C 180.027344 197.152344 178.464844 196.160156 177.09375 194.867188 C 172.710938 191.300781 169.359375 186.699219 165.15625 182.949219 C 163.527344 181.410156 161.734375 180.09375 159.773438 179 C 162.429688 181.957031 164.800781 185.125 166.894531 188.5 C 169.003906 191.730469 170.820312 195.136719 172.628906 198.535156 C 174.515625 202.660156 177.09375 206.300781 180.355469 209.460938 C 186.84375 215.082031 194.863281 216.085938 200.230469 206.539062 C 202.472656 202.285156 204.332031 197.867188 205.808594 193.289062 C 207.285156 188.859375 209.296875 184.691406 211.84375 180.777344 C 214.390625 176.863281 217.386719 173.335938 220.839844 170.1875 C 221.347656 169.734375 221.847656 168.996094 222.601562 169.476562 C 223.332031 169.9375 222.8125 170.617188 222.527344 171.152344 C 217.847656 180.148438 214.214844 189.546875 211.625 199.351562 C 210.0625 205.820312 207.296875 211.730469 203.316406 217.070312 C 196.449219 225.761719 186.605469 227.085938 178 220.320312 C 174.34375 217.347656 171.609375 213.691406 169.796875 209.34375 C 167.65625 204.402344 165.0625 199.710938 162.015625 195.265625 C 160.835938 193.429688 159.382812 191.84375 157.65625 190.507812 C 161.050781 197.617188 163.144531 205.171875 165.695312 212.554688 C 167.1875 217.003906 169.195312 221.210938 171.71875 225.167969 C 178.679688 235.910156 192.761719 237.316406 202.558594 229.359375 C 205.878906 226.566406 208.6875 223.339844 210.992188 219.667969 C 213.292969 216 214.980469 212.066406 216.050781 207.871094 C 218.355469 199.871094 220.109375 191.695312 223.683594 184.105469 C 224.359375 182.570312 225.167969 181.109375 226.121094 179.722656 C 227.070312 178.339844 228.144531 177.058594 229.339844 175.878906 C 230.53125 174.699219 231.828125 173.640625 233.222656 172.703125 C 234.617188 171.769531 236.089844 170.972656 237.636719 170.316406 C 241.535156 168.816406 245.574219 168.183594 249.746094 168.417969 Z M 161.195312 83.824219 C 160.238281 83.429688 159.632812 83.234375 159.082031 82.941406 C 158.433594 82.597656 158.113281 82.523438 157.65625 83.359375 C 157.328125 84.085938 156.832031 84.667969 156.167969 85.109375 C 155.503906 85.546875 154.773438 85.777344 153.976562 85.796875 C 153.179688 85.820312 152.4375 85.625 151.75 85.21875 C 151.066406 84.816406 150.539062 84.257812 150.171875 83.550781 C 149.285156 82.109375 148.6875 82.304688 147.585938 83.035156 C 146.730469 83.703125 145.789062 84.210938 144.761719 84.5625 C 143.738281 84.914062 142.679688 85.089844 141.59375 85.089844 C 141.085938 85.0625 140.503906 85.105469 140.300781 84.527344 C 140.097656 83.949219 140.585938 83.578125 141.015625 83.339844 C 145.179688 80.96875 149.414062 78.988281 154.464844 79.742188 C 156.792969 80.074219 159.015625 80.75 161.128906 81.773438 C 161.648438 82.027344 162.359375 82.5625 162.703125 81.628906 C 163.175781 80.347656 161.457031 78.363281 160.113281 78.515625 C 158.972656 78.644531 157.839844 78.59375 156.714844 78.359375 C 152.703125 77.386719 148.632812 76.953125 144.503906 77.058594 C 139.464844 77.339844 134.714844 81.101562 135.375 86.71875 C 135.714844 89.605469 136.179688 92.460938 136.800781 95.289062 C 138.996094 105.378906 143.078125 114.851562 146.386719 124.578125 C 146.632812 125.304688 146.996094 125.964844 147.480469 126.558594 C 150.355469 130.074219 153.082031 133.71875 156.296875 136.953125 C 156.578125 137.292969 156.9375 137.523438 157.367188 137.636719 C 157.796875 137.75 158.21875 137.726562 158.632812 137.570312 C 160.714844 136.996094 162.832031 136.699219 164.992188 136.683594 C 169.554688 136.84375 174.023438 137.570312 178.402344 138.867188 C 182.222656 139.8125 181.527344 139.964844 180.933594 136.324219 C 180.539062 133.894531 179.304688 133.199219 176.847656 133.730469 C 175.664062 133.992188 174.46875 134.046875 173.261719 133.898438 C 172.214844 133.832031 171.195312 133.632812 170.203125 133.296875 C 169.207031 132.964844 168.273438 132.507812 167.402344 131.929688 C 166.527344 131.347656 165.742188 130.667969 165.046875 129.882812 C 164.355469 129.097656 163.773438 128.238281 163.304688 127.300781 C 162.921875 126.535156 162.6875 125.734375 163.414062 125.03125 C 164.226562 124.238281 165.058594 124.652344 165.84375 125.09375 C 166.210938 125.335938 166.566406 125.601562 166.90625 125.886719 C 169.726562 128.179688 172.859375 129.925781 176.296875 131.117188 C 176.769531 131.316406 177.257812 131.410156 177.769531 131.398438 C 178.285156 131.386719 178.769531 131.269531 179.230469 131.050781 C 182.515625 129.0625 185.167969 126.4375 187.183594 123.171875 C 182.839844 124.757812 178.367188 125.308594 173.769531 124.828125 C 167.574219 124.457031 161.378906 124.496094 155.976562 120.785156 C 155.4375 120.417969 154.441406 120.429688 154.757812 119.46875 C 155.03125 118.632812 155.785156 119.023438 156.386719 119.164062 C 158.019531 119.601562 159.675781 119.761719 161.363281 119.65625 C 163.046875 119.550781 164.671875 119.179688 166.234375 118.542969 C 167.199219 117.976562 168.238281 117.765625 169.347656 117.910156 C 171.019531 118.414062 171.460938 117.667969 171.609375 116.273438 C 171.632812 115.957031 171.707031 115.652344 171.828125 115.359375 C 172.363281 114.128906 172.3125 113.566406 170.648438 113.363281 C 170.273438 113.351562 169.902344 113.292969 169.535156 113.195312 C 169.171875 113.097656 168.824219 112.957031 168.492188 112.78125 C 168.160156 112.601562 167.851562 112.386719 167.566406 112.140625 C 167.285156 111.890625 167.03125 111.613281 166.8125 111.308594 C 166.59375 111 166.410156 110.675781 166.265625 110.324219 C 166.121094 109.976562 166.015625 109.617188 165.953125 109.246094 C 165.890625 108.875 165.871094 108.5 165.894531 108.125 C 165.917969 107.75 165.984375 107.378906 166.09375 107.019531 C 167.277344 101.308594 167.730469 95.539062 167.449219 89.710938 C 167.253906 87.007812 166.425781 84.511719 164.957031 82.230469 C 164.664062 85.441406 162.027344 85.390625 159.984375 86.082031 C 159.855469 86.144531 159.714844 86.183594 159.566406 86.1875 C 159.421875 86.195312 159.277344 86.171875 159.140625 86.117188 C 159.003906 86.0625 158.882812 85.984375 158.78125 85.878906 C 158.675781 85.773438 158.601562 85.652344 158.550781 85.515625 C 158.332031 84.800781 158.910156 84.546875 159.5 84.378906 C 159.972656 84.246094 160.433594 84.078125 161.195312 83.824219 Z M 147.164062 362.46875 C 148.273438 362.125 148.921875 361.953125 149.554688 361.714844 C 153.871094 360.09375 158.199219 358.496094 162.492188 356.816406 C 165.71875 355.476562 169.03125 354.394531 172.425781 353.574219 C 175.824219 352.753906 179.261719 352.203125 182.746094 351.921875 C 186.226562 351.636719 189.710938 351.628906 193.195312 351.894531 C 196.679688 352.160156 200.121094 352.695312 203.523438 353.5 C 214.492188 356.140625 225.40625 359.171875 236.769531 359.894531 C 241.558594 360.339844 246.296875 360.027344 250.984375 358.960938 C 255.671875 357.890625 260.078125 356.121094 264.199219 353.648438 C 265.65625 352.769531 266.890625 351.648438 267.902344 350.285156 C 268.917969 348.921875 269.632812 347.417969 270.054688 345.773438 C 270.195312 345.316406 270.269531 344.851562 270.269531 344.375 C 270.273438 343.898438 270.207031 343.429688 270.074219 342.972656 C 269.9375 342.515625 269.738281 342.089844 269.476562 341.691406 C 269.214844 341.292969 268.902344 340.941406 268.535156 340.636719 C 267.71875 339.933594 266.832031 339.332031 265.878906 338.832031 C 260.964844 336.132812 255.703125 334.730469 250.09375 334.617188 C 246.335938 334.507812 242.53125 334.664062 239.175781 336.964844 C 237.769531 337.824219 236.28125 338.511719 234.710938 339.027344 C 224.332031 343.027344 213.394531 344.253906 202.433594 345.089844 C 191.890625 345.625 181.425781 346.8125 171.035156 348.648438 C 164.386719 349.992188 157.875 351.914062 152.40625 356.21875 C 150.074219 357.8125 148.328125 359.898438 147.164062 362.46875 Z M 205.550781 130.207031 C 204.941406 130.976562 204.691406 131.324219 204.410156 131.644531 C 201.628906 134.816406 199.105469 138.28125 194.917969 139.835938 C 193.597656 140.324219 193.878906 141.390625 194.074219 142.390625 C 194.179688 142.738281 194.214844 143.097656 194.175781 143.460938 C 194.136719 143.824219 194.027344 144.167969 193.851562 144.488281 C 193.671875 144.808594 193.441406 145.078125 193.152344 145.304688 C 192.863281 145.53125 192.542969 145.691406 192.1875 145.789062 C 186.832031 148.054688 181.457031 147.632812 176.0625 146.074219 C 173.46875 145.175781 170.808594 144.523438 168.09375 144.117188 C 169.425781 144.695312 170.417969 145.101562 171.390625 145.542969 C 175.976562 147.644531 179.992188 150.371094 181.929688 155.320312 C 182.171875 155.925781 182.921875 156.742188 182.144531 157.164062 C 180.71875 157.9375 181.65625 158.6875 182.070312 159.25 C 182.546875 159.898438 182.386719 161.460938 184.0625 160.785156 C 184.875 160.453125 185.148438 161.136719 185.027344 161.902344 C 184.890625 162.464844 184.625 162.957031 184.226562 163.375 C 183.828125 163.796875 183.351562 164.089844 182.796875 164.253906 C 184.605469 166.226562 185.410156 166.253906 186.953125 164.429688 C 187.746094 163.480469 188.503906 163.738281 189.1875 164.488281 C 189.855469 165.257812 190.378906 166.117188 190.75 167.066406 C 191.121094 168.015625 191.320312 169 191.347656 170.019531 C 191.429688 171.46875 190.355469 171.839844 189.125 171.421875 C 188.1875 171.023438 187.277344 170.566406 186.402344 170.046875 C 186.742188 171.292969 187.066406 172.292969 187.285156 173.316406 C 187.695312 175.238281 186.921875 176.234375 185.003906 176.265625 C 184.632812 176.222656 184.289062 176.304688 183.972656 176.511719 C 182.234375 177.757812 181.453125 177.65625 180.050781 176.039062 C 178.742188 174.316406 177.71875 172.441406 176.976562 170.410156 C 175.984375 167.679688 174.824219 165.027344 173.496094 162.445312 C 171.832031 159.675781 169.789062 157.574219 166.109375 158.855469 C 165.738281 158.984375 165.363281 159 164.984375 158.902344 C 164.640625 158.785156 164.285156 158.726562 163.921875 158.730469 C 163.558594 158.734375 163.203125 158.796875 162.863281 158.925781 C 162.519531 159.050781 162.210938 159.234375 161.933594 159.46875 C 161.65625 159.703125 161.425781 159.976562 161.242188 160.292969 C 160.371094 161.519531 159.121094 162.683594 159.234375 164.265625 C 159.363281 166.539062 159.285156 168.804688 158.992188 171.0625 C 158.941406 171.261719 158.925781 171.460938 158.949219 171.667969 C 158.96875 171.871094 159.027344 172.0625 159.117188 172.25 C 159.210938 172.433594 159.332031 172.59375 159.480469 172.734375 C 159.632812 172.875 159.804688 172.980469 159.992188 173.058594 C 161.683594 173.996094 163.078125 175.253906 164.183594 176.835938 C 167.085938 180.53125 170.417969 183.789062 174.183594 186.609375 C 175.34375 187.621094 176.660156 188.347656 178.136719 188.789062 C 179.609375 189.230469 181.113281 189.351562 182.636719 189.148438 C 185.398438 188.613281 187.964844 187.597656 190.34375 186.101562 C 192.722656 184.605469 194.75 182.730469 196.425781 180.476562 C 199.140625 176.988281 201.875 173.527344 204.757812 170.171875 C 206.152344 168.367188 207.941406 167.140625 210.132812 166.496094 C 211.152344 166.234375 211.617188 165.929688 210.667969 164.925781 C 205.503906 159.46875 204.527344 152.515625 203.949219 145.492188 C 203.722656 140.316406 204.257812 135.222656 205.550781 130.210938 Z M 174.769531 23.554688 C 172.34375 24.15625 170.394531 24.625 168.449219 25.125 C 161.523438 26.894531 154.585938 28.597656 148.71875 33.046875 C 144.242188 36.488281 140.234375 40.414062 136.695312 44.8125 C 132.769531 49.609375 129.601562 54.863281 127.183594 60.570312 C 124.769531 66.273438 123.207031 72.203125 122.5 78.359375 C 121.847656 83.496094 121.648438 88.660156 121.234375 93.8125 C 120.609375 100.808594 120.558594 107.8125 121.078125 114.820312 C 121.945312 123.75 122.070312 132.691406 121.453125 141.644531 C 121.097656 145.523438 120.257812 149.296875 118.9375 152.964844 C 117.613281 156.632812 115.847656 160.074219 113.644531 163.289062 C 112.355469 165.542969 110.566406 167.28125 108.273438 168.503906 C 107.347656 169.019531 106.460938 169.597656 105.617188 170.242188 C 108.800781 169.25 112.089844 169.160156 115.238281 168.292969 C 116.773438 167.949219 118.234375 167.402344 119.617188 166.65625 C 121.003906 165.910156 122.257812 164.988281 123.386719 163.894531 C 124.515625 162.800781 125.476562 161.570312 126.265625 160.210938 C 127.054688 158.851562 127.640625 157.410156 128.03125 155.886719 C 128.96875 152.074219 130.3125 148.40625 132.070312 144.894531 C 132.308594 144.5 132.363281 144.082031 132.230469 143.640625 C 129.660156 134.285156 128.398438 124.757812 128.445312 115.058594 C 128.484375 105.148438 128.957031 95.238281 129.066406 85.328125 C 128.972656 76.625 130.140625 68.09375 132.574219 59.738281 C 133.320312 57.167969 134.3125 54.695312 135.554688 52.320312 C 136.796875 49.945312 138.261719 47.71875 139.949219 45.636719 C 141.636719 43.558594 143.515625 41.664062 145.582031 39.957031 C 147.648438 38.25 149.863281 36.765625 152.226562 35.503906 C 156.207031 33.554688 160.3125 31.921875 164.546875 30.605469 C 166.578125 29.996094 168.464844 29.089844 170.210938 27.886719 C 171.957031 26.683594 173.476562 25.246094 174.769531 23.566406 Z M 94.402344 285.382812 L 94.742188 285.601562 C 95.425781 284.0625 96.179688 282.542969 96.785156 280.972656 C 99.585938 273.71875 100.945312 266.03125 103.410156 258.671875 C 105.074219 253.160156 106.042969 247.53125 106.316406 241.78125 C 106.40625 240.613281 105.722656 240.089844 104.902344 239.550781 C 104.015625 239.011719 103.097656 238.539062 102.148438 238.132812 C 101.199219 237.722656 100.222656 237.382812 99.222656 237.109375 C 98.226562 236.835938 97.210938 236.636719 96.1875 236.503906 C 95.160156 236.375 94.128906 236.316406 93.09375 236.332031 C 92.058594 236.347656 91.027344 236.433594 90.003906 236.589844 C 88.980469 236.75 87.976562 236.980469 86.984375 237.28125 C 85.992188 237.578125 85.027344 237.945312 84.089844 238.382812 C 83.152344 238.816406 82.246094 239.316406 81.378906 239.878906 C 80.605469 240.402344 80.171875 240.90625 80.574219 241.894531 C 80.988281 242.917969 81.628906 242.9375 82.546875 242.640625 C 90.421875 240.074219 97.171875 242.8125 103.566406 247.148438 C 103.882812 247.363281 104.152344 247.625 104.382812 247.929688 C 104.65625 248.300781 104.804688 248.757812 104.382812 249.109375 C 104.03125 249.394531 103.664062 249.1875 103.351562 248.953125 C 103.101562 248.761719 102.886719 248.519531 102.625 248.347656 C 96.949219 244.609375 91.074219 241.757812 83.96875 243.8125 C 81.472656 244.535156 81.425781 244.507812 82.398438 246.972656 C 84.453125 251.589844 86.21875 256.316406 87.699219 261.144531 C 89.34375 267.429688 90.167969 273.722656 87.035156 279.789062 C 86.601562 280.558594 86.335938 281.382812 86.234375 282.261719 C 86.136719 283.136719 86.214844 284 86.46875 284.847656 C 86.550781 285.136719 86.628906 285.535156 86.832031 285.664062 C 87.265625 285.925781 87.472656 285.445312 87.710938 285.1875 C 88.867188 283.8125 90.261719 282.75 91.898438 282.003906 C 92.820312 281.617188 93.808594 281.054688 94.746094 281.84375 C 95.625 282.597656 94.855469 283.492188 94.746094 284.320312 C 94.660156 284.683594 94.546875 285.039062 94.402344 285.382812 Z M 218.527344 175.292969 L 218.128906 174.941406 C 217.941406 175.34375 217.710938 175.71875 217.445312 176.074219 C 212.839844 181.398438 209.445312 187.40625 207.257812 194.097656 C 205.875 198.164062 204.25 202.132812 202.382812 206.003906 C 201.292969 208.316406 199.816406 210.355469 197.964844 212.121094 C 193.269531 216.328125 186.886719 216.34375 181.25 212.257812 C 177.710938 209.585938 174.917969 206.285156 172.878906 202.351562 C 169.683594 196.027344 166.046875 189.96875 161.96875 184.171875 C 160.601562 182.238281 159.027344 180.484375 157.246094 178.917969 C 156.667969 180.507812 155.890625 181.992188 154.921875 183.382812 C 154.300781 184.171875 154.515625 184.578125 155.199219 185.214844 C 160.089844 189.609375 164.085938 194.707031 167.1875 200.5 C 168.925781 203.867188 170.65625 207.238281 172.308594 210.644531 C 173.730469 213.585938 175.671875 216.128906 178.140625 218.273438 C 184.980469 224.230469 193.625 225.128906 200.710938 217.507812 C 205.257812 212.609375 207.726562 206.628906 209.609375 200.34375 C 211.238281 194.90625 212.699219 189.410156 214.796875 184.125 C 215.976562 181.152344 217.273438 178.234375 218.527344 175.292969 Z M 134.078125 141.867188 C 135.640625 140.804688 137.34375 140.082031 139.191406 139.695312 C 141.042969 139.3125 142.894531 139.292969 144.75 139.644531 C 146.878906 140.175781 148.996094 140.128906 151.097656 139.503906 C 153.894531 138.601562 154.238281 137.03125 152.332031 134.828125 C 149.578125 131.648438 146.351562 128.707031 144.820312 124.714844 C 142.105469 117.652344 139.71875 110.460938 137.222656 103.308594 C 135.90625 99.519531 135.261719 95.550781 134.203125 91.671875 C 133.792969 95.75 133.871094 99.816406 134.445312 103.871094 C 135.144531 110.148438 136.300781 116.335938 137.910156 122.441406 C 139.300781 128.097656 139.140625 133.574219 135.71875 138.613281 C 135.109375 139.667969 134.5625 140.75 134.078125 141.867188 Z M 210.117188 168.136719 C 208.726562 168.503906 207.570312 169.230469 206.644531 170.328125 C 204.59375 172.480469 202.6875 174.753906 200.925781 177.144531 C 199.273438 179.742188 197.308594 182.070312 195.023438 184.136719 C 192.742188 186.203125 190.222656 187.925781 187.472656 189.3125 C 186.40625 189.878906 185.277344 190.28125 184.09375 190.527344 C 182.910156 190.773438 181.714844 190.84375 180.507812 190.746094 C 179.300781 190.648438 178.132812 190.382812 177.003906 189.949219 C 175.875 189.519531 174.828125 188.9375 173.867188 188.203125 C 170.214844 185.550781 166.953125 182.488281 164.082031 179.007812 C 163.023438 177.585938 161.835938 176.28125 160.519531 175.09375 C 159.835938 174.5625 159.101562 174.054688 158.449219 175.050781 C 157.800781 176.050781 158.492188 176.542969 159.308594 176.925781 C 162.582031 178.644531 165.492188 180.839844 168.042969 183.511719 C 171.527344 186.816406 174.464844 190.652344 178.179688 193.742188 C 184.214844 198.765625 189.605469 198.542969 195.019531 192.878906 C 196.753906 191.003906 198.144531 188.90625 199.195312 186.582031 C 202.238281 180.082031 205.878906 173.933594 210.117188 168.136719 Z M 228.230469 79.027344 C 228.160156 76.878906 227.878906 74.761719 227.386719 72.667969 C 227.148438 71.304688 226.191406 71.234375 225.101562 71.394531 C 224.058594 71.550781 223.113281 71.738281 223.152344 73.164062 C 223.148438 75.386719 222.824219 77.558594 222.175781 79.679688 C 220.621094 85.398438 217.859375 90.695312 216.226562 96.390625 C 216.058594 96.976562 215.496094 97.609375 216.011719 98.148438 C 216.691406 99.003906 217.066406 99.980469 217.132812 101.078125 C 217.351562 102.253906 218.070312 102.5 219.070312 101.925781 C 220.125 101.304688 220.980469 100.476562 221.640625 99.445312 C 223.648438 96.402344 225.214844 93.148438 226.332031 89.679688 C 227.453125 86.210938 228.085938 82.660156 228.230469 79.019531 Z M 186.828125 9.292969 C 189.699219 10.109375 192.199219 10.734375 194.636719 11.535156 C 202.609375 14.15625 208.28125 19.773438 213.308594 26.136719 C 215.574219 29.007812 217.519531 32.128906 219.636719 35.113281 C 219.902344 35.484375 220.144531 36.144531 220.765625 35.867188 C 221.210938 35.671875 221.082031 35.089844 221.105469 34.664062 C 221.144531 32.621094 220.757812 30.65625 219.953125 28.773438 C 218.929688 26.417969 217.613281 24.234375 216.007812 22.230469 C 214.402344 20.222656 212.558594 18.460938 210.480469 16.949219 C 206.210938 13.195312 201.417969 10.320312 196.09375 8.324219 C 194.554688 7.796875 192.972656 7.617188 191.355469 7.785156 C 189.734375 7.957031 188.226562 8.457031 186.828125 9.292969 Z M 260.480469 214.378906 C 260.167969 221.410156 258.820312 228.234375 256.433594 234.855469 C 255.261719 238.054688 254.898438 241.339844 255.351562 244.714844 C 255.683594 247.128906 255.917969 249.558594 256.113281 251.265625 C 262.46875 239.972656 263.695312 227.417969 260.480469 214.371094 Z M 234.230469 119.367188 C 233.132812 124.667969 232.136719 129.730469 231.023438 134.765625 C 230.207031 137.960938 229.875 141.203125 230.023438 144.5 C 230.257812 147.519531 230.605469 150.550781 232.980469 152.835938 C 233.183594 153.082031 233.425781 153.289062 233.699219 153.453125 C 233.972656 153.617188 234.265625 153.734375 234.582031 153.804688 C 234.894531 153.871094 235.210938 153.886719 235.527344 153.851562 C 235.847656 153.8125 236.148438 153.726562 236.441406 153.589844 C 236.695312 153.425781 236.917969 153.222656 237.105469 152.984375 C 237.296875 152.75 237.441406 152.488281 237.546875 152.199219 C 237.648438 151.914062 237.703125 151.621094 237.707031 151.316406 C 237.710938 151.011719 237.667969 150.71875 237.574219 150.429688 C 237.242188 148.574219 236.832031 146.722656 236.328125 144.90625 C 234.429688 138.078125 232.972656 131.214844 233.886719 124.050781 C 234.242188 122.507812 234.359375 120.945312 234.230469 119.367188 Z M 182.085938 81.542969 C 182.265625 81.484375 182.445312 81.414062 182.617188 81.332031 C 189.863281 76.867188 196.148438 76.695312 203.609375 80.722656 C 204.015625 80.917969 204.441406 80.988281 204.890625 80.929688 C 207.308594 80.640625 209.566406 79.878906 211.660156 78.636719 C 212.078125 78.382812 212.550781 78.132812 212.453125 77.480469 C 212.234375 76.957031 211.949219 76.472656 211.601562 76.023438 C 211.25 75.578125 210.847656 75.1875 210.386719 74.851562 C 209.929688 74.515625 209.4375 74.246094 208.90625 74.042969 C 208.375 73.84375 207.824219 73.714844 207.257812 73.664062 C 201.320312 74.429688 195.382812 75.207031 189.4375 75.941406 C 185.296875 76.453125 182.902344 78.207031 182.085938 81.542969 Z M 85.609375 278.863281 C 87.746094 274.851562 87.628906 270.816406 87.152344 266.828125 C 86.25 259.285156 82.820312 252.535156 80.050781 245.585938 C 79.929688 245.589844 79.8125 245.605469 79.699219 245.636719 C 82.140625 256.5 83.078125 267.621094 85.609375 278.863281 Z M 158.96875 158.53125 C 160.980469 156.78125 163.335938 157.164062 165.648438 157.269531 C 166.09375 157.316406 166.535156 157.28125 166.96875 157.167969 C 169.921875 156.160156 171.777344 157.78125 173.476562 159.8125 C 174.5625 161.140625 175.425781 162.601562 176.070312 164.191406 C 177.195312 166.863281 178.320312 169.539062 179.464844 172.203125 C 179.898438 173.265625 180.496094 174.226562 181.257812 175.085938 C 181.542969 175.402344 181.863281 175.875 182.363281 175.574219 C 182.867188 175.277344 182.664062 174.8125 182.464844 174.398438 C 182.246094 173.945312 182.003906 173.5 181.8125 173.035156 C 181.0625 171.21875 179.992188 169.140625 180.773438 167.414062 C 181.722656 165.304688 180.546875 164.425781 179.554688 163.199219 C 178.507812 162.015625 177.535156 160.773438 176.632812 159.476562 C 176.207031 158.792969 175.703125 158.167969 175.125 157.609375 C 174.542969 157.046875 173.902344 156.5625 173.203125 156.160156 C 172.503906 155.757812 171.765625 155.445312 170.988281 155.222656 C 170.210938 155 169.417969 154.878906 168.609375 154.851562 C 167.6875 154.773438 166.832031 155.324219 166.003906 155.121094 C 162.703125 154.292969 160.917969 156.5 158.96875 158.53125 Z M 84.695312 284.210938 C 81.445312 289.160156 79.261719 294.082031 79.683594 299.820312 C 79.722656 301.183594 80.113281 302.433594 80.863281 303.574219 C 81.316406 304.207031 81.992188 304.496094 82.335938 303.679688 C 83.160156 301.71875 85.164062 299.925781 83.40625 297.472656 C 83.035156 296.753906 82.984375 296.011719 83.25 295.25 C 83.488281 293.484375 83.988281 291.796875 84.75 290.183594 C 85.84375 288.242188 85.269531 286.441406 84.695312 284.210938 Z M 186.902344 120.929688 C 186.09375 121.019531 185.28125 121.089844 184.476562 121.207031 C 181.363281 121.699219 178.304688 121.472656 175.296875 120.53125 C 173.21875 119.878906 170.917969 120.566406 168.859375 119.574219 C 168.589844 119.445312 168.121094 119.660156 167.765625 119.777344 C 165.636719 120.5625 163.449219 121.136719 161.210938 121.5 C 162.898438 122.375 164.691406 122.8125 166.589844 122.8125 C 169.992188 123.058594 173.40625 122.980469 176.8125 123.367188 C 178.582031 123.523438 180.328125 123.394531 182.058594 122.976562 C 183.785156 122.558594 185.398438 121.875 186.902344 120.929688 Z M 180.246094 76.703125 C 188.53125 72.0625 197.179688 72.214844 205.800781 71.992188 C 204.019531 70.929688 202.097656 70.351562 200.027344 70.253906 C 194.214844 69.96875 188.738281 71.960938 183.097656 72.859375 C 181.386719 73.125 180.796875 74.585938 180.246094 76.703125 Z M 140.148438 75.71875 C 147.1875 74.054688 153.757812 76.808594 160.433594 75.902344 C 155.234375 72.28125 145.292969 70.738281 140.148438 75.71875 Z M 73.183594 203.859375 C 74.011719 199.539062 75.371094 195.390625 77.253906 191.417969 C 79.140625 187.441406 81.492188 183.765625 84.3125 180.390625 C 75.675781 185.890625 73.929688 194.640625 73.183594 203.859375 Z M 76.824219 362.21875 C 74.714844 362.246094 72.683594 362.648438 70.726562 363.429688 C 70.445312 363.546875 70.09375 363.695312 70.109375 364.058594 C 70.121094 364.425781 70.46875 364.515625 70.773438 364.605469 C 72.527344 365.132812 74.285156 365.640625 76.023438 366.203125 C 76.136719 366.261719 76.253906 366.296875 76.382812 366.304688 C 76.507812 366.3125 76.628906 366.292969 76.746094 366.25 C 76.863281 366.203125 76.96875 366.132812 77.054688 366.042969 C 77.144531 365.953125 77.207031 365.847656 77.25 365.730469 C 77.683594 364.886719 78.140625 364.058594 78.648438 363.261719 C 79.25 362.328125 78.773438 362.183594 77.960938 362.210938 C 77.574219 362.230469 77.195312 362.222656 76.816406 362.222656 Z M 152.933594 81.253906 C 152.445312 81.425781 151.367188 80.78125 151.195312 81.839844 C 151.054688 82.6875 151.835938 83.285156 152.617188 83.65625 C 152.957031 83.828125 153.3125 83.945312 153.6875 84.003906 C 154.773438 84.148438 155.855469 83.996094 156.023438 82.710938 C 156.210938 81.289062 154.929688 81.449219 154.058594 81.265625 C 153.683594 81.226562 153.308594 81.226562 152.933594 81.253906 Z M 152.933594 81.253906 " fill-opacity="1" fill-rule="nonzero"/></g></svg>