<svg xmlns="http://www.w3.org/2000/svg" xmlns:xlink="http://www.w3.org/1999/xlink" width="500" zoomAndPan="magnify" viewBox="0 0 375 374.999991" height="500" preserveAspectRatio="xMidYMid meet" version="1.0"><defs><clipPath id="77d2369c7e"><path d="M 78.527344 93.28125 L 374.777344 93.28125 L 374.777344 281.527344 L 78.527344 281.527344 Z M 78.527344 93.28125 " clip-rule="nonzero"/></clipPath></defs><path fill="#333333" d="M 71.417969 111.839844 L 17.414062 111.839844 L 17.414062 117.359375 L 71.417969 117.359375 L 71.417969 111.839844 " fill-opacity="1" fill-rule="nonzero"/><path fill="#333333" d="M 9.796875 111.839844 L 0.222656 111.839844 L 0.222656 117.359375 L 9.796875 117.359375 L 9.796875 111.839844 " fill-opacity="1" fill-rule="nonzero"/><path fill="#333333" d="M 71.417969 143.585938 L 21.617188 143.585938 L 21.617188 149.105469 L 71.417969 149.105469 L 71.417969 143.585938 " fill-opacity="1" fill-rule="nonzero"/><path fill="#333333" d="M 14 143.585938 L 4.425781 143.585938 L 4.425781 149.105469 L 14 149.105469 L 14 143.585938 " fill-opacity="1" fill-rule="nonzero"/><path fill="#333333" d="M 71.183594 174.324219 L 25.582031 174.324219 L 25.582031 179.839844 L 71.183594 179.839844 L 71.183594 174.324219 " fill-opacity="1" fill-rule="nonzero"/><path fill="#333333" d="M 8.390625 179.839844 L 17.964844 179.839844 L 17.964844 174.324219 L 8.390625 174.324219 L 8.390625 179.839844 " fill-opacity="1" fill-rule="nonzero"/><g clip-path="url(#77d2369c7e)"><path fill="#333333" d="M 369.253906 239.714844 C 369.253906 243.921875 365.828125 247.347656 361.613281 247.347656 L 352.417969 247.347656 C 351.011719 231.3125 337.519531 218.6875 321.105469 218.6875 C 304.695312 218.6875 291.203125 231.3125 289.796875 247.347656 L 167.136719 247.347656 C 165.730469 231.3125 152.234375 218.6875 135.824219 218.6875 C 119.414062 218.6875 105.917969 231.3125 104.511719 247.347656 L 91.695312 247.347656 C 87.480469 247.347656 84.054688 243.921875 84.054688 239.714844 L 84.054688 102.664062 C 84.054688 100.53125 85.789062 98.800781 87.921875 98.800781 L 265.410156 98.800781 C 267.375 100.105469 272.65625 107.558594 275.859375 112.074219 C 282.585938 121.5625 283.964844 123.253906 286.203125 123.253906 L 338.476562 123.253906 C 340.414062 123.253906 342.15625 124.40625 342.914062 126.191406 L 366.96875 182.914062 C 368.488281 186.492188 369.253906 190.277344 369.253906 194.164062 Z M 321.105469 276.011719 C 306.808594 276.011719 295.179688 264.390625 295.179688 250.109375 C 295.179688 235.824219 306.808594 224.207031 321.105469 224.207031 C 335.402344 224.207031 347.035156 235.824219 347.035156 250.109375 C 347.035156 264.390625 335.402344 276.011719 321.105469 276.011719 Z M 135.824219 276.011719 C 121.527344 276.011719 109.894531 264.390625 109.894531 250.109375 C 109.894531 235.824219 121.527344 224.207031 135.824219 224.207031 C 150.121094 224.207031 161.753906 235.824219 161.753906 250.109375 C 161.753906 264.390625 150.121094 276.011719 135.824219 276.011719 Z M 348 124.039062 C 346.375 120.210938 342.636719 117.734375 338.476562 117.734375 L 287 117.734375 C 285.699219 116.40625 282.648438 112.105469 280.363281 108.882812 C 271.796875 96.796875 268.847656 93.28125 265.824219 93.28125 L 87.921875 93.28125 C 82.742188 93.28125 78.53125 97.488281 78.53125 102.664062 L 78.53125 239.714844 C 78.53125 246.96875 84.4375 252.867188 91.695312 252.867188 L 104.511719 252.867188 C 105.917969 268.902344 119.414062 281.527344 135.824219 281.527344 C 152.234375 281.527344 165.730469 268.902344 167.136719 252.867188 L 289.796875 252.867188 C 291.203125 268.902344 304.695312 281.527344 321.105469 281.527344 C 337.519531 281.527344 351.011719 268.902344 352.417969 252.867188 L 361.613281 252.867188 C 368.871094 252.867188 374.777344 246.96875 374.777344 239.714844 L 374.777344 194.164062 C 374.777344 189.535156 373.863281 185.027344 372.054688 180.761719 L 348 124.039062 " fill-opacity="1" fill-rule="nonzero"/></g><path fill="#333333" d="M 346.339844 182.484375 C 345.390625 183.917969 343.757812 184.773438 341.976562 184.773438 L 294.558594 184.773438 C 293.449219 184.773438 292.550781 183.941406 292.550781 182.917969 L 292.550781 142.5625 C 292.550781 140.949219 293.949219 139.636719 295.664062 139.636719 L 327.359375 139.636719 C 329.242188 139.636719 330.914062 140.769531 331.585938 142.605469 L 346.769531 178.042969 C 347.390625 179.519531 347.234375 181.140625 346.339844 182.484375 Z M 336.71875 140.585938 C 335.320312 136.714844 331.558594 134.117188 327.359375 134.117188 L 295.664062 134.117188 C 290.902344 134.117188 287.027344 137.90625 287.027344 142.5625 L 287.027344 182.917969 C 287.027344 186.984375 290.40625 190.289062 294.558594 190.289062 L 341.976562 190.289062 C 345.613281 190.289062 348.964844 188.511719 350.941406 185.535156 C 352.851562 182.667969 353.195312 179.0625 351.851562 175.886719 L 336.71875 140.585938 " fill-opacity="1" fill-rule="nonzero"/><path fill="#333333" d="M 135.824219 259.230469 C 130.789062 259.230469 126.695312 255.136719 126.695312 250.109375 C 126.695312 245.078125 130.789062 240.984375 135.824219 240.984375 C 140.859375 240.984375 144.953125 245.078125 144.953125 250.109375 C 144.953125 255.136719 140.859375 259.230469 135.824219 259.230469 Z M 135.824219 235.46875 C 127.742188 235.46875 121.171875 242.035156 121.171875 250.109375 C 121.171875 258.179688 127.742188 264.746094 135.824219 264.746094 C 143.902344 264.746094 150.476562 258.179688 150.476562 250.109375 C 150.476562 242.035156 143.902344 235.46875 135.824219 235.46875 " fill-opacity="1" fill-rule="nonzero"/><path fill="#333333" d="M 321.105469 259.230469 C 316.074219 259.230469 311.976562 255.136719 311.976562 250.109375 C 311.976562 245.078125 316.074219 240.984375 321.105469 240.984375 C 326.140625 240.984375 330.238281 245.078125 330.238281 250.109375 C 330.238281 255.136719 326.140625 259.230469 321.105469 259.230469 Z M 321.105469 235.46875 C 313.027344 235.46875 306.453125 242.035156 306.453125 250.109375 C 306.453125 258.179688 313.027344 264.746094 321.105469 264.746094 C 329.1875 264.746094 335.761719 258.179688 335.761719 250.109375 C 335.761719 242.035156 329.1875 235.46875 321.105469 235.46875 " fill-opacity="1" fill-rule="nonzero"/></svg>