<svg xmlns="http://www.w3.org/2000/svg" xmlns:xlink="http://www.w3.org/1999/xlink" width="500" zoomAndPan="magnify" viewBox="0 0 375 374.999991" height="500" preserveAspectRatio="xMidYMid meet" version="1.0"><defs><clipPath id="18e777e4f0"><path d="M 48.671875 1 L 326 1 L 326 374 L 48.671875 374 Z M 48.671875 1 " clip-rule="nonzero"/></clipPath></defs><g clip-path="url(#18e777e4f0)"><path fill="#000000" d="M 102.582031 193.140625 C 100.917969 193.753906 99.335938 194.222656 97.867188 194.902344 C 96.898438 195.433594 95.863281 195.707031 94.757812 195.71875 C 93.652344 195.730469 92.613281 195.480469 91.632812 194.972656 C 91.039062 194.617188 90.40625 194.375 89.726562 194.246094 C 89.050781 194.113281 88.371094 194.097656 87.691406 194.203125 C 87.007812 194.308594 86.367188 194.523438 85.757812 194.851562 C 85.152344 195.179688 84.621094 195.601562 84.160156 196.113281 C 82.980469 197.179688 81.734375 198.15625 80.421875 199.042969 C 78.230469 200.472656 76.730469 200.34375 75.128906 198.296875 C 74.917969 197.957031 74.648438 197.675781 74.320312 197.449219 C 73.988281 197.226562 73.628906 197.078125 73.234375 197.007812 C 72.839844 196.9375 72.453125 196.949219 72.0625 197.046875 C 71.675781 197.140625 71.324219 197.3125 71.011719 197.558594 C 70.691406 197.726562 70.367188 197.882812 70.046875 198.046875 C 65.371094 200.441406 65.359375 200.449219 61.769531 196.605469 C 61.09375 195.785156 60.230469 195.328125 59.171875 195.238281 C 56.671875 195.082031 54.15625 195.105469 51.65625 195.035156 C 50.082031 194.992188 49.851562 194.453125 50.117188 193.296875 C 50.476562 191.761719 50.980469 190.253906 51.484375 188.75 C 54.09375 180.929688 58.832031 174.273438 63.132812 167.359375 C 69.601562 157.09375 76.921875 147.472656 85.09375 138.5 C 88.867188 134.304688 91.34375 129.171875 94.605469 124.589844 C 94.871094 124.167969 95.050781 123.710938 95.144531 123.21875 C 95.238281 122.726562 95.234375 122.234375 95.140625 121.742188 C 95.042969 121.25 94.859375 120.792969 94.589844 120.375 C 94.320312 119.953125 93.980469 119.59375 93.574219 119.304688 C 93.210938 118.972656 92.980469 118.566406 92.882812 118.089844 C 92.785156 117.609375 92.832031 117.144531 93.03125 116.699219 C 95.753906 109.078125 93.574219 102.582031 88.609375 96.675781 C 86.433594 94.144531 84.679688 91.347656 83.347656 88.289062 C 82.015625 85.226562 81.167969 82.035156 80.800781 78.71875 C 80.222656 73.351562 80.332031 68 81.125 62.664062 C 81.917969 57.328125 83.375 52.175781 85.488281 47.214844 C 91.421875 32.808594 102.019531 22.5625 115.246094 14.871094 C 124.375 9.382812 134.089844 5.285156 144.390625 2.574219 C 145.414062 2.265625 146.457031 2.027344 147.515625 1.859375 C 148.570312 1.6875 149.636719 1.589844 150.707031 1.5625 C 151.777344 1.535156 152.84375 1.578125 153.910156 1.691406 C 154.972656 1.804688 156.027344 1.988281 157.066406 2.242188 C 158.109375 2.496094 159.125 2.820312 160.125 3.207031 C 161.121094 3.597656 162.089844 4.050781 163.027344 4.570312 C 163.964844 5.085938 164.863281 5.664062 165.722656 6.304688 C 166.585938 6.941406 167.398438 7.632812 168.167969 8.378906 C 169.550781 9.640625 171.035156 10.800781 172.347656 12.132812 C 173.859375 13.738281 175.660156 14.890625 177.753906 15.585938 C 180.472656 16.503906 182.796875 18.019531 184.730469 20.132812 C 188.148438 23.621094 191.824219 26.828125 196.878906 27.519531 C 200.894531 28.140625 204.886719 28 208.851562 27.101562 C 218.496094 24.757812 227.269531 20.320312 236.15625 16.082031 C 244.324219 12.1875 252.402344 7.890625 261.511719 6.464844 C 263.421875 6.027344 265.355469 5.898438 267.308594 6.070312 C 269.261719 6.246094 271.140625 6.71875 272.945312 7.488281 C 274.019531 8.003906 275.144531 8.179688 276.324219 8.019531 C 280.902344 7.453125 283.59375 10.660156 286.460938 13.28125 C 286.996094 13.878906 287.636719 14.320312 288.386719 14.605469 C 291.171875 15.464844 291.921875 16.523438 291.777344 19.476562 C 291.730469 20.53125 292.0625 21.449219 292.769531 22.234375 C 294.671875 24.589844 296.605469 26.925781 298.378906 29.375 C 300.363281 32.101562 300.542969 33.8125 298.28125 36.175781 C 295.316406 39.269531 295.601562 42.902344 296.414062 46.296875 C 297.597656 51.25 297.714844 55.808594 294.789062 60.15625 C 294.519531 60.601562 294.390625 61.085938 294.398438 61.605469 C 294.410156 62.125 294.554688 62.605469 294.839844 63.042969 C 297.484375 68.238281 296.722656 73.207031 293.96875 78.089844 C 293.007812 79.785156 292.25 81.59375 291.234375 83.25 C 290.09375 85.0625 289.269531 87.007812 288.765625 89.089844 C 288.261719 91.175781 288.105469 93.285156 288.296875 95.417969 C 288.355469 96.050781 288.335938 96.683594 288.230469 97.308594 C 288.125 97.9375 287.9375 98.542969 287.671875 99.121094 C 287.40625 99.699219 287.070312 100.234375 286.664062 100.722656 C 286.257812 101.210938 285.796875 101.640625 285.277344 102.007812 C 284.628906 102.46875 284.082031 103.03125 283.644531 103.691406 C 283.203125 104.355469 282.894531 105.074219 282.722656 105.851562 C 281.984375 108.726562 280.515625 111.164062 278.320312 113.160156 C 275.015625 116.417969 272.707031 120.273438 271.394531 124.726562 C 270.992188 126.191406 270.367188 127.554688 269.519531 128.816406 C 268.667969 130.078125 267.640625 131.167969 266.429688 132.089844 C 262.839844 134.835938 261.949219 138.980469 260.945312 143.21875 C 259.683594 148.550781 260.042969 153.949219 259.359375 159.28125 C 259.253906 161.320312 258.777344 163.265625 257.933594 165.125 C 255.410156 169.632812 256.265625 174.195312 257.382812 178.765625 C 258.085938 181.628906 259.058594 184.425781 259.90625 187.242188 C 260.195312 187.984375 260.414062 188.742188 260.5625 189.519531 C 260.644531 190.273438 261.328125 191.402344 260.023438 191.683594 C 258.933594 191.921875 258.882812 190.78125 258.644531 190.09375 C 257.472656 186.699219 256.347656 183.285156 255.058594 179.453125 C 253.269531 182.949219 252.175781 186.179688 253.0625 189.765625 C 253.640625 191.875 253.820312 194.011719 253.601562 196.183594 C 253.261719 198.9375 254.863281 200.875 256.488281 202.6875 C 258.847656 205.34375 260.804688 208.265625 262.363281 211.460938 C 262.875 212.664062 263.570312 213.75 264.449219 214.71875 C 266.761719 216.929688 267.234375 220.214844 269.28125 222.554688 C 269.875 223.292969 270.621094 223.816406 271.523438 224.117188 C 275.082031 225.273438 278.59375 226.578125 282.160156 227.726562 C 283.921875 228.292969 285.542969 229.128906 287.023438 230.242188 C 288.503906 231.355469 289.761719 232.683594 290.792969 234.21875 C 296.34375 242.109375 298.820312 251.210938 301.300781 260.332031 C 306.183594 278.261719 309.773438 296.484375 313.789062 314.621094 C 315.878906 323.203125 318.949219 331.417969 323.003906 339.261719 C 323.980469 341.117188 324.746094 343.054688 325.304688 345.078125 C 325.425781 345.382812 325.507812 345.699219 325.558594 346.023438 C 325.609375 346.347656 325.621094 346.671875 325.59375 347 C 325.570312 347.328125 325.507812 347.648438 325.410156 347.960938 C 325.3125 348.273438 325.179688 348.574219 325.015625 348.855469 C 324.847656 349.140625 324.652344 349.398438 324.425781 349.640625 C 324.203125 349.878906 323.953125 350.089844 323.679688 350.269531 C 323.40625 350.453125 323.117188 350.601562 322.8125 350.71875 C 322.503906 350.832031 322.1875 350.914062 321.863281 350.957031 C 319.785156 351.535156 317.675781 352.015625 315.617188 352.65625 C 315.054688 352.808594 314.53125 353.046875 314.042969 353.367188 C 313.558594 353.691406 313.136719 354.082031 312.777344 354.542969 C 312.417969 355.003906 312.140625 355.507812 311.949219 356.058594 C 311.753906 356.609375 311.652344 357.175781 311.644531 357.757812 C 311.421875 359.113281 311.296875 360.472656 311.269531 361.84375 C 311.671875 368.734375 307.945312 371.558594 301.773438 372.707031 C 292.078125 374.511719 282.695312 372.582031 273.449219 369.976562 C 264.585938 367.480469 255.925781 364.277344 246.835938 362.582031 C 236.707031 360.695312 226.554688 358.804688 216.203125 359.359375 C 207.253906 359.917969 198.503906 361.550781 189.953125 364.257812 C 184.144531 366.007812 178.214844 367.101562 172.164062 367.535156 C 169.339844 367.617188 166.78125 368.492188 164.496094 370.160156 C 158.269531 375.09375 152.058594 372.53125 148.171875 367.378906 C 146.046875 364.5625 144.125 361.59375 142.097656 358.703125 C 140.066406 355.6875 137.613281 353.070312 134.738281 350.84375 C 131.867188 348.617188 128.714844 346.902344 125.289062 345.6875 C 124.175781 345.25 123.019531 344.980469 121.828125 344.875 C 120.632812 344.765625 119.449219 344.832031 118.273438 345.0625 C 117.097656 345.296875 115.980469 345.6875 114.917969 346.242188 C 113.855469 346.792969 112.890625 347.484375 112.023438 348.316406 C 108.324219 351.574219 105.640625 355.753906 102.109375 359.171875 C 101.28125 359.972656 100.511719 360.84375 99.628906 361.582031 C 97.019531 363.769531 94.140625 364.863281 90.878906 363.128906 C 90.425781 362.859375 89.941406 362.675781 89.425781 362.570312 C 88.910156 362.464844 88.390625 362.445312 87.871094 362.515625 C 87.347656 362.582031 86.851562 362.734375 86.378906 362.96875 C 85.910156 363.203125 85.488281 363.507812 85.117188 363.882812 C 82.421875 366.15625 79.785156 368.503906 77.097656 370.785156 C 75.886719 371.832031 74.539062 372.660156 73.058594 373.269531 C 72.800781 373.40625 72.535156 373.519531 72.257812 373.601562 C 71.980469 373.6875 71.695312 373.746094 71.40625 373.773438 C 71.117188 373.804688 70.828125 373.804688 70.539062 373.777344 C 70.25 373.75 69.964844 373.695312 69.6875 373.613281 C 69.410156 373.527344 69.140625 373.417969 68.882812 373.28125 C 68.628906 373.148438 68.386719 372.988281 68.160156 372.804688 C 67.933594 372.621094 67.726562 372.417969 67.542969 372.195312 C 67.355469 371.972656 67.195312 371.734375 67.054688 371.476562 C 65.984375 369.671875 65.164062 367.757812 64.601562 365.734375 C 63.667969 363.230469 62.480469 362.890625 60.410156 364.621094 C 58.425781 366.289062 56.582031 368.132812 54.597656 369.804688 C 53.570312 370.664062 52.433594 371.683594 50.929688 371.15625 C 49.292969 370.582031 49.070312 369.003906 48.988281 367.582031 C 48.90625 364.316406 49.335938 361.121094 50.273438 357.992188 C 53.359375 346.296875 56.585938 334.640625 59.628906 322.9375 C 61.375 315.707031 62.375 308.371094 62.625 300.933594 C 62.875 291.488281 63.863281 282.121094 65.582031 272.828125 C 65.859375 271.363281 66.371094 269.984375 67.113281 268.691406 C 67.855469 267.398438 68.792969 266.261719 69.917969 265.285156 C 73.460938 262.179688 76.535156 258.664062 79.140625 254.738281 C 80.28125 252.945312 81.742188 251.472656 83.527344 250.320312 C 83.875 250.121094 84.152344 249.847656 84.351562 249.5 C 84.554688 249.152344 84.660156 248.777344 84.664062 248.375 C 85.609375 239.449219 87.273438 230.734375 91.835938 222.792969 C 93.386719 219.511719 94.355469 216.066406 94.742188 212.457031 C 95.996094 206.324219 98.265625 200.59375 101.542969 195.261719 C 102.082031 194.648438 102.429688 193.941406 102.582031 193.140625 Z M 226.050781 217.671875 C 225.898438 218.515625 225.964844 219.339844 226.246094 220.148438 C 227.628906 225.648438 228.367188 231.238281 228.453125 236.910156 C 228.542969 242.582031 227.984375 248.1875 226.777344 253.730469 C 225.445312 259.570312 223.414062 265.414062 218.429688 269.257812 C 216.101562 271.039062 214.050781 273.09375 212.265625 275.421875 C 210.484375 277.75 209.039062 280.269531 207.921875 282.980469 C 207.445312 284.109375 207.203125 285.816406 205.59375 285.742188 C 204.089844 285.675781 204.023438 283.996094 203.683594 282.902344 C 203.265625 281.417969 202.65625 280.015625 201.859375 278.699219 C 201.058594 277.378906 200.097656 276.191406 198.972656 275.132812 C 197.851562 274.078125 196.609375 273.1875 195.242188 272.472656 C 193.878906 271.753906 192.445312 271.230469 190.9375 270.902344 C 185.304688 269.414062 179.710938 267.769531 174.097656 266.210938 C 154.496094 260.777344 139.28125 249.933594 130.53125 231.039062 C 129.800781 229.628906 128.945312 228.296875 127.964844 227.050781 C 127.0625 225.804688 126.460938 226.066406 125.96875 227.472656 C 125.6875 228.527344 125.601562 229.597656 125.714844 230.683594 C 125.828125 231.773438 126.132812 232.800781 126.628906 233.773438 C 128.296875 237.929688 130.234375 241.957031 132.4375 245.851562 C 133.144531 247.1875 133.746094 248.570312 134.242188 250 C 134.339844 250.175781 134.402344 250.367188 134.433594 250.566406 C 134.464844 250.769531 134.460938 250.96875 134.417969 251.167969 C 134.378906 251.363281 134.300781 251.550781 134.195312 251.722656 C 134.085938 251.894531 133.949219 252.042969 133.789062 252.164062 C 133.597656 252.269531 133.394531 252.339844 133.179688 252.371094 C 132.960938 252.40625 132.746094 252.402344 132.535156 252.359375 C 132.320312 252.316406 132.117188 252.238281 131.933594 252.125 C 131.746094 252.011719 131.582031 251.871094 131.445312 251.699219 C 130.480469 250.71875 129.640625 249.644531 128.921875 248.472656 C 126.023438 243.839844 122.390625 239.875 118.027344 236.582031 C 117.664062 236.296875 117.273438 236.046875 116.863281 235.835938 C 116.453125 235.621094 116.027344 235.449219 115.582031 235.316406 C 115.140625 235.183594 114.6875 235.089844 114.230469 235.039062 C 113.769531 234.992188 113.308594 234.984375 112.847656 235.019531 C 112.386719 235.054688 111.933594 235.128906 111.484375 235.25 C 111.039062 235.367188 110.605469 235.527344 110.1875 235.726562 C 109.769531 235.925781 109.375 236.160156 109 236.433594 C 108.628906 236.707031 108.28125 237.011719 107.964844 237.347656 C 107.304688 237.910156 106.6875 238.515625 106.113281 239.167969 C 103.859375 241.78125 101.265625 244 98.335938 245.820312 C 95.40625 247.644531 92.273438 248.988281 88.933594 249.855469 C 87.171875 250.324219 85.554688 251.097656 84.082031 252.179688 C 82.609375 253.257812 81.386719 254.570312 80.40625 256.109375 C 77.828125 260.058594 74.746094 263.566406 71.164062 266.632812 C 70.121094 267.542969 69.265625 268.605469 68.59375 269.816406 C 67.925781 271.03125 67.480469 272.320312 67.257812 273.6875 C 65.75 282.132812 64.875 290.648438 64.636719 299.222656 C 64.425781 305.421875 63.773438 311.574219 62.671875 317.675781 C 60.507812 329.3125 56.542969 340.480469 53.679688 351.933594 C 52.238281 356.703125 51.277344 361.566406 50.796875 366.523438 C 50.75 367.441406 50.519531 368.632812 51.464844 369.097656 C 52.546875 369.625 53.265625 368.511719 54 367.882812 C 55.972656 365.976562 58.050781 364.195312 60.230469 362.535156 C 62.734375 360.84375 64.730469 361.414062 65.96875 364.171875 C 66.351562 365.023438 66.605469 365.933594 66.917969 366.816406 C 69.03125 372.785156 70.824219 373.285156 75.894531 369.394531 C 78.871094 367.113281 81.304688 364.214844 84.4375 362.097656 C 84.898438 361.710938 85.402344 361.402344 85.949219 361.160156 C 86.5 360.921875 87.070312 360.765625 87.664062 360.691406 C 88.257812 360.613281 88.851562 360.625 89.441406 360.71875 C 90.03125 360.816406 90.597656 360.992188 91.136719 361.25 C 91.78125 361.59375 92.460938 361.824219 93.179688 361.929688 C 93.902344 362.039062 94.621094 362.023438 95.335938 361.882812 C 96.050781 361.742188 96.71875 361.484375 97.34375 361.109375 C 97.96875 360.734375 98.511719 360.261719 98.976562 359.699219 C 99.800781 358.890625 100.617188 358.078125 101.425781 357.253906 C 104.753906 353.855469 107.359375 349.796875 111.035156 346.71875 C 112.019531 345.804688 113.109375 345.046875 114.3125 344.445312 C 115.511719 343.839844 116.769531 343.414062 118.089844 343.167969 C 119.410156 342.921875 120.738281 342.859375 122.074219 342.988281 C 123.410156 343.117188 124.703125 343.429688 125.953125 343.925781 C 129.503906 345.207031 132.777344 347 135.773438 349.304688 C 138.765625 351.609375 141.335938 354.3125 143.488281 357.421875 C 146.0625 361.0625 148.113281 365.09375 151.417969 368.191406 C 155.136719 371.671875 158.578125 371.980469 162.707031 369.070312 C 165.078125 367.328125 167.722656 366.261719 170.640625 365.878906 C 176.75 365.378906 182.761719 364.335938 188.679688 362.742188 C 202.214844 358.59375 215.96875 356.34375 230.191406 358.089844 C 242.242188 359.425781 254.046875 361.933594 265.601562 365.609375 C 275.265625 368.800781 285.003906 371.660156 295.308594 371.503906 C 298.890625 371.65625 302.332031 371.015625 305.621094 369.589844 C 306.136719 369.363281 306.609375 369.074219 307.046875 368.71875 C 307.480469 368.367188 307.859375 367.957031 308.183594 367.5 C 308.507812 367.039062 308.761719 366.546875 308.949219 366.015625 C 309.136719 365.488281 309.25 364.941406 309.289062 364.382812 C 309.46875 362.515625 309.628906 360.65625 309.664062 358.777344 C 309.628906 358.324219 309.636719 357.875 309.679688 357.421875 C 309.726562 356.96875 309.8125 356.527344 309.9375 356.089844 C 310.058594 355.652344 310.222656 355.230469 310.421875 354.820312 C 310.621094 354.414062 310.855469 354.027344 311.121094 353.660156 C 311.390625 353.292969 311.6875 352.953125 312.015625 352.640625 C 312.34375 352.328125 312.699219 352.042969 313.078125 351.792969 C 313.457031 351.542969 313.851562 351.328125 314.269531 351.148438 C 314.6875 350.964844 315.113281 350.824219 315.558594 350.71875 C 317.324219 350.128906 319.171875 349.792969 320.976562 349.308594 C 323.40625 348.652344 323.925781 347.863281 323.449219 345.386719 C 322.949219 343.417969 322.203125 341.550781 321.207031 339.78125 C 317.558594 332.710938 314.710938 325.332031 312.65625 317.640625 C 308.492188 300.730469 305.585938 283.53125 301.046875 266.699219 C 298.796875 258.347656 296.808594 249.925781 293.214844 242.023438 C 290.289062 235.578125 286.332031 230.257812 278.851562 228.511719 C 274.210938 227.429688 269.957031 224.644531 264.902344 225.457031 C 259.332031 223.074219 253.230469 224.0625 247.480469 222.753906 C 244.90625 222.164062 242.003906 222.628906 239.617188 221.683594 C 235.183594 219.921875 230.269531 220.238281 226.050781 217.679688 Z M 143.953125 142.621094 C 146.886719 144.753906 147.285156 144.769531 149.605469 142.710938 C 149.738281 142.5625 149.898438 142.449219 150.082031 142.367188 C 150.265625 142.289062 150.457031 142.25 150.660156 142.25 C 150.859375 142.25 151.050781 142.292969 151.234375 142.375 C 151.417969 142.457031 151.574219 142.574219 151.707031 142.722656 C 153.695312 144.207031 155.328125 146.011719 156.605469 148.136719 C 156.902344 148.578125 157.101562 149.058594 157.207031 149.582031 C 157.3125 150.101562 157.316406 150.625 157.214844 151.148438 C 157.117188 151.667969 156.921875 152.152344 156.632812 152.601562 C 156.347656 153.046875 155.984375 153.421875 155.546875 153.726562 C 154.542969 154.574219 153.414062 155.1875 152.15625 155.566406 C 150.902344 155.945312 149.621094 156.0625 148.316406 155.914062 C 147.691406 155.875 146.816406 155.421875 146.722656 156.679688 C 146.300781 160.84375 146.222656 165.019531 146.488281 169.199219 C 147.519531 177.3125 147.492188 185.421875 146.402344 193.527344 C 145.085938 201.238281 143.289062 208.785156 138.53125 215.234375 C 137.875 216.136719 138.289062 216.449219 138.894531 216.953125 C 140.414062 218.175781 141.792969 219.550781 143.023438 221.066406 C 147.722656 227.085938 152.304688 233.207031 157.191406 239.074219 C 161.832031 244.65625 167.125 249.472656 174.195312 251.996094 C 180.351562 254.144531 186.667969 254.828125 193.140625 254.046875 C 196.796875 253.652344 201 254.175781 203.777344 250.660156 C 204.011719 250.46875 204.277344 250.394531 204.574219 250.425781 C 208.425781 250.65625 211.097656 248.730469 213.40625 245.871094 C 219.65625 238.152344 221.039062 228.980469 221.320312 219.507812 C 221.398438 218.414062 221.242188 217.355469 220.851562 216.332031 C 220.460938 215.308594 219.875 214.414062 219.09375 213.652344 C 216.925781 211.636719 215.496094 209.195312 214.796875 206.320312 C 212.945312 198.667969 212.640625 190.953125 213.882812 183.175781 C 214.144531 181.574219 213.539062 181.128906 212.164062 181.476562 C 211.714844 181.644531 211.257812 181.679688 210.789062 181.578125 C 210.324219 181.476562 209.917969 181.257812 209.578125 180.921875 C 208.546875 179.964844 207.332031 179.371094 205.941406 179.144531 C 199.96875 177.851562 193.980469 176.609375 188.011719 175.277344 C 184.6875 174.679688 181.550781 173.546875 178.605469 171.886719 C 175.660156 170.222656 173.070312 168.125 170.835938 165.585938 C 169.496094 164.070312 168.292969 162.453125 167.230469 160.730469 C 166.933594 160.214844 166.664062 159.632812 167.253906 159.183594 C 167.84375 158.738281 168.351562 159.105469 168.765625 159.546875 C 169.378906 160.160156 169.957031 160.804688 170.496094 161.480469 C 171.714844 163.121094 173.085938 164.621094 174.613281 165.976562 C 176.140625 167.335938 177.789062 168.523438 179.5625 169.539062 C 181.332031 170.554688 183.191406 171.378906 185.132812 172.011719 C 187.078125 172.644531 189.0625 173.070312 191.09375 173.292969 C 197.003906 174.078125 202.941406 174.644531 208.855469 175.304688 C 214.9375 175.988281 220.898438 177.109375 227.066406 176.34375 C 232.832031 175.621094 238.675781 175.441406 244.3125 173.761719 C 244.9375 173.601562 245.535156 173.359375 246.101562 173.042969 C 246.667969 172.726562 247.179688 172.34375 247.648438 171.894531 C 248.113281 171.441406 248.515625 170.941406 248.851562 170.386719 C 249.183594 169.832031 249.445312 169.242188 249.628906 168.621094 C 251.746094 162.488281 250.53125 156.4375 249.664062 150.078125 C 249.0625 150.707031 248.375 151.234375 247.609375 151.65625 C 246.847656 152.074219 246.035156 152.371094 245.179688 152.546875 C 244.328125 152.722656 243.464844 152.765625 242.597656 152.675781 C 241.726562 152.589844 240.890625 152.375 240.089844 152.03125 C 235.867188 150.175781 230.941406 149.675781 227.996094 145.164062 C 227.070312 143.742188 227.164062 143.5 228.21875 142.871094 C 230.378906 141.53125 232.285156 139.898438 233.941406 137.96875 C 236.417969 134.960938 239.132812 132.179688 242.082031 129.632812 C 242.777344 129.074219 242.261719 122.679688 241.515625 122.226562 C 241.457031 122.191406 241.390625 122.164062 241.320312 122.148438 C 239.71875 121.851562 238.074219 121.164062 236.777344 122.894531 C 235.65625 124.382812 234.675781 123.574219 233.796875 122.566406 C 232.855469 121.484375 233.199219 120.550781 234.277344 119.859375 C 234.863281 119.464844 235.492188 119.160156 236.167969 118.945312 C 236.839844 118.726562 237.53125 118.609375 238.238281 118.585938 C 238.945312 118.566406 239.640625 118.640625 240.324219 118.816406 C 241.011719 118.988281 241.660156 119.253906 242.269531 119.609375 C 242.765625 119.859375 243.152344 120.402344 243.8125 120.25 C 244.882812 120 248.371094 115.664062 247.976562 114.738281 C 246.671875 111.671875 246.5625 108.0625 243.785156 105.660156 C 238.914062 101.445312 235.21875 96.117188 230.683594 91.578125 C 229.527344 90.351562 228.691406 88.933594 228.175781 87.324219 C 226.222656 81.863281 228.125 77.1875 233.109375 75.183594 C 236.46875 73.832031 236.480469 73.808594 234.667969 70.671875 C 234.429688 70.226562 234.152344 69.804688 233.839844 69.410156 C 229.714844 64.59375 225.714844 59.667969 221.132812 55.261719 C 220.167969 54.335938 219.46875 54.199219 218.386719 55.003906 C 215.964844 56.808594 213.472656 58.535156 210.996094 60.257812 C 210.355469 60.667969 209.816406 61.179688 209.375 61.800781 C 208.9375 62.421875 208.632812 63.101562 208.464844 63.84375 C 207.800781 66.648438 206.457031 69.082031 204.4375 71.140625 C 203.761719 71.839844 203.199219 72.644531 202.261719 73.804688 C 205.121094 73.488281 207.882812 73.871094 210.542969 74.964844 C 211.167969 75.214844 212.125 74.886719 212.347656 75.804688 C 212.59375 76.84375 211.28125 76.734375 210.90625 77.429688 C 213.25 78.914062 214.148438 81.472656 215.710938 83.523438 C 217.207031 85.507812 217.042969 85.96875 214.550781 86.535156 C 212.589844 86.984375 210.605469 87.320312 208.632812 87.707031 C 210.523438 87.65625 212.367188 87.402344 214.21875 87.222656 C 214.863281 87.160156 215.628906 87.222656 215.75 88.054688 C 215.851562 88.757812 215.171875 88.917969 214.667969 89.195312 C 214.496094 89.277344 214.335938 89.378906 214.1875 89.5 C 214.039062 89.617188 213.902344 89.75 213.785156 89.902344 C 213.667969 90.050781 213.566406 90.210938 213.480469 90.382812 C 213.398438 90.550781 213.335938 90.730469 213.292969 90.917969 C 213.25 91.101562 213.226562 91.289062 213.226562 91.480469 C 213.226562 91.671875 213.246094 91.859375 213.285156 92.046875 C 213.328125 92.230469 213.386719 92.410156 213.46875 92.582031 C 213.550781 92.757812 213.648438 92.917969 213.765625 93.066406 C 214.792969 94.207031 214.445312 94.910156 213.25 95.324219 C 211.144531 96.046875 208.996094 96.652344 206.855469 97.261719 C 206.214844 97.445312 205.1875 97.394531 205.484375 96.542969 C 206.007812 95.054688 204.496094 94.390625 204.511719 93.175781 C 204.511719 92.289062 203.929688 92.371094 203.300781 92.582031 C 201.289062 93.09375 199.425781 93.9375 197.714844 95.109375 C 195.308594 96.859375 192.695312 98.207031 189.878906 99.15625 C 188.242188 99.777344 186.390625 100.410156 185.800781 102.371094 C 184.203125 107.332031 182.089844 112.058594 179.464844 116.558594 C 176.835938 121.058594 173.757812 125.21875 170.222656 129.046875 C 167.605469 132.015625 165.101562 134.929688 165.773438 139.289062 C 165.761719 139.578125 165.71875 139.863281 165.652344 140.140625 C 165.070312 144.867188 164.824219 149.605469 164.90625 154.363281 C 165.523438 162.121094 164.121094 169.574219 162.753906 177.074219 C 162.601562 177.902344 162.429688 179.242188 161.132812 178.878906 C 160.039062 178.574219 160.410156 177.464844 160.652344 176.640625 C 162.21875 171.105469 162.046875 165.371094 162.488281 159.714844 C 162.84375 157.578125 162.933594 155.429688 162.765625 153.273438 C 161.382812 144.664062 158.496094 136.242188 159.53125 127.308594 C 159.015625 128.582031 158.5625 129.882812 158.179688 131.203125 C 157.964844 131.890625 157.738281 132.730469 156.804688 132.554688 C 155.941406 132.394531 155.890625 131.53125 155.828125 130.816406 C 155.789062 130.390625 155.921875 129.957031 155.925781 129.527344 C 156.046875 126.378906 156.378906 123.257812 156.921875 120.15625 C 153.660156 123.847656 150.097656 127.21875 146.234375 130.273438 C 146.027344 130.40625 145.835938 130.558594 145.660156 130.730469 C 145.488281 130.902344 145.332031 131.09375 145.199219 131.296875 C 145.0625 131.503906 144.953125 131.71875 144.863281 131.949219 C 144.773438 132.179688 144.710938 132.414062 144.671875 132.65625 C 144.632812 132.902344 144.621094 133.144531 144.636719 133.390625 C 144.648438 133.636719 144.6875 133.875 144.75 134.113281 C 144.816406 134.351562 144.902344 134.578125 145.015625 134.796875 C 145.128906 135.015625 145.261719 135.21875 145.417969 135.410156 C 146.164062 136.554688 147.054688 137.617188 147.691406 138.816406 C 147.882812 139.105469 148.023438 139.417969 148.113281 139.753906 C 148.207031 140.085938 148.246094 140.425781 148.234375 140.773438 C 148.21875 141.117188 148.15625 141.453125 148.035156 141.78125 C 147.917969 142.105469 147.753906 142.40625 147.542969 142.679688 C 146.554688 143.890625 145.425781 142.902344 143.953125 142.621094 Z M 51.894531 192.722656 L 52.421875 193.152344 C 52.640625 192.789062 52.890625 192.453125 53.179688 192.140625 C 56.875 188.800781 58.929688 184.226562 62.011719 180.414062 C 64.355469 177.527344 66.738281 174.628906 70.347656 173.421875 C 71.960938 172.894531 73.507812 172.21875 74.996094 171.398438 C 76.480469 170.578125 77.878906 169.625 79.1875 168.542969 C 80.492188 167.457031 81.6875 166.261719 82.769531 164.953125 C 83.855469 163.644531 84.804688 162.25 85.625 160.761719 C 85.941406 160.09375 86.382812 159.527344 86.949219 159.058594 C 87.519531 158.585938 88.15625 158.257812 88.871094 158.074219 C 89.996094 157.789062 91.042969 157.324219 92.007812 156.683594 C 92.976562 156.039062 93.808594 155.257812 94.507812 154.332031 C 96.765625 151.804688 99.347656 149.660156 102.914062 149.574219 C 103.546875 149.554688 104.167969 149.457031 104.773438 149.277344 C 105.382812 149.101562 105.957031 148.851562 106.5 148.527344 C 107.042969 148.203125 107.539062 147.820312 107.984375 147.371094 C 108.429688 146.921875 108.8125 146.421875 109.128906 145.875 C 111.023438 143.15625 112.847656 140.382812 114.71875 137.652344 C 115.78125 136.109375 116.957031 134.8125 119.167969 135.550781 C 120.308594 135.929688 121.03125 135.046875 121.734375 134.3125 C 122.484375 133.417969 123.382812 132.707031 124.429688 132.1875 C 125.476562 131.667969 126.582031 131.375 127.75 131.3125 C 128.671875 131.285156 129.582031 131.15625 130.476562 130.925781 C 131.367188 130.695312 132.226562 130.371094 133.050781 129.953125 C 133.871094 129.53125 134.636719 129.027344 135.351562 128.441406 C 136.0625 127.851562 136.699219 127.191406 137.265625 126.460938 C 138.617188 124.859375 140.132812 123.433594 141.816406 122.1875 C 143.695312 120.863281 145.0625 119.132812 145.917969 116.996094 C 146.40625 115.695312 147.136719 114.550781 148.117188 113.566406 C 149.097656 112.582031 150.234375 111.839844 151.535156 111.347656 C 153.847656 110.414062 155.839844 109.019531 157.511719 107.167969 C 158.15625 106.425781 158.914062 105.824219 159.78125 105.359375 C 160.648438 104.894531 161.570312 104.597656 162.542969 104.46875 C 163.703125 104.339844 164.796875 104.003906 165.832031 103.464844 C 166.863281 102.925781 167.765625 102.214844 168.535156 101.339844 C 169.734375 99.9375 171.195312 98.914062 172.925781 98.273438 C 174.261719 97.769531 175.4375 97.015625 176.453125 96.011719 C 177.464844 95.007812 178.234375 93.84375 178.757812 92.511719 C 179.585938 90.652344 180.6875 88.972656 182.054688 87.464844 C 183.425781 85.957031 184.996094 84.703125 186.765625 83.699219 C 190.582031 81.484375 194.109375 78.882812 197.347656 75.886719 C 201.644531 71.824219 206.171875 67.9375 207.441406 61.699219 C 207.757812 60.675781 208.382812 59.914062 209.320312 59.402344 C 213.273438 56.6875 217.394531 54.238281 220.457031 50.351562 C 222.121094 48.640625 223.515625 46.738281 224.648438 44.640625 C 225.269531 43.082031 226.160156 41.699219 227.324219 40.488281 C 228.484375 39.28125 229.832031 38.335938 231.363281 37.652344 C 232.351562 37.265625 233.226562 36.703125 233.984375 35.960938 C 234.746094 35.222656 235.335938 34.367188 235.753906 33.390625 C 236.917969 30.53125 238.683594 28.113281 241.058594 26.140625 C 242.296875 25.132812 243.390625 23.992188 244.34375 22.710938 C 244.976562 21.734375 245.726562 20.863281 246.601562 20.09375 C 247.476562 19.328125 248.4375 18.691406 249.488281 18.195312 C 250.539062 17.695312 251.640625 17.347656 252.785156 17.15625 C 253.933594 16.964844 255.085938 16.929688 256.242188 17.058594 C 258.328125 17.226562 260.398438 17.101562 262.453125 16.679688 C 264.503906 16.257812 266.457031 15.558594 268.308594 14.582031 C 269.429688 13.957031 270.609375 13.464844 271.84375 13.105469 C 273.078125 12.75 274.335938 12.53125 275.621094 12.457031 C 276.902344 12.386719 278.179688 12.457031 279.445312 12.671875 C 280.710938 12.886719 281.941406 13.242188 283.125 13.734375 C 283.421875 13.851562 283.753906 14.105469 284.054688 13.714844 C 283.542969 13.035156 282.953125 12.433594 282.285156 11.910156 C 281.617188 11.386719 280.890625 10.957031 280.109375 10.625 C 279.328125 10.292969 278.519531 10.066406 277.675781 9.949219 C 276.835938 9.832031 275.996094 9.824219 275.152344 9.929688 C 274.257812 10.027344 273.421875 9.847656 272.644531 9.386719 C 268.910156 7.308594 264.914062 7.699219 261.054688 8.46875 C 252.144531 10.246094 244.058594 14.292969 236.039062 18.378906 C 233.699219 19.640625 231.304688 20.785156 228.847656 21.804688 C 222.621094 24.234375 216.117188 26.253906 211.089844 30.910156 C 206.503906 35.164062 200.894531 37.945312 196.117188 41.882812 C 192.449219 44.90625 188.03125 46.933594 184.746094 50.457031 C 184.28125 50.957031 183.664062 51.285156 183.046875 50.6875 C 182.9375 50.585938 182.855469 50.464844 182.800781 50.324219 C 182.746094 50.183594 182.726562 50.042969 182.734375 49.890625 C 182.742188 49.742188 182.78125 49.601562 182.855469 49.472656 C 182.925781 49.339844 183.019531 49.230469 183.140625 49.140625 C 186.367188 46.074219 188.953125 42.226562 193.175781 40.378906 C 198.519531 38.03125 202.855469 34.175781 207.671875 31.046875 C 208.542969 30.414062 209.378906 29.730469 210.171875 29 C 207.722656 29.578125 205.519531 30.660156 203.566406 32.246094 C 202.59375 32.90625 201.019531 33.53125 201.019531 31.660156 C 201.019531 28.886719 199.902344 30.089844 198.773438 30.710938 C 197.242188 31.691406 195.882812 32.871094 194.6875 34.242188 C 193.496094 35.617188 192.519531 37.128906 191.761719 38.78125 C 191.625 39.121094 191.4375 39.429688 191.199219 39.710938 C 190.960938 39.988281 190.6875 40.222656 190.371094 40.410156 C 190.054688 40.597656 189.71875 40.726562 189.359375 40.800781 C 189 40.878906 188.636719 40.894531 188.273438 40.847656 C 186.671875 40.550781 186.609375 39.074219 186.347656 37.804688 C 185.988281 36.03125 185.054688 35.554688 183.386719 36.296875 C 181.679688 37.238281 180.46875 38.617188 179.746094 40.425781 C 178.511719 42.75 178.050781 42.851562 176.042969 41.292969 C 175.378906 40.773438 174.703125 39.914062 173.785156 40.507812 C 172.828125 41.125 173.171875 42.210938 173.40625 43.085938 C 173.824219 44.570312 174.566406 45.875 175.625 47 C 176.496094 47.960938 177.355469 48.9375 178.125 49.976562 C 178.570312 50.425781 178.867188 50.957031 179.019531 51.566406 C 179.167969 52.179688 179.152344 52.789062 178.96875 53.390625 C 176.847656 58.515625 175.964844 64.132812 173.238281 68.976562 C 171.949219 71.234375 170.488281 73.378906 168.859375 75.402344 C 167.230469 77.429688 165.449219 79.316406 163.523438 81.058594 C 161.59375 82.800781 159.539062 84.382812 157.359375 85.800781 C 155.179688 87.21875 152.902344 88.453125 150.523438 89.507812 C 144.9375 92.128906 138.507812 92.757812 133.535156 96.792969 C 133.34375 96.90625 133.144531 96.976562 132.925781 97.003906 C 131.148438 97.472656 130.136719 96.71875 130.09375 94.859375 C 130.152344 92.988281 130.785156 91.335938 131.988281 89.90625 C 133.328125 88.171875 134.914062 86.714844 136.757812 85.53125 C 138.597656 84.347656 140.582031 83.507812 142.714844 83.007812 C 152.777344 80.144531 160.664062 74.035156 167.710938 66.628906 C 169.890625 64.5 171.292969 61.941406 171.917969 58.957031 C 172.054688 58.582031 172.125 58.191406 172.128906 57.792969 C 172.136719 57.390625 172.078125 57 171.953125 56.621094 C 171.828125 56.238281 171.648438 55.886719 171.40625 55.570312 C 171.167969 55.25 170.882812 54.976562 170.550781 54.75 C 170.316406 54.609375 170.113281 54.429688 169.945312 54.214844 C 169.777344 54 169.652344 53.757812 169.574219 53.496094 C 169.496094 53.234375 169.464844 52.964844 169.488281 52.691406 C 169.507812 52.417969 169.578125 52.15625 169.699219 51.910156 C 169.820312 51.644531 169.890625 51.363281 169.902344 51.070312 C 169.914062 50.777344 169.871094 50.492188 169.773438 50.214844 C 169.675781 49.9375 169.53125 49.691406 169.335938 49.472656 C 169.140625 49.253906 168.910156 49.078125 168.648438 48.949219 C 168.382812 48.785156 168.097656 48.675781 167.792969 48.613281 C 167.488281 48.554688 167.183594 48.550781 166.875 48.605469 C 166.570312 48.65625 166.28125 48.761719 166.011719 48.917969 C 165.742188 49.074219 165.511719 49.273438 165.316406 49.511719 C 164.425781 50.328125 163.726562 51.28125 163.222656 52.375 C 162.71875 53.472656 162.449219 54.621094 162.410156 55.824219 C 162.492188 57.917969 162.414062 60.003906 162.179688 62.082031 C 160.796875 70.078125 155.773438 74.949219 148.28125 77.367188 C 144.707031 78.308594 141.378906 79.800781 138.296875 81.84375 C 136.871094 82.921875 135.261719 83.492188 133.476562 83.554688 C 131.652344 83.605469 129.910156 83.445312 129.128906 81.5 C 128.992188 81.082031 128.929688 80.65625 128.9375 80.214844 C 128.945312 79.777344 129.027344 79.351562 129.179688 78.9375 C 129.332031 78.527344 129.546875 78.152344 129.824219 77.8125 C 130.105469 77.472656 130.433594 77.191406 130.808594 76.960938 C 135.855469 72.289062 141.371094 68.261719 147.355469 64.878906 C 150.402344 63.527344 153.253906 61.851562 155.914062 59.847656 C 156.746094 59.140625 158.351562 58.179688 157.554688 57.210938 C 156.683594 56.148438 155.6875 57.761719 154.804688 58.339844 C 154.507812 58.546875 154.242188 58.789062 154.003906 59.0625 C 153.21875 59.9375 152.351562 60.71875 151.398438 61.40625 C 150.449219 62.097656 149.433594 62.679688 148.359375 63.148438 C 147.285156 63.621094 146.171875 63.976562 145.019531 64.210938 C 143.871094 64.445312 142.707031 64.554688 141.53125 64.539062 C 140.390625 64.496094 139.308594 64.722656 138.28125 65.226562 C 137.253906 65.730469 136.410156 66.445312 135.746094 67.378906 C 135.101562 68.253906 134.339844 69.015625 133.460938 69.664062 C 133.269531 69.8125 133.0625 69.941406 132.84375 70.046875 C 132.625 70.15625 132.394531 70.238281 132.160156 70.300781 C 131.921875 70.363281 131.683594 70.402344 131.4375 70.414062 C 131.195312 70.429688 130.953125 70.417969 130.710938 70.382812 C 130.46875 70.347656 130.234375 70.289062 130.003906 70.207031 C 129.773438 70.121094 129.554688 70.019531 129.34375 69.890625 C 129.136719 69.765625 128.941406 69.621094 128.761719 69.453125 C 128.582031 69.289062 128.421875 69.105469 128.277344 68.910156 C 127.136719 67.5 127.453125 65.933594 129.164062 64.398438 C 130.992188 63 133.050781 62.230469 135.347656 62.082031 C 135.773438 62.046875 136.191406 61.957031 136.59375 61.804688 C 136.992188 61.652344 137.367188 61.449219 137.710938 61.191406 C 138.054688 60.933594 138.359375 60.636719 138.617188 60.292969 C 138.878906 59.953125 139.085938 59.582031 139.242188 59.179688 C 139.4375 58.652344 139.675781 58.144531 139.957031 57.660156 C 140.238281 57.175781 140.5625 56.714844 140.921875 56.285156 C 141.285156 55.855469 141.679688 55.457031 142.109375 55.097656 C 142.539062 54.734375 143 54.414062 143.484375 54.132812 C 143.972656 53.851562 144.476562 53.613281 145.007812 53.417969 C 145.535156 53.226562 146.074219 53.078125 146.625 52.980469 C 147.179688 52.878906 147.738281 52.828125 148.300781 52.824219 C 148.859375 52.824219 149.417969 52.871094 149.972656 52.964844 C 151.117188 53.105469 152.246094 53.320312 153.359375 53.609375 C 156.167969 54.265625 156.632812 54.085938 157.945312 51.519531 C 158.355469 50.753906 158.675781 49.949219 158.90625 49.113281 C 159.949219 45.132812 158.292969 42.332031 154.566406 41.628906 C 153.398438 41.488281 152.265625 41.628906 151.167969 42.050781 C 149.230469 42.632812 148.214844 42.167969 148.265625 40.023438 C 148.300781 38.535156 147.515625 37.835938 146.089844 37.570312 C 145.300781 37.472656 144.515625 37.476562 143.730469 37.582031 C 142.945312 37.6875 142.1875 37.890625 141.453125 38.191406 C 140.71875 38.492188 140.035156 38.882812 139.40625 39.359375 C 138.773438 39.835938 138.210938 40.386719 137.71875 41.011719 C 136.082031 43.652344 137.390625 45.8125 138.867188 47.953125 C 139.75 49.105469 140.460938 50.351562 141.007812 51.695312 C 141.191406 52.105469 141.238281 52.53125 141.144531 52.96875 C 141.050781 53.410156 140.835938 53.777344 140.5 54.078125 C 139.757812 54.757812 139.1875 54.105469 138.5625 53.8125 C 137.988281 53.5 137.375 53.289062 136.730469 53.179688 C 136.085938 53.070312 135.4375 53.0625 134.789062 53.167969 C 134.144531 53.269531 133.53125 53.46875 132.949219 53.773438 C 132.367188 54.074219 131.851562 54.464844 131.398438 54.9375 C 129.523438 56.6875 128.140625 58.769531 127.25 61.179688 C 126.222656 64.292969 125.824219 67.488281 126.046875 70.761719 C 126.253906 73.011719 126.109375 75.234375 125.617188 77.4375 C 125.09375 79.148438 124.199219 79.453125 122.730469 78.445312 C 122.011719 77.953125 121.375 77.359375 120.65625 76.882812 C 118.894531 75.695312 117.839844 76.125 117.5 78.242188 C 117.296875 79.402344 117.363281 80.546875 117.699219 81.671875 C 118.035156 82.800781 118.609375 83.792969 119.414062 84.648438 C 120.230469 85.558594 121.167969 86.367188 121.96875 87.292969 C 124.8125 90.589844 125.089844 94.921875 122.316406 97.15625 C 118.46875 99.949219 115.40625 103.429688 113.121094 107.597656 C 112.558594 108.726562 111.550781 109.914062 110.011719 109.253906 C 108.546875 108.628906 108.375 107.199219 108.472656 105.75 C 108.5625 104.949219 108.824219 104.210938 109.253906 103.53125 C 110.40625 101.566406 111.941406 99.972656 113.871094 98.757812 C 116.027344 97.421875 117.964844 95.820312 119.683594 93.953125 C 120.640625 92.828125 120.898438 91.777344 119.503906 90.886719 C 117.59375 89.417969 116.046875 87.640625 114.859375 85.542969 C 113.453125 83.535156 112.175781 83.476562 110.585938 85.398438 C 110.007812 86.050781 109.539062 86.769531 109.167969 87.558594 C 108.796875 88.347656 108.546875 89.171875 108.414062 90.03125 C 108.28125 90.890625 108.269531 91.75 108.382812 92.613281 C 108.492188 93.476562 108.722656 94.304688 109.074219 95.101562 C 110.222656 98.183594 109.285156 99.410156 106.054688 100.058594 C 104.074219 100.457031 101.910156 100.28125 100.085938 101.519531 C 100.546875 102.230469 101.253906 102.257812 101.816406 102.535156 C 104.878906 104.050781 105.390625 106.597656 103.078125 109.1875 C 102.3125 110.046875 101.457031 110.828125 100.628906 111.632812 C 98.859375 113.363281 97.085938 115.085938 95.304688 116.808594 C 95.910156 116.847656 96.496094 116.757812 97.058594 116.535156 C 97.625 116.316406 98.113281 115.984375 98.53125 115.546875 C 100.050781 114.214844 101.671875 113.023438 103.402344 111.980469 C 103.917969 111.722656 104.492188 111.390625 104.996094 111.882812 C 105.582031 112.449219 105.289062 113.085938 104.902344 113.636719 C 104.574219 114.109375 104.179688 114.539062 103.835938 115 C 101.582031 117.984375 99.148438 120.824219 97.050781 123.949219 C 93.683594 128.960938 90.617188 134.179688 86.894531 138.960938 C 83.4375 143.398438 79.421875 147.351562 75.9375 151.765625 C 69.761719 159.597656 64.777344 168.222656 59.246094 176.476562 C 56.023438 181.542969 53.574219 186.957031 51.894531 192.722656 Z M 123.878906 76.714844 C 124.167969 74.648438 124.242188 72.574219 124.101562 70.492188 C 123.925781 67.878906 124.183594 65.3125 124.882812 62.789062 C 125.582031 60.261719 126.683594 57.929688 128.183594 55.78125 C 128.921875 54.699219 129.824219 53.777344 130.886719 53.007812 C 131.949219 52.242188 133.109375 51.679688 134.367188 51.320312 C 135.925781 50.910156 137.378906 51.699219 139.203125 51.792969 C 138.035156 49.933594 136.941406 48.414062 136.082031 46.773438 C 135.726562 46.195312 135.472656 45.578125 135.320312 44.921875 C 135.164062 44.261719 135.121094 43.59375 135.1875 42.921875 C 135.253906 42.246094 135.421875 41.601562 135.699219 40.984375 C 135.976562 40.367188 136.34375 39.808594 136.804688 39.3125 C 137.375 38.652344 138.015625 38.074219 138.726562 37.570312 C 139.4375 37.070312 140.199219 36.664062 141.011719 36.347656 C 141.824219 36.035156 142.664062 35.820312 143.527344 35.710938 C 144.390625 35.605469 145.253906 35.601562 146.117188 35.703125 C 147.660156 35.851562 149.324219 36.402344 149.679688 38.070312 C 150.109375 40.101562 151.175781 40.089844 152.863281 40 C 159.042969 39.683594 162.210938 43.738281 160.613281 49.742188 C 160.253906 50.996094 159.726562 52.175781 159.03125 53.28125 C 158.761719 53.734375 158.3125 54.109375 158.695312 54.824219 C 160.171875 57.605469 159.957031 58.792969 157.59375 60.863281 C 155.421875 62.671875 153.046875 64.152344 150.464844 65.308594 C 143.722656 68.839844 137.558594 73.1875 131.96875 78.347656 C 131.183594 79.023438 130.425781 79.90625 131.066406 80.964844 C 131.644531 81.914062 132.703125 81.933594 133.78125 81.722656 C 135.230469 81.480469 136.550781 80.933594 137.746094 80.082031 C 140.601562 78.0625 143.726562 76.640625 147.121094 75.8125 C 149.273438 75.261719 151.265625 74.359375 153.097656 73.097656 C 154.929688 71.839844 156.488281 70.304688 157.773438 68.492188 C 158.84375 66.847656 159.613281 65.070312 160.085938 63.167969 C 160.558594 61.261719 160.703125 59.332031 160.519531 57.378906 C 160.390625 55.660156 160.632812 54 161.242188 52.390625 C 161.855469 50.78125 162.78125 49.375 164.019531 48.179688 C 166.074219 46.214844 170.304688 46.308594 170.898438 48.683594 C 171.652344 51.675781 173.085938 54.351562 173.855469 57.28125 C 173.878906 57.570312 173.863281 57.855469 173.804688 58.136719 C 173.722656 59.554688 173.417969 60.921875 172.890625 62.242188 C 172.363281 63.558594 171.636719 64.757812 170.714844 65.835938 C 167.6875 69.628906 164.242188 72.992188 160.378906 75.921875 C 156.511719 78.855469 152.347656 81.269531 147.882812 83.160156 C 144.792969 84.148438 141.761719 85.289062 138.789062 86.589844 C 137.261719 87.277344 135.917969 88.234375 134.765625 89.453125 C 133.613281 90.671875 132.734375 92.066406 132.132812 93.632812 C 131.980469 94.082031 131.675781 94.679688 132.152344 95.054688 C 132.660156 95.453125 133.113281 94.925781 133.472656 94.644531 C 136.511719 92.503906 139.84375 91.011719 143.460938 90.167969 C 146.953125 89.195312 150.265625 87.789062 153.390625 85.953125 C 161.921875 80.777344 169.269531 74.410156 173.0625 64.835938 C 174.324219 61.628906 174.941406 58.160156 176.460938 55.050781 C 176.71875 54.640625 176.898438 54.195312 176.992188 53.71875 C 177.089844 53.238281 177.101562 52.761719 177.023438 52.28125 C 176.945312 51.800781 176.789062 51.347656 176.546875 50.925781 C 176.308594 50.5 176 50.132812 175.628906 49.820312 C 174.53125 48.867188 173.617188 47.757812 172.890625 46.496094 C 172.160156 45.234375 171.65625 43.890625 171.378906 42.460938 C 171.21875 41.777344 171.253906 41.097656 171.484375 40.433594 C 171.714844 39.769531 172.105469 39.214844 172.65625 38.773438 C 172.925781 38.582031 173.21875 38.441406 173.539062 38.351562 C 173.855469 38.265625 174.179688 38.234375 174.511719 38.261719 C 174.839844 38.292969 175.15625 38.375 175.453125 38.515625 C 175.753906 38.660156 176.019531 38.847656 176.25 39.082031 C 177.511719 40.066406 178.074219 39.605469 178.703125 38.417969 C 179.136719 37.535156 179.707031 36.75 180.414062 36.066406 C 181.121094 35.382812 181.925781 34.839844 182.824219 34.4375 C 183.082031 34.300781 183.351562 34.199219 183.636719 34.128906 C 183.917969 34.054688 184.203125 34.015625 184.496094 34.011719 C 184.789062 34.007812 185.074219 34.035156 185.359375 34.097656 C 185.644531 34.160156 185.917969 34.253906 186.179688 34.382812 C 186.441406 34.507812 186.6875 34.664062 186.914062 34.847656 C 187.140625 35.027344 187.34375 35.234375 187.519531 35.464844 C 187.699219 35.699219 187.847656 35.945312 187.96875 36.210938 C 188.089844 36.476562 188.175781 36.753906 188.234375 37.039062 C 188.414062 37.621094 188.039062 38.605469 188.8125 38.730469 C 189.691406 38.875 190.160156 37.949219 190.5 37.269531 C 191.972656 34.171875 194.105469 31.628906 196.902344 29.644531 C 196.621094 29.4375 196.320312 29.265625 196 29.128906 C 193.816406 28.585938 191.761719 27.742188 189.828125 26.589844 C 187.898438 25.441406 186.171875 24.035156 184.65625 22.378906 C 183.171875 20.445312 181.320312 18.980469 179.101562 17.984375 C 175.152344 16.601562 171.761719 14.371094 168.921875 11.296875 C 161.683594 4.082031 153.359375 1.703125 143.257812 4.625 C 131.558594 8.046875 120.652344 13.164062 110.542969 19.976562 C 103.785156 24.4375 98.066406 29.972656 93.386719 36.582031 C 91.402344 39.398438 89.667969 42.363281 88.183594 45.476562 C 86.699219 48.589844 85.488281 51.808594 84.550781 55.125 C 83.613281 58.445312 82.960938 61.820312 82.59375 65.25 C 82.226562 68.675781 82.152344 72.113281 82.367188 75.554688 C 82.394531 78.898438 82.957031 82.148438 84.066406 85.304688 C 85.171875 88.457031 86.761719 91.347656 88.828125 93.976562 C 92.316406 98.253906 95.351562 102.757812 96.039062 108.480469 C 96.238281 110.160156 95.292969 111.820312 96.03125 113.53125 C 96.195312 113.445312 96.347656 113.347656 96.496094 113.238281 C 97.726562 112.023438 98.953125 110.800781 100.179688 109.578125 C 103.898438 105.859375 103.859375 105.636719 99.097656 103.394531 C 99.03125 103.367188 98.960938 103.34375 98.898438 103.3125 C 98.234375 102.984375 97.5625 102.589844 97.496094 101.792969 C 97.421875 100.867188 98.128906 100.433594 98.851562 100.03125 C 100.757812 99.128906 102.765625 98.601562 104.871094 98.445312 C 107.808594 98.011719 108.183594 97.628906 107.160156 94.871094 C 106.824219 93.96875 106.621094 93.039062 106.542969 92.082031 C 106.464844 91.125 106.519531 90.171875 106.707031 89.230469 C 106.894531 88.285156 107.207031 87.386719 107.640625 86.53125 C 108.078125 85.675781 108.625 84.894531 109.277344 84.1875 C 111.5625 81.300781 114.25 81.460938 116.292969 84.527344 C 117.578125 86.902344 119.378906 88.785156 121.691406 90.179688 C 120.960938 88.800781 119.988281 87.621094 118.777344 86.640625 C 118.167969 86.074219 117.636719 85.441406 117.1875 84.742188 C 116.734375 84.039062 116.382812 83.292969 116.125 82.5 C 115.867188 81.707031 115.710938 80.898438 115.660156 80.066406 C 115.613281 79.234375 115.667969 78.410156 115.828125 77.59375 C 116.449219 74.578125 118.605469 73.585938 121.253906 75.109375 C 122.101562 75.59375 122.675781 76.535156 123.878906 76.714844 Z M 282.066406 15.472656 C 280.664062 14.851562 279.199219 14.484375 277.671875 14.371094 C 276.144531 14.257812 274.640625 14.40625 273.164062 14.8125 C 270.945312 15.46875 268.808594 16.320312 266.753906 17.375 C 264.480469 18.597656 262.054688 19.160156 259.476562 19.058594 C 257.675781 18.960938 255.871094 18.984375 254.070312 19.058594 C 252.746094 19.035156 251.488281 19.304688 250.289062 19.859375 C 249.089844 20.414062 248.070312 21.207031 247.234375 22.230469 C 245.230469 24.699219 243.050781 26.996094 240.695312 29.128906 C 239.480469 30.199219 238.589844 31.5 238.027344 33.019531 C 237.507812 34.546875 236.691406 35.894531 235.578125 37.058594 C 234.464844 38.226562 233.160156 39.105469 231.660156 39.695312 C 230.585938 40.148438 229.632812 40.789062 228.800781 41.609375 C 227.972656 42.429688 227.324219 43.375 226.855469 44.445312 C 225.894531 46.816406 224.5 48.894531 222.675781 50.683594 C 222.085938 51.226562 221.691406 51.855469 222.640625 52.40625 C 227.714844 55.34375 230.519531 61.074219 236.148438 63.355469 C 236.980469 63.804688 237.703125 64.390625 238.3125 65.117188 C 243.589844 70.335938 245.636719 76.851562 245.914062 84.089844 C 246.066406 88.117188 246.144531 92.113281 248.726562 95.632812 C 249.488281 96.679688 249.992188 97.835938 250.234375 99.105469 C 250.480469 100.378906 250.441406 101.640625 250.125 102.894531 C 249.804688 104.3125 249.808594 105.730469 250.140625 107.148438 C 250.46875 108.566406 251.089844 109.839844 252.003906 110.972656 C 253.367188 112.820312 254.382812 114.84375 255.054688 117.039062 C 255.722656 119.238281 256.007812 121.484375 255.910156 123.777344 C 255.4375 129.105469 258.113281 133.441406 259.722656 138.273438 C 261.292969 133.613281 265.15625 130.652344 267.691406 126.75 C 269.523438 124.34375 270.636719 121.636719 271.027344 118.632812 C 271.128906 117.074219 271.558594 115.605469 272.3125 114.234375 C 273.0625 112.863281 274.074219 111.714844 275.335938 110.792969 C 277.195312 109.28125 278.753906 107.507812 280.007812 105.464844 C 281.261719 103.421875 282.144531 101.230469 282.652344 98.890625 C 283.734375 93.980469 284.207031 88.84375 286.707031 84.371094 C 289.660156 79.078125 289.964844 73.398438 289.679688 67.597656 C 289.546875 65.003906 289.65625 62.425781 290.015625 59.855469 C 291.304688 50.671875 290.820312 41.863281 285.003906 34.058594 C 284.117188 32.855469 283.484375 31.527344 283.109375 30.078125 C 282.734375 28.628906 282.644531 27.160156 282.839844 25.675781 C 283.007812 24.371094 282.921875 23.085938 282.574219 21.816406 C 282.230469 20.546875 281.65625 19.394531 280.847656 18.355469 C 279.460938 16.554688 279.722656 16.066406 282.066406 15.472656 Z M 158.484375 122.214844 L 158.785156 122.316406 C 159.507812 119.757812 160.226562 117.203125 160.949219 114.648438 C 161.445312 112.878906 163.015625 113.0625 164.125 113.316406 C 165.570312 113.640625 164.886719 114.886719 164.558594 115.8125 C 163.902344 117.183594 163.472656 118.625 163.265625 120.128906 C 163.183594 122.265625 165.050781 122.21875 166.234375 122.65625 C 167.265625 123.03125 167.261719 121.675781 167.460938 121.039062 C 169.109375 115.84375 171.542969 111.046875 174.769531 106.648438 C 175.980469 105.113281 176.980469 103.449219 177.773438 101.660156 C 178.015625 101.058594 178.347656 100.339844 179.171875 100.683594 C 179.96875 101.015625 179.714844 101.769531 179.519531 102.378906 C 178.445312 106.195312 177.152344 109.9375 175.640625 113.605469 C 173.636719 118.003906 171.535156 122.359375 169.308594 127.097656 C 172.566406 123.609375 175.414062 119.816406 177.847656 115.710938 C 180.28125 111.609375 182.246094 107.289062 183.742188 102.757812 C 184.324219 101.34375 184.613281 99.867188 184.609375 98.332031 C 184.429688 95.347656 183.886719 92.359375 185.398438 89.480469 C 185.703125 88.441406 185.839844 87.378906 185.808594 86.296875 C 183.476562 88.15625 181.652344 90.421875 180.332031 93.097656 C 179.722656 94.667969 178.820312 96.046875 177.625 97.234375 C 176.429688 98.417969 175.042969 99.308594 173.464844 99.90625 C 171.949219 100.46875 170.648438 101.355469 169.574219 102.566406 C 168.746094 103.53125 167.769531 104.316406 166.652344 104.925781 C 165.535156 105.53125 164.34375 105.921875 163.085938 106.09375 C 161.390625 106.34375 159.945312 107.089844 158.757812 108.324219 C 156.792969 110.390625 154.5 111.972656 151.871094 113.074219 C 150.910156 113.441406 150.066406 113.992188 149.34375 114.71875 C 148.617188 115.449219 148.074219 116.292969 147.707031 117.253906 C 146.671875 119.875 145.015625 122.011719 142.734375 123.664062 C 141.101562 124.972656 139.601562 126.417969 138.226562 127.996094 C 137.160156 129.339844 135.878906 130.429688 134.378906 131.265625 C 132.878906 132.101562 131.277344 132.617188 129.574219 132.8125 C 128.265625 132.804688 127.011719 133.066406 125.816406 133.601562 C 124.621094 134.132812 123.589844 134.890625 122.722656 135.871094 C 121.863281 136.851562 120.789062 137.835938 119.371094 137.414062 C 117.6875 136.917969 116.820312 137.675781 115.988281 138.929688 C 114.238281 141.574219 112.363281 144.136719 110.65625 146.808594 C 110.246094 147.492188 109.757812 148.113281 109.195312 148.675781 C 108.632812 149.238281 108.007812 149.722656 107.320312 150.128906 C 106.636719 150.535156 105.914062 150.851562 105.148438 151.078125 C 104.386719 151.304688 103.605469 151.433594 102.808594 151.460938 C 101.691406 151.410156 100.679688 151.710938 99.773438 152.363281 C 100.417969 153.007812 100.808594 153.78125 100.945312 154.679688 C 101.277344 157.203125 102.023438 159.597656 103.183594 161.863281 C 104.304688 163.984375 105.089844 166.21875 105.539062 168.574219 C 106.175781 173.082031 108.210938 177.429688 107.34375 182.136719 C 107.011719 183.253906 106.898438 184.390625 107.007812 185.550781 C 107.113281 186.710938 107.433594 187.808594 107.96875 188.84375 C 108.089844 189.003906 108.175781 189.183594 108.222656 189.382812 C 108.269531 189.582031 108.269531 189.78125 108.230469 189.980469 C 108.1875 190.179688 108.109375 190.363281 107.988281 190.527344 C 107.867188 190.691406 107.714844 190.824219 107.539062 190.921875 C 104.949219 192.972656 103.035156 195.527344 101.785156 198.585938 C 98.886719 203.882812 96.992188 209.515625 96.105469 215.492188 C 95.574219 219.980469 93.417969 223.96875 91.417969 227.980469 C 88.734375 233.382812 86.351562 244.214844 86.910156 248.441406 C 87.90625 247.339844 88.847656 246.355469 89.726562 245.316406 C 92 242.214844 94.898438 239.902344 98.425781 238.382812 C 102.289062 236.929688 105.511719 234.59375 108.089844 231.371094 C 109.21875 230.046875 110.515625 228.917969 111.980469 227.984375 C 113.445312 227.046875 115.011719 226.34375 116.6875 225.875 C 120.472656 224.757812 124.34375 223.960938 127.441406 220.894531 C 130.09375 218.273438 133.09375 215.917969 135.734375 213.261719 C 138.886719 209.863281 141.039062 205.914062 142.1875 201.417969 C 143.292969 197.292969 143.941406 193.097656 144.132812 188.835938 C 144.324219 184.570312 144.058594 180.332031 143.328125 176.128906 C 142.582031 169.960938 141.210938 163.9375 139.21875 158.050781 C 139.019531 157.289062 138.6875 156.589844 138.21875 155.953125 C 137.75 155.316406 137.183594 154.792969 136.515625 154.371094 C 136.902344 155.816406 137.183594 156.910156 137.398438 158.03125 C 138.058594 161.457031 137.679688 165.125 139.632812 168.285156 C 139.960938 168.816406 140.21875 169.71875 139.339844 169.882812 C 139.128906 169.949219 138.910156 169.972656 138.691406 169.949219 C 138.472656 169.925781 138.265625 169.859375 138.074219 169.75 C 137.878906 169.640625 137.71875 169.496094 137.585938 169.316406 C 137.453125 169.140625 137.359375 168.945312 137.308594 168.726562 C 136.242188 163.9375 133.933594 159.542969 132.882812 154.742188 C 132.046875 151.492188 131.917969 148.214844 132.488281 144.90625 C 132.789062 143.398438 133.234375 141.933594 133.828125 140.515625 C 134.417969 139.097656 135.148438 137.753906 136.007812 136.480469 C 136.871094 135.207031 137.851562 134.035156 138.949219 132.960938 C 140.050781 131.882812 141.242188 130.929688 142.53125 130.09375 C 148.578125 125.96875 154.464844 121.707031 157.855469 114.917969 C 158.101562 114.429688 158.484375 114.058594 159.0625 114.316406 C 159.589844 114.554688 159.671875 115.066406 159.578125 115.613281 C 159.207031 117.816406 158.839844 120.015625 158.484375 122.214844 Z M 224.433594 223.617188 C 224.363281 223.777344 224.304688 223.941406 224.265625 224.113281 C 223.480469 235.476562 220.042969 245.445312 209.65625 251.722656 C 208.910156 252.175781 208.898438 252.777344 209.035156 253.578125 C 209.5625 256.210938 209.699219 258.863281 209.445312 261.535156 C 209.351562 262.296875 209.242188 263.277344 208.199219 263.269531 C 207.289062 263.269531 207.199219 262.398438 207.0625 261.679688 C 206.644531 259.488281 206.183594 257.304688 205.800781 255.109375 C 205.550781 253.707031 205.015625 253.125 203.472656 253.667969 C 198.28125 255.296875 192.96875 256.035156 187.527344 255.886719 C 184.710938 255.933594 181.921875 255.671875 179.160156 255.09375 C 176.398438 254.519531 173.738281 253.648438 171.171875 252.480469 C 168.605469 251.3125 166.199219 249.878906 163.953125 248.171875 C 161.707031 246.46875 159.671875 244.539062 157.855469 242.382812 C 153.777344 237.804688 150.164062 232.863281 146.460938 227.988281 C 143.761719 224.222656 140.699219 220.789062 137.265625 217.683594 C 136.328125 216.882812 135.355469 216.457031 134.363281 217.234375 C 131.988281 219.097656 129.699219 221.082031 127.390625 223.03125 C 126.992188 223.371094 126.617188 223.789062 127.308594 224.222656 C 130.507812 226.203125 131.839844 229.574219 133.367188 232.714844 C 135.710938 237.425781 138.640625 241.730469 142.160156 245.636719 C 145.679688 249.542969 149.660156 252.902344 154.101562 255.71875 C 161.769531 260.78125 170.460938 263.449219 179.207031 265.90625 C 184.609375 267.164062 189.914062 268.738281 195.125 270.628906 C 197.132812 271.40625 198.90625 272.546875 200.449219 274.050781 C 201.992188 275.554688 203.179688 277.300781 204.015625 279.285156 C 204.566406 280.574219 205.128906 281.859375 205.800781 283.414062 C 206.773438 281.449219 207.546875 279.757812 208.429688 278.121094 C 209.6875 275.214844 211.550781 272.773438 214.019531 270.789062 C 220.691406 266.34375 223.601562 259.6875 225.464844 252.347656 C 225.808594 250.992188 226.554688 249.476562 225.890625 248.140625 C 225.222656 246.648438 225.113281 245.117188 225.558594 243.542969 C 226.1875 240.226562 226.40625 236.882812 226.21875 233.511719 C 226.027344 230.140625 225.433594 226.84375 224.433594 223.617188 Z M 96.921875 154.582031 C 94.660156 156.414062 93.480469 158.667969 91.101562 159.195312 C 90.101562 159.40625 89.195312 159.820312 88.382812 160.433594 C 87.566406 161.046875 86.921875 161.804688 86.445312 162.707031 C 85.664062 164.09375 84.765625 165.398438 83.75 166.621094 C 82.734375 167.839844 81.613281 168.960938 80.390625 169.976562 C 79.167969 170.996094 77.867188 171.894531 76.480469 172.671875 C 75.09375 173.449219 73.648438 174.097656 72.144531 174.613281 C 69.183594 175.734375 66.703125 177.523438 64.710938 179.984375 C 61.644531 183.453125 59.480469 187.574219 56.621094 191.195312 C 56.277344 191.632812 55.679688 191.96875 56.003906 192.664062 C 56.324219 193.359375 56.976562 193.132812 57.527344 193.1875 C 59.382812 193.152344 61.070312 193.671875 62.585938 194.746094 C 63.757812 195.761719 64.273438 197.765625 66.007812 197.8125 C 67.574219 197.847656 68.824219 196.472656 70.289062 195.882812 C 70.554688 195.773438 70.816406 195.652344 71.078125 195.53125 C 71.277344 195.394531 71.492188 195.277344 71.71875 195.183594 C 71.945312 195.085938 72.179688 195.015625 72.417969 194.972656 C 72.660156 194.925781 72.902344 194.90625 73.148438 194.914062 C 73.394531 194.917969 73.632812 194.949219 73.871094 195.003906 C 74.113281 195.0625 74.339844 195.140625 74.5625 195.246094 C 74.785156 195.351562 74.992188 195.476562 75.1875 195.625 C 75.382812 195.773438 75.5625 195.941406 75.722656 196.125 C 75.882812 196.3125 76.019531 196.511719 76.140625 196.726562 C 76.21875 196.890625 76.320312 197.042969 76.4375 197.183594 C 76.558594 197.324219 76.691406 197.449219 76.839844 197.554688 C 76.988281 197.664062 77.148438 197.75 77.316406 197.820312 C 77.488281 197.890625 77.664062 197.9375 77.847656 197.960938 C 78.027344 197.988281 78.210938 197.992188 78.394531 197.972656 C 78.574219 197.953125 78.753906 197.910156 78.925781 197.851562 C 79.097656 197.789062 79.261719 197.703125 79.414062 197.601562 C 79.566406 197.5 79.703125 197.382812 79.828125 197.246094 C 80.796875 196.5 81.765625 195.742188 82.679688 194.929688 C 85.640625 192.324219 88.785156 191.226562 92.523438 193.378906 C 93.046875 193.726562 93.617188 193.925781 94.238281 193.984375 C 94.863281 194.039062 95.460938 193.945312 96.035156 193.703125 C 98.003906 192.808594 100.027344 192.066406 102.105469 191.46875 C 102.558594 191.390625 102.976562 191.226562 103.359375 190.980469 C 103.746094 190.730469 104.066406 190.417969 104.320312 190.039062 C 104.578125 189.660156 104.75 189.246094 104.839844 188.796875 C 104.925781 188.347656 104.921875 187.898438 104.828125 187.449219 C 104.539062 184.355469 104.507812 181.261719 104.734375 178.164062 C 104.796875 177.363281 104.675781 176.59375 104.363281 175.851562 C 104.054688 175.109375 103.589844 174.484375 102.972656 173.96875 C 102.25 173.390625 101.613281 172.730469 101.058594 171.992188 C 100.503906 171.25 100.046875 170.453125 99.691406 169.601562 C 99.339844 168.746094 99.09375 167.859375 98.964844 166.945312 C 98.832031 166.03125 98.816406 165.113281 98.917969 164.191406 C 98.96875 163.570312 98.894531 162.964844 98.6875 162.378906 C 98.484375 161.789062 98.167969 161.269531 97.742188 160.8125 C 97.371094 160.394531 97.070312 159.929688 96.839844 159.421875 C 96.605469 158.910156 96.453125 158.378906 96.378906 157.824219 C 96.308594 157.269531 96.316406 156.714844 96.410156 156.160156 C 96.5 155.609375 96.671875 155.082031 96.921875 154.582031 Z M 219.488281 211.039062 C 219.832031 209.703125 219.257812 207.972656 220.992188 207.875 C 222.414062 207.792969 222.472656 209.398438 222.945312 210.398438 C 223.046875 210.59375 223.109375 210.796875 223.125 211.015625 C 223.21875 214.6875 225.96875 215.835938 228.761719 216.890625 C 230.039062 217.390625 231.34375 217.78125 232.683594 218.070312 C 234.609375 218.746094 236.589844 218.96875 238.617188 218.730469 C 240.878906 218.207031 243.152344 218.148438 245.441406 218.550781 C 248.867188 219.027344 252.289062 219.582031 255.703125 220.105469 C 253.625 218.421875 251.8125 216.496094 250.253906 214.320312 C 248.699219 212.148438 247.457031 209.808594 246.53125 207.300781 C 245.074219 203.042969 242.972656 199.128906 240.234375 195.5625 C 239.683594 194.910156 239.238281 194.191406 238.890625 193.410156 C 238.546875 192.628906 238.316406 191.816406 238.203125 190.96875 C 238.085938 190.125 238.09375 189.277344 238.21875 188.433594 C 238.34375 187.589844 238.582031 186.777344 238.9375 186.003906 C 239.664062 183.847656 239.792969 181.652344 239.335938 179.425781 C 239.054688 177.101562 237.839844 176.886719 235.910156 177.179688 C 230.570312 177.957031 225.203125 178.398438 219.808594 178.496094 C 216.507812 178.574219 216.492188 178.488281 215.84375 181.863281 C 215.011719 186.082031 214.6875 190.339844 214.871094 194.632812 C 215.050781 198.929688 215.738281 203.140625 216.925781 207.273438 C 217.089844 208.042969 217.394531 208.753906 217.839844 209.40625 C 218.28125 210.058594 218.832031 210.601562 219.488281 211.039062 Z M 254.039062 172.078125 C 250.699219 174.945312 246.734375 175.292969 242.945312 176.046875 C 241.261719 176.382812 240.574219 176.847656 241.050781 178.726562 C 241.464844 179.972656 241.648438 181.25 241.609375 182.558594 C 241.566406 183.871094 241.300781 185.132812 240.8125 186.347656 C 240.476562 187.054688 240.25 187.792969 240.136719 188.5625 C 240.019531 189.335938 240.023438 190.109375 240.144531 190.878906 C 240.265625 191.652344 240.496094 192.386719 240.839844 193.085938 C 241.183594 193.789062 241.621094 194.421875 242.15625 194.992188 C 244.617188 198.054688 246.480469 201.449219 247.746094 205.167969 C 248.546875 207.617188 249.675781 209.90625 251.125 212.035156 C 252.574219 214.164062 254.289062 216.050781 256.273438 217.691406 C 257.8125 218.945312 260.242188 219.386719 260.578125 221.898438 C 260.59375 222.003906 260.925781 222.109375 261.121094 222.140625 C 262.988281 222.421875 264.855469 222.679688 266.644531 222.945312 C 265.628906 219.753906 264.019531 216.898438 261.816406 214.375 C 261.683594 214.203125 261.574219 214.019531 261.484375 213.820312 C 259.527344 209.773438 257.058594 206.070312 254.074219 202.710938 C 253.148438 201.71875 252.472656 200.582031 252.050781 199.292969 C 251.628906 198 251.503906 196.683594 251.671875 195.335938 C 251.894531 194.109375 251.847656 192.890625 251.523438 191.683594 C 249.859375 186.757812 251.164062 182.222656 253.648438 178.042969 C 254.195312 177.136719 254.5 176.15625 254.570312 175.101562 C 254.636719 174.046875 254.460938 173.035156 254.039062 172.066406 Z M 145.304688 176.648438 C 144.765625 170.625 144.628906 164.589844 144.890625 158.550781 C 144.964844 158.179688 144.96875 157.804688 144.90625 157.429688 C 144.84375 157.058594 144.714844 156.707031 144.523438 156.378906 C 144.332031 156.054688 144.089844 155.769531 143.792969 155.53125 C 143.5 155.292969 143.171875 155.117188 142.8125 155 C 142.089844 154.722656 141.074219 154.367188 141.574219 153.375 C 142.027344 152.472656 142.980469 152.941406 143.679688 153.269531 C 145.847656 154.214844 148.101562 154.519531 150.441406 154.1875 C 151.4375 154.195312 152.375 153.957031 153.246094 153.472656 C 154.117188 152.988281 154.8125 152.320312 155.332031 151.46875 C 156.285156 149.570312 154.636719 148.273438 153.710938 146.875 C 153.460938 146.519531 153.179688 146.195312 152.859375 145.902344 C 151.8125 144.90625 150.804688 143.714844 149.382812 145.476562 C 149.003906 145.945312 148.324219 145.855469 147.75 145.875 C 144.636719 145.992188 140.417969 142.34375 139.964844 139.160156 C 139.890625 138.617188 139.851562 138.140625 140.417969 137.863281 C 140.660156 137.765625 140.90625 137.75 141.160156 137.816406 C 141.414062 137.882812 141.621094 138.019531 141.78125 138.226562 C 142.746094 139.085938 143.671875 140 144.691406 140.785156 C 145.140625 141.132812 145.757812 141.859375 146.351562 141.195312 C 146.792969 140.699219 146.519531 139.953125 146.183594 139.371094 C 145.917969 138.863281 145.605469 138.382812 145.25 137.929688 C 144.476562 137.207031 143.890625 136.359375 143.492188 135.378906 C 143.09375 134.398438 142.917969 133.382812 142.96875 132.324219 C 137.332031 135.390625 132.882812 144.433594 133.90625 150.472656 C 134.015625 151.105469 134.085938 151.875 134.882812 151.980469 C 138.769531 152.480469 140.125 155.421875 141.167969 158.570312 C 143.105469 164.4375 143.878906 170.59375 145.304688 176.648438 Z M 290.847656 79.785156 C 294.429688 74.101562 295.921875 68.851562 292.925781 63.085938 C 292.609375 62.410156 292.492188 61.703125 292.566406 60.960938 C 292.644531 60.21875 292.90625 59.550781 293.355469 58.953125 C 295.699219 55.359375 295.605469 51.628906 294.742188 47.558594 C 293.808594 43.148438 293.003906 38.550781 297.011719 34.851562 C 297.300781 34.59375 297.527344 34.285156 297.6875 33.933594 C 297.851562 33.582031 297.933594 33.210938 297.941406 32.820312 C 297.949219 32.433594 297.878906 32.058594 297.726562 31.699219 C 297.578125 31.339844 297.363281 31.027344 297.082031 30.757812 C 295.0625 28.234375 293.082031 25.660156 291.089844 23.105469 C 290.632812 22.632812 290.292969 22.089844 290.074219 21.46875 C 289.855469 20.847656 289.777344 20.210938 289.835938 19.558594 C 290.152344 17.421875 289.222656 16.421875 287.050781 16.355469 C 285.914062 16.320312 285.007812 17.046875 283.957031 17.21875 C 282.863281 17.398438 282.859375 17.824219 283.320312 18.660156 C 283.945312 19.726562 284.382812 20.867188 284.640625 22.078125 C 284.894531 23.285156 284.957031 24.507812 284.820312 25.734375 C 284.6875 27.253906 284.832031 28.746094 285.253906 30.210938 C 285.675781 31.675781 286.347656 33.015625 287.269531 34.230469 C 289.570312 37.445312 291.089844 40.992188 291.832031 44.875 C 292.511719 49.667969 292.550781 54.46875 291.953125 59.273438 C 291.386719 62.042969 291.242188 64.835938 291.519531 67.648438 C 291.871094 69.730469 291.878906 71.808594 291.542969 73.890625 C 291.308594 75.640625 291.125 77.410156 290.847656 79.789062 Z M 186.554688 98.84375 C 191.664062 95.417969 196.367188 92.636719 201.035156 89.800781 C 204.027344 87.761719 207.289062 86.339844 210.816406 85.53125 C 211.660156 85.378906 212.515625 85.261719 213.355469 85.082031 C 213.835938 84.976562 214.300781 84.914062 214.074219 84.105469 C 213.914062 83.578125 213.703125 83.070312 213.449219 82.585938 C 213.191406 82.097656 212.890625 81.640625 212.550781 81.210938 C 212.207031 80.777344 211.828125 80.382812 211.414062 80.023438 C 210.996094 79.664062 210.550781 79.34375 210.074219 79.066406 C 209.601562 78.792969 209.105469 78.5625 208.585938 78.378906 C 208.066406 78.195312 207.535156 78.058594 206.992188 77.976562 C 206.449219 77.890625 205.902344 77.855469 205.355469 77.875 C 204.804688 77.890625 204.261719 77.960938 203.722656 78.078125 C 199.011719 78.910156 195.445312 82.226562 190.992188 83.546875 C 190.714844 83.628906 190.796875 83.839844 190.800781 84.046875 C 190.628906 85.535156 189.988281 86.789062 188.886719 87.808594 C 186.414062 90.992188 186.929688 94.667969 186.554688 98.84375 Z M 249.929688 172.339844 C 252.773438 171 254.207031 169.488281 254.234375 167.734375 C 254.421875 163.617188 255.078125 159.578125 256.207031 155.613281 C 258.265625 147.5 259.050781 139.5 255.054688 131.667969 C 254.207031 129.632812 253.90625 127.515625 254.15625 125.324219 C 254.230469 123.152344 254 121.011719 253.457031 118.90625 C 252.914062 116.800781 252.085938 114.8125 250.96875 112.949219 C 250.578125 113.84375 250.390625 114.777344 250.40625 115.753906 C 250.425781 116.730469 250.640625 117.65625 251.0625 118.539062 C 251.785156 120.453125 252.089844 122.429688 251.972656 124.476562 C 251.761719 128.789062 251.691406 133.109375 251.339844 137.410156 C 251.199219 139.175781 252.421875 140.703125 251.816406 142.496094 C 250.9375 145.976562 250.914062 149.464844 251.75 152.957031 C 252.757812 159.425781 253.089844 165.847656 249.929688 172.335938 Z M 90.683594 247.25 C 94.675781 246.121094 98.210938 244.164062 101.292969 241.382812 C 103.335938 239.144531 105.535156 237.070312 107.882812 235.15625 C 108.269531 234.839844 108.679688 234.5625 109.109375 234.316406 C 109.542969 234.070312 109.992188 233.859375 110.460938 233.691406 C 110.925781 233.519531 111.40625 233.390625 111.894531 233.300781 C 112.382812 233.207031 112.875 233.160156 113.371094 233.152344 C 113.871094 233.144531 114.363281 233.175781 114.855469 233.25 C 115.347656 233.324219 115.828125 233.441406 116.300781 233.59375 C 116.773438 233.75 117.230469 233.945312 117.671875 234.175781 C 118.109375 234.40625 118.527344 234.671875 118.925781 234.976562 C 121.632812 236.914062 124.027344 239.1875 126.105469 241.792969 C 128.21875 244.210938 129.976562 246.90625 132.023438 249.40625 C 130.941406 246.898438 129.550781 244.570312 128.445312 242.113281 C 126.101562 236.894531 122.445312 231.96875 124.566406 225.5625 C 123.273438 225.878906 122.222656 226.113281 121.195312 226.394531 C 116.203125 227.753906 111.535156 229.558594 108.214844 233.925781 C 107.082031 235.339844 105.769531 236.5625 104.273438 237.589844 C 102.78125 238.617188 101.171875 239.40625 99.445312 239.960938 C 97.652344 240.707031 96.007812 241.699219 94.515625 242.941406 C 93.019531 244.183594 91.742188 245.617188 90.683594 247.242188 Z M 242.511719 150.84375 C 245.226562 150.6875 247.210938 150.402344 248.25 148.253906 C 249.03125 146.542969 249.574219 144.765625 249.886719 142.910156 C 250.097656 141.828125 249.917969 141.15625 248.425781 141.40625 C 245.527344 141.886719 242.589844 142.117188 239.671875 142.488281 C 237.007812 142.703125 234.433594 143.308594 231.949219 144.300781 C 231.128906 144.660156 229.957031 145.21875 231.4375 146.226562 C 234.90625 148.300781 238.597656 149.835938 242.511719 150.835938 Z M 229.511719 61.855469 C 229.445312 61.769531 229.558594 61.957031 229.710938 62.105469 C 231.265625 63.53125 232.679688 65.082031 233.957031 66.757812 C 235.234375 68.4375 236.351562 70.214844 237.308594 72.09375 C 238.265625 73.972656 239.050781 75.921875 239.660156 77.941406 C 240.265625 79.960938 240.691406 82.015625 240.933594 84.109375 C 241.164062 86.304688 241.5625 88.40625 244.179688 88.875 C 244.25 77.199219 241.875 66.683594 229.511719 61.847656 Z M 233.742188 140.957031 C 235.125 141.261719 236.46875 141.140625 237.777344 140.597656 C 240.855469 139.476562 244.023438 139.085938 247.28125 139.433594 C 248.316406 139.613281 248.597656 139.132812 248.328125 138.210938 C 247.882812 136.699219 247.371094 135.207031 246.984375 133.679688 C 246.191406 130.5625 244.441406 129.863281 242.117188 131.992188 C 239.125 134.792969 236.332031 137.777344 233.742188 140.949219 Z M 154.359375 55.964844 C 146.957031 52.886719 142.757812 54.835938 139.535156 62.785156 C 140.957031 62.914062 142.375 62.855469 143.785156 62.609375 C 145.195312 62.367188 146.550781 61.945312 147.851562 61.347656 C 149.152344 60.746094 150.355469 59.992188 151.457031 59.078125 C 152.558594 58.167969 153.527344 57.128906 154.359375 55.964844 Z M 247.527344 106.863281 C 248.34375 102.976562 248.9375 99.457031 246.898438 96.113281 C 245.894531 94.78125 245.164062 93.3125 244.707031 91.710938 C 244.457031 90.382812 243.347656 90.929688 242.59375 90.914062 C 241.835938 90.898438 240.875 90.582031 240.429688 91.757812 C 239.335938 94.625 238.78125 94.785156 235.761719 92.839844 C 237.226562 94.222656 237.722656 95.753906 239.515625 95.933594 C 240.128906 96 240.714844 96.160156 241.277344 96.410156 C 241.839844 96.660156 242.347656 96.992188 242.804688 97.40625 C 243.261719 97.816406 243.644531 98.289062 243.953125 98.824219 C 244.261719 99.355469 244.480469 99.925781 244.609375 100.527344 C 245.167969 102.832031 246.140625 104.945312 247.527344 106.863281 Z M 231.207031 85.847656 C 231.226562 87.171875 231.558594 88.410156 232.203125 89.566406 C 232.417969 90.015625 232.765625 90.59375 233.328125 90.382812 C 235.28125 89.664062 237.207031 88.859375 239.113281 88.027344 C 239.542969 87.847656 239.585938 87.296875 239.515625 86.867188 C 239.152344 84.671875 238.75 82.484375 238.347656 80.292969 C 238.339844 80.128906 238.296875 79.972656 238.222656 79.828125 C 238.144531 79.683594 238.035156 79.558594 237.902344 79.464844 C 237.769531 79.367188 237.621094 79.304688 237.457031 79.273438 C 237.296875 79.246094 237.136719 79.253906 236.976562 79.296875 C 236.238281 79.519531 235.546875 79.839844 234.898438 80.257812 C 234.25 80.675781 233.667969 81.171875 233.160156 81.75 C 232.648438 82.328125 232.230469 82.96875 231.898438 83.664062 C 231.566406 84.359375 231.335938 85.085938 231.207031 85.847656 Z M 248.929688 117.660156 C 247.527344 119.203125 246.246094 120.546875 245.035156 121.957031 C 244.847656 122.183594 244.683594 122.425781 244.546875 122.683594 C 244.40625 122.945312 244.296875 123.214844 244.214844 123.496094 C 244.132812 123.777344 244.078125 124.0625 244.054688 124.355469 C 244.03125 124.648438 244.035156 124.941406 244.070312 125.230469 C 244.109375 125.523438 244.171875 125.808594 244.265625 126.085938 C 244.359375 126.363281 244.484375 126.628906 244.632812 126.878906 C 244.78125 127.132812 244.953125 127.367188 245.148438 127.585938 C 245.347656 127.804688 245.5625 128 245.800781 128.171875 C 246.289062 128.59375 246.710938 129.074219 247.0625 129.613281 C 248.121094 130.953125 248.917969 132.433594 249.453125 134.054688 C 250.101562 128.609375 251.371094 123.195312 248.929688 117.660156 Z M 161.558594 137.222656 C 162.386719 135.761719 163 134.878906 163.414062 133.914062 C 164.59375 131.25 165.195312 128.464844 165.214844 125.554688 C 165.214844 123.773438 163.832031 123.625 162.746094 123.417969 C 161.449219 123.175781 161.882812 124.539062 161.785156 125.117188 C 161.382812 129.148438 161.304688 133.183594 161.558594 137.222656 Z M 104.355469 172.539062 C 103.859375 166.195312 100.269531 161.199219 98.914062 155.140625 C 98.648438 155.433594 98.445312 155.761719 98.304688 156.128906 C 98.164062 156.5 98.097656 156.878906 98.105469 157.273438 C 98.113281 157.667969 98.195312 158.046875 98.347656 158.40625 C 98.5 158.769531 98.714844 159.09375 98.992188 159.371094 C 99.605469 160.085938 100.050781 160.890625 100.332031 161.789062 C 100.609375 162.6875 100.699219 163.605469 100.59375 164.539062 C 100.542969 165.3125 100.589844 166.078125 100.734375 166.835938 C 100.878906 167.597656 101.113281 168.324219 101.445312 169.023438 C 101.773438 169.722656 102.183594 170.371094 102.675781 170.96875 C 103.167969 171.5625 103.726562 172.085938 104.355469 172.539062 Z M 136.613281 63.753906 C 134.796875 63.894531 133.050781 64.328125 131.386719 65.066406 C 130.570312 65.496094 129.683594 65.933594 129.582031 67.027344 C 129.558594 67.328125 129.632812 67.601562 129.800781 67.847656 C 129.96875 68.097656 130.195312 68.261719 130.484375 68.351562 C 130.71875 68.445312 130.964844 68.496094 131.21875 68.503906 C 131.46875 68.515625 131.71875 68.484375 131.960938 68.410156 C 132.203125 68.335938 132.425781 68.222656 132.628906 68.074219 C 132.835938 67.921875 133.007812 67.742188 133.152344 67.535156 C 134.265625 66.328125 135.367188 65.117188 136.613281 63.753906 Z M 117.539062 98.617188 C 114.644531 100.3125 111.726562 101.957031 110.371094 105.238281 C 110.089844 105.910156 109.730469 106.722656 110.539062 107.152344 C 111.308594 107.566406 111.640625 106.710938 111.957031 106.199219 C 113.632812 103.535156 114.898438 100.578125 117.539062 98.617188 Z M 174.902344 110.160156 C 171.835938 114.265625 169.792969 118.828125 168.773438 123.847656 C 171.132812 119.425781 173.175781 114.867188 174.902344 110.164062 Z M 174.902344 110.160156 " fill-opacity="1" fill-rule="nonzero"/></g></svg>