<svg xmlns="http://www.w3.org/2000/svg" xmlns:xlink="http://www.w3.org/1999/xlink" width="500" zoomAndPan="magnify" viewBox="0 0 375 374.999991" height="500" preserveAspectRatio="xMidYMid meet" version="1.0"><path fill="#f38e64" d="M 319.242188 118.558594 C 318.421875 127.902344 315.152344 130.453125 306.976562 136.398438 C 298.796875 142.34375 296.34375 148.292969 293.074219 158.484375 C 289.53125 171.375 284.703125 217.511719 270.269531 236.046875 C 270.183594 236.160156 270.089844 236.269531 270 236.382812 C 270.472656 240.902344 270.140625 245.007812 269.015625 248.277344 C 264.421875 261.628906 253.398438 266.78125 243.671875 271.332031 C 238.179688 273.898438 232.988281 276.324219 230.050781 279.9375 C 221.910156 289.9375 228.46875 314.609375 231.621094 326.46875 L 231.878906 327.441406 C 232.472656 329.675781 233.652344 332.324219 234.902344 335.128906 C 237.300781 340.503906 240.015625 346.597656 238.929688 350.898438 C 237.527344 356.464844 227.386719 361.980469 220.839844 362.035156 L 220.75 362.035156 C 216.945312 362.035156 213.769531 360.015625 210.699219 358.058594 C 207.753906 356.183594 204.707031 354.242188 201.203125 354.242188 C 200.785156 354.242188 200.363281 354.269531 199.949219 354.324219 L 199.796875 354.34375 L 199.726562 354.476562 C 190.691406 371.128906 161.789062 372.535156 144.519531 373.371094 L 143.804688 373.40625 C 136.105469 373.78125 129.851562 373.957031 124.121094 373.957031 C 102.070312 373.957031 85.375 371.257812 71.597656 365.472656 C 70.449219 358.394531 72.898438 349.511719 75.492188 340.109375 C 79.671875 324.96875 83.992188 309.3125 73.339844 299.816406 C 72 298.617188 70.589844 297.441406 69.226562 296.304688 C 63.125 291.214844 56.816406 285.945312 55.078125 277.550781 C 54.046875 272.566406 54.878906 267.546875 55.679688 262.695312 C 56.632812 256.945312 57.613281 251.003906 55.550781 245.03125 C 54.714844 242.613281 53.726562 240.9375 52.929688 239.597656 C 51.160156 236.613281 50.1875 234.96875 52.914062 229.164062 C 54.382812 226.039062 55.859375 224.964844 57.160156 224.015625 C 58.910156 222.742188 60.417969 221.644531 61.070312 216.347656 C 62.203125 207.171875 62.210938 198.570312 62.21875 190.25 C 62.234375 172.558594 62.246094 155.847656 73.441406 137.851562 C 77.566406 131.222656 86.183594 119.511719 97.570312 115.566406 C 99.308594 114.964844 101.265625 114.683594 103.71875 114.683594 C 105.394531 114.683594 107.132812 114.8125 108.816406 114.941406 C 110.5 115.066406 112.246094 115.199219 113.929688 115.199219 C 117.917969 115.199219 120.792969 114.445312 123.246094 112.757812 C 125.511719 111.199219 126.539062 109.492188 127.53125 107.84375 C 128.761719 105.804688 129.921875 103.875 133.417969 102.46875 C 135.234375 101.738281 137.5 101.304688 140.324219 101.136719 C 140.390625 101.03125 140.453125 100.929688 140.515625 100.820312 C 141.015625 100.015625 141.539062 99.167969 142.078125 98.269531 C 144.695312 93.902344 145.570312 89.53125 146.445312 84.289062 C 147.730469 81.722656 148.539062 79.152344 148.1875 76.234375 C 148.285156 76.183594 148.375 76.113281 148.46875 76.054688 L 148.433594 75.765625 L 148.046875 75.972656 C 147.679688 76.167969 147.332031 76.304688 146.984375 76.386719 C 146.699219 76.457031 146.429688 76.488281 146.160156 76.488281 C 145.3125 76.488281 144.566406 76.15625 143.621094 75.734375 C 142.570312 75.261719 141.628906 74.652344 140.679688 73.835938 L 140.535156 73.714844 L 140.363281 73.789062 C 139.808594 74.035156 139.21875 74.277344 138.609375 74.53125 C 137.421875 75.019531 136.191406 75.527344 134.933594 76.152344 C 128.832031 80.503906 127.824219 84.035156 126.15625 89.882812 L 126.027344 90.328125 L 125.753906 91.078125 C 123.886719 96.222656 123.382812 97.605469 121.832031 97.605469 C 121.164062 97.605469 120.265625 97.363281 119.023438 97.027344 C 118.179688 96.800781 117.128906 96.519531 115.878906 96.242188 C 114.320312 96.019531 112.792969 95.960938 111.3125 95.90625 C 106.78125 95.742188 102.871094 95.597656 100.316406 91.136719 C 98.917969 88.804688 98.964844 85.910156 100.464844 82.53125 C 103.835938 74.917969 113.566406 67.382812 119.371094 66.222656 C 121.179688 65.964844 123.179688 65.839844 125.464844 65.839844 C 127.503906 65.839844 129.574219 65.9375 131.578125 66.03125 C 132.574219 66.078125 133.566406 66.125 134.5625 66.160156 L 135.066406 66.179688 L 134.839844 65.726562 C 134.527344 65.117188 134.234375 64.515625 133.960938 63.929688 C 133.496094 62.953125 133.003906 61.585938 132.535156 59.984375 L 132.449219 59.683594 L 132.308594 59.730469 C 131.890625 59.023438 130.476562 56.503906 129.210938 52.882812 C 129.605469 52.777344 130.832031 52.449219 130.832031 52.449219 L 130.785156 52.183594 C 130.109375 48.199219 129.121094 40.515625 130.070312 33.796875 L 130.09375 33.65625 L 129.992188 33.550781 C 129.359375 32.882812 128.691406 32.277344 128.011719 31.742188 C 131.347656 19.546875 142.117188 10.132812 160.023438 3.757812 C 164.59375 2.128906 169.742188 1.269531 174.910156 1.269531 C 180.597656 1.269531 186.011719 2.3125 190.570312 4.292969 C 199.972656 8.378906 202.5 13.980469 205.699219 21.074219 C 207.046875 24.066406 208.445312 27.160156 210.507812 30.5 C 213.875 35.953125 220.09375 36.703125 226.316406 36.703125 C 227.210938 36.703125 228.101562 36.691406 228.976562 36.675781 C 229.820312 36.664062 230.648438 36.652344 231.453125 36.652344 C 236.179688 36.652344 239.375 37.152344 240.710938 39.652344 C 241.40625 40.960938 241.441406 42.28125 240.816406 43.585938 C 238.355469 48.714844 226.71875 52.425781 221.46875 53.417969 C 220.363281 53.625 219.035156 53.730469 217.523438 53.730469 C 214.890625 53.730469 211.636719 53.414062 207.847656 52.792969 L 207.4375 52.722656 L 207.488281 53.03125 C 207.589844 53.050781 207.695312 53.070312 207.796875 53.085938 C 207.902344 53.761719 208.027344 54.429688 208.199219 55.089844 C 209.089844 58.519531 211.359375 61.222656 213.441406 63.914062 C 215.207031 66.199219 217.386719 69.648438 216.242188 72.796875 C 214.652344 77.15625 210.40625 76.46875 209.230469 81.441406 C 209.226562 81.441406 209.226562 81.441406 209.226562 81.441406 C 209.132812 81.417969 209.03125 81.410156 208.933594 81.398438 L 208.871094 81.660156 L 209.15625 81.730469 C 210.167969 81.988281 210.324219 82.984375 210.34375 83.398438 C 210.386719 84.351562 209.894531 85.558594 208.898438 85.910156 L 208.695312 85.984375 L 208.710938 86.953125 L 208.734375 87.011719 C 209.175781 88.09375 209.738281 90.089844 208.519531 91.234375 L 208.4375 91.3125 L 208.425781 91.421875 C 208.417969 91.503906 208.40625 91.574219 208.398438 91.652344 C 208.511719 91.609375 208.621094 91.546875 208.722656 91.453125 C 208.171875 96.902344 206.824219 101.148438 200.472656 102.582031 C 196.992188 103.367188 193.382812 103.175781 189.886719 102.609375 C 187.464844 102.21875 185.375 101.34375 183.1875 100.472656 C 181.976562 102.679688 180.816406 105.164062 179.902344 107.285156 C 179.863281 107.378906 179.824219 107.46875 179.785156 107.5625 L 180.71875 107.816406 C 185.554688 109.113281 188.75 109.96875 192.378906 115.007812 C 193.507812 116.574219 194.140625 118.253906 194.757812 119.878906 C 195.867188 122.808594 196.914062 125.574219 200.578125 127.402344 C 203.664062 128.945312 206.605469 129.828125 209.449219 130.683594 C 214.738281 132.273438 219.308594 133.644531 223.234375 138.6875 C 228.445312 145.628906 230.214844 153.59375 231.929688 161.300781 C 232.21875 163.035156 232.4375 165.355469 232.671875 168.296875 L 232.730469 169.03125 L 233.203125 168.460938 C 247.53125 151.09375 252.859375 147.097656 254.804688 146.804688 C 255.539062 146.695312 256.425781 146.554688 257.433594 146.394531 C 260.847656 145.851562 265.519531 145.109375 270.523438 144.539062 L 270.675781 144.519531 L 270.753906 144.382812 C 270.785156 144.324219 270.816406 144.261719 270.851562 144.203125 C 270.730469 144.214844 270.609375 144.226562 270.488281 144.242188 C 272.640625 140.292969 274.511719 136.257812 275.90625 132.152344 C 279.175781 123.65625 275.90625 114.3125 279.992188 106.667969 C 281.859375 103.179688 287.140625 92.875 292.292969 86.410156 C 292.246094 86.597656 292.238281 86.785156 292.238281 86.964844 C 292.335938 86.84375 292.429688 86.714844 292.527344 86.59375 L 292.570312 86.542969 L 292.585938 86.476562 C 292.707031 85.96875 293.027344 85.449219 293.539062 84.925781 C 293.851562 84.609375 294.230469 84.339844 294.695312 84.097656 L 294.738281 84.074219 L 294.769531 84.039062 C 294.957031 83.851562 295.136719 83.679688 295.316406 83.511719 C 295.054688 83.605469 294.796875 83.707031 294.558594 83.832031 C 296.304688 82.066406 297.972656 80.941406 299.417969 80.921875 C 300.261719 80.914062 300.976562 81.175781 301.585938 81.59375 C 301.695312 81.667969 301.792969 81.75 301.894531 81.835938 L 301.886719 81.582031 C 301.179688 63.617188 307.59375 41.816406 317.507812 28.363281 C 322.304688 37.652344 319.113281 49.046875 316.269531 56.855469 C 315.546875 59.019531 314.71875 61.558594 313.820312 64.308594 L 313.3125 65.855469 L 313.582031 65.972656 C 313.585938 65.964844 313.59375 65.957031 313.597656 65.949219 C 315.851562 61.945312 318.222656 59.1875 320.292969 59.816406 C 326.632812 61.742188 317.128906 80.984375 318.1875 83.632812 C 319.246094 86.277344 321.699219 92.226562 323.335938 97.324219 C 324.964844 103.265625 320.058594 111.761719 319.242188 118.558594 Z M 209.007812 86.898438 C 209.007812 86.664062 209.003906 86.429688 209 86.195312 C 208.910156 86.226562 208.820312 86.257812 208.726562 86.277344 C 208.726562 86.277344 208.855469 86.519531 209.007812 86.898438 Z M 209.007812 86.898438 " fill-opacity="1" fill-rule="nonzero"/><path fill="#fdd9b9" d="M 295.617188 146.734375 C 292.746094 142.640625 281.003906 143.042969 270.488281 144.242188 C 263.976562 144.980469 257.9375 146.03125 254.757812 146.507812 C 251.503906 147 242.734375 156.4375 232.96875 168.269531 C 224.785156 178.1875 215.90625 189.785156 208.976562 199.21875 C 215.347656 196.402344 224.730469 192.964844 230.90625 193.152344 C 233.304688 193.222656 235.75 193.191406 236.265625 196.101562 C 236.625 198.160156 234.09375 200.0625 232.960938 202.121094 C 233.074219 202.117188 233.179688 202.113281 233.292969 202.105469 C 238.636719 201.632812 244 201.027344 248.941406 198.855469 C 250.792969 198.039062 253.765625 196.132812 256.199219 196.113281 C 257.441406 196.105469 258.542969 196.589844 259.285156 197.957031 C 261.222656 201.546875 256.574219 203.484375 254.171875 204.9375 C 252.832031 205.75 251.554688 206.449219 250.539062 207.671875 C 248.515625 210.109375 249.640625 211.347656 249.65625 214.34375 C 249.660156 215.050781 249.558594 215.691406 249.386719 216.292969 C 249.394531 216.328125 249.40625 216.355469 249.398438 216.390625 C 249.375 216.539062 249.339844 216.679688 249.304688 216.820312 C 264.9375 201.316406 299.570312 152.371094 295.617188 146.734375 Z M 295.617188 146.734375 " fill-opacity="1" fill-rule="nonzero"/><path fill="#feb04b" d="M 316.546875 56.957031 C 315.695312 59.511719 314.6875 62.601562 313.59375 65.945312 C 310.566406 71.308594 307.75 78.902344 306.140625 83.585938 C 305.628906 83.488281 305.113281 83.402344 304.601562 83.335938 C 304.136719 83.273438 303.605469 83.203125 303.039062 83.136719 C 302.644531 82.535156 302.160156 81.992188 301.582031 81.59375 C 300.84375 62.847656 307.589844 41.0625 317.546875 27.804688 C 322.5 36.875 319.847656 47.882812 316.546875 56.957031 Z M 221.523438 53.710938 C 218.042969 54.371094 212.960938 53.9375 207.796875 53.085938 C 207.503906 53.039062 207.207031 52.988281 206.914062 52.9375 C 206.367188 52.839844 205.816406 52.742188 205.269531 52.640625 C 198.832031 51.429688 192.667969 49.746094 189.726562 48.898438 C 188.589844 48.574219 187.921875 48.367188 187.921875 48.367188 C 187.921875 48.367188 175.53125 50.03125 161.398438 52.765625 C 157.257812 53.566406 152.96875 54.457031 148.796875 55.425781 C 142.765625 56.828125 136.976562 58.390625 132.25 60.070312 C 132.226562 60.078125 132.199219 60.089844 132.175781 60.097656 C 132.175781 60.097656 130.375 57.226562 128.824219 52.683594 C 129.378906 52.53125 129.933594 52.382812 130.492188 52.234375 C 131.996094 51.832031 133.496094 51.429688 134.980469 50.941406 C 135.238281 50.859375 135.335938 50.621094 135.351562 50.375 C 135.703125 44.09375 133.824219 38.011719 129.777344 33.757812 C 129.128906 33.078125 128.429688 32.4375 127.671875 31.859375 C 130.371094 21.726562 138.886719 10.96875 159.921875 3.476562 C 169.386719 0.109375 181.40625 -0.0117188 190.691406 4.023438 C 204.164062 9.875 203.78125 19.039062 210.761719 30.347656 C 217.746094 41.652344 237.039062 32.136719 240.972656 39.515625 C 244.90625 46.890625 228.078125 52.472656 221.523438 53.710938 Z M 288.234375 148.421875 C 280.246094 148.210938 271.984375 149.128906 264.023438 149.8125 C 259.339844 150.210938 255.621094 151.71875 252.03125 154.75 C 245.65625 160.132812 240.851562 167.824219 235.222656 173.988281 C 230.503906 179.15625 224.730469 184.144531 222.308594 190.886719 C 222.183594 191.242188 222.734375 191.378906 222.871094 191.039062 C 225.40625 184.722656 231.347656 179.585938 235.949219 174.714844 C 241.222656 169.128906 245.945312 163.042969 250.992188 157.257812 C 255.035156 152.617188 260.15625 151.238281 266.027344 150.8125 C 273.414062 150.273438 280.832031 149.945312 288.234375 149.570312 C 288.96875 149.53125 288.976562 148.441406 288.234375 148.421875 Z M 288.234375 148.421875 " fill-opacity="1" fill-rule="nonzero"/><path fill="#bd4622" d="M 181.128906 99.398438 C 181.402344 99.542969 181.214844 100.019531 180.917969 99.90625 C 172.726562 96.710938 162.652344 88.226562 163.316406 78.417969 C 163.339844 78.09375 163.8125 78 163.902344 78.339844 C 165.082031 82.765625 166.074219 86.863281 169.179688 90.457031 C 172.539062 94.34375 176.648438 96.976562 181.128906 99.398438 Z M 160.246094 67.480469 C 160.585938 66.074219 161.140625 64.871094 161.226562 63.414062 C 161.378906 60.84375 162.445312 58.765625 160.839844 56.464844 C 157.976562 52.367188 153.203125 57.59375 154.796875 61.320312 C 154.917969 61.601562 155.425781 61.464844 155.386719 61.160156 C 155.144531 59.238281 156.910156 54.214844 159.375 56.53125 C 160.925781 57.988281 160.5625 59.757812 160.191406 61.582031 C 159.730469 63.839844 158.625 66.488281 158.585938 68.765625 C 158.496094 73.523438 164.765625 75.257812 167.707031 71.808594 C 168.136719 71.304688 167.589844 70.472656 166.972656 70.855469 C 163.851562 72.78125 159.140625 72.023438 160.246094 67.480469 Z M 296.648438 89.28125 C 300.898438 91.167969 306.484375 92.277344 309.945312 95.566406 C 311.941406 97.46875 312.390625 99.519531 313.238281 102.046875 C 313.257812 102.105469 313.265625 102.164062 313.257812 102.214844 C 313.875 103.371094 314.429688 104.542969 314.90625 105.5 C 315.949219 107.605469 316.742188 109.597656 317.15625 111.925781 C 317.253906 112.492188 316.476562 112.71875 316.289062 112.164062 C 315.449219 109.6875 314.496094 107.246094 313.15625 104.988281 C 312.457031 103.8125 310.683594 99.632812 309.261719 99.308594 C 305.667969 98.492188 302.039062 100.976562 299.605469 103.390625 C 297.183594 105.792969 294.601562 108.832031 293.734375 112.226562 C 293.285156 113.976562 293.867188 113.992188 294.253906 114.660156 C 294.371094 114.660156 294.484375 114.664062 294.601562 114.667969 C 295.777344 112.335938 297.527344 110.402344 299.792969 109.558594 C 304.886719 107.667969 310.773438 113.34375 313.25 117.320312 C 313.519531 117.75 312.910156 118.207031 312.558594 117.855469 C 309.316406 114.636719 303.484375 107.511719 298.722656 112.207031 C 296.671875 114.234375 295.3125 116.984375 294.878906 119.84375 C 294.6875 121.097656 294.511719 122.578125 294.859375 123.828125 C 295.257812 125.261719 299.6875 120.734375 299.90625 120.34375 C 300.527344 119.226562 302.300781 120.261719 301.617188 121.339844 C 299.929688 124.011719 297.417969 125.859375 294.15625 125.597656 C 293.75 125.5625 293.394531 125.34375 293.28125 124.929688 C 292.597656 122.464844 292.828125 119.289062 293.847656 116.429688 C 293.773438 116.4375 293.703125 116.453125 293.617188 116.449219 C 293.082031 116.441406 292.765625 116.042969 292.710938 115.546875 C 292.5625 115.585938 292.414062 115.625 292.265625 115.664062 C 291.875 115.519531 291.613281 115.226562 291.601562 114.792969 C 291.546875 112.628906 292.175781 110.464844 293.234375 108.433594 C 292.859375 108.191406 292.65625 107.648438 293.0625 107.230469 C 297.007812 103.15625 299.25 98.074219 301.375 92.898438 C 299.847656 92.386719 298.324219 91.863281 296.851562 91.214844 C 294.695312 90.269531 291.757812 88.625 292.289062 86.40625 C 292.417969 85.875 292.738281 85.308594 293.324219 84.714844 C 293.675781 84.355469 294.09375 84.066406 294.554688 83.828125 C 296.886719 82.621094 300.390625 82.828125 303.039062 83.136719 C 303.605469 83.203125 304.136719 83.273438 304.601562 83.332031 C 305.113281 83.402344 305.628906 83.488281 306.144531 83.582031 C 310.238281 84.34375 314.328125 85.988281 317.265625 88.960938 C 317.960938 89.664062 316.878906 90.746094 316.179688 90.042969 C 312.738281 86.570312 307.445312 84.972656 302.648438 84.660156 C 300.753906 84.535156 298.730469 84.453125 296.875 84.9375 C 293.894531 85.714844 293.6875 87.964844 296.648438 89.28125 Z M 302.273438 93.199219 C 301.476562 96.089844 300.402344 98.894531 299 101.519531 C 300.582031 100.214844 302.261719 99.128906 303.882812 98.378906 C 305.570312 97.59375 309.058594 96.761719 310.632812 98.332031 C 310.804688 98.503906 310.972656 98.699219 311.136719 98.898438 C 310.382812 97.375 309.367188 96.078125 307.460938 95.183594 C 305.78125 94.390625 304.027344 93.789062 302.273438 93.199219 Z M 270.269531 236.046875 C 270.761719 240.417969 270.550781 244.734375 269.296875 248.375 C 261.976562 269.65625 238.171875 270.433594 230.28125 280.125 C 222.007812 290.289062 229.183594 316.097656 232.167969 327.363281 C 233.914062 333.941406 240.890625 344.339844 239.222656 350.96875 C 237.757812 356.769531 227.496094 362.277344 220.839844 362.332031 C 212.734375 362.398438 207.664062 353.625 199.988281 354.621094 C 190.746094 371.65625 160.9375 372.871094 143.820312 373.703125 C 119.734375 374.875 93.304688 374.964844 71.328125 365.683594 C 68.148438 347.046875 90.226562 315.273438 73.140625 300.039062 C 65.746094 293.449219 56.933594 287.988281 54.785156 277.609375 C 52.519531 266.675781 59.046875 256.0625 55.269531 245.125 C 52.621094 237.46875 48.582031 237.679688 52.644531 229.035156 C 56.105469 221.667969 59.648438 225.425781 60.773438 216.3125 C 64.339844 187.429688 56.726562 164.152344 73.1875 137.695312 C 78.675781 128.871094 87.292969 118.8125 97.46875 115.285156 C 105.59375 112.46875 115.617188 117.636719 123.074219 112.511719 C 128.117188 109.042969 126.914062 104.761719 133.304688 102.195312 C 135.367188 101.363281 137.871094 100.96875 140.515625 100.824219 C 136.414062 107.496094 134.234375 111.414062 142.445312 117.34375 C 155.097656 126.480469 167.277344 128.886719 174.453125 136.316406 C 173.039062 129.710938 177.34375 119.210938 178.050781 112.207031 C 178.09375 111.792969 178.824219 109.792969 179.902344 107.285156 C 185.328125 108.757812 188.707031 109.40625 192.617188 114.832031 C 195.773438 119.214844 195.101562 124.335938 200.710938 127.136719 C 209.460938 131.507812 217.339844 130.632812 223.464844 138.503906 C 228.71875 145.496094 230.46875 153.367188 232.21875 161.234375 C 232.519531 163.039062 232.742188 165.472656 232.96875 168.269531 C 224.785156 178.1875 215.90625 189.785156 208.976562 199.21875 C 208.210938 199.558594 207.476562 199.890625 206.808594 200.203125 C 202.382812 202.277344 198.714844 206.054688 195.113281 209.84375 C 194.964844 209.371094 194.796875 208.898438 194.640625 208.425781 C 194.179688 208.753906 193.699219 209.050781 193.199219 209.304688 C 193.410156 209.9375 193.628906 210.5625 193.828125 211.195312 C 191.65625 213.472656 189.476562 215.679688 187.140625 217.445312 C 164.21875 234.734375 132.449219 224.683594 106.933594 236.007812 C 103.234375 237.652344 99.628906 240.289062 94.804688 244.734375 C 86.054688 250.855469 72.925781 268.34375 72.050781 279.710938 C 71.175781 300.695312 109.683594 291.078125 121.0625 288.453125 C 140.320312 282.335938 156.074219 268.34375 173.578125 258.726562 C 181.324219 254.082031 187.707031 248.074219 195.746094 244.933594 C 195.429688 246.574219 195.078125 248.207031 194.695312 249.835938 C 195.203125 249.882812 195.699219 250.015625 196.171875 250.222656 C 196.613281 248.273438 197.023438 246.316406 197.371094 244.347656 C 197.894531 244.171875 198.421875 244.007812 198.957031 243.863281 C 205.792969 241.585938 213.332031 242.511719 220.324219 240.648438 C 225.6875 239.21875 231.339844 236.984375 236.15625 234.242188 C 237.402344 233.535156 238.875 232.6875 240.226562 231.691406 C 242.332031 236.128906 245.296875 240.125 248.917969 241.738281 C 257.769531 246.21875 264.726562 243.167969 270.269531 236.046875 Z M 196.027344 124.773438 C 196.015625 125.355469 196.019531 125.945312 196.027344 126.539062 C 196.515625 126.429688 197.015625 126.378906 197.519531 126.390625 C 197.496094 125.847656 197.476562 125.308594 197.453125 124.773438 C 197.417969 123.859375 196.042969 123.851562 196.027344 124.773438 Z M 198.609375 349.246094 C 198.363281 349.425781 198.121094 349.59375 197.882812 349.738281 C 198.285156 349.898438 198.597656 349.597656 198.609375 349.246094 Z M 154.523438 45.257812 C 150.4375 31.875 148.511719 13.859375 162.132812 5.484375 C 162.441406 5.296875 162.242188 4.757812 161.878906 4.882812 C 146.875 10.085938 149.21875 34.058594 153.65625 45.496094 C 153.863281 46.023438 154.695312 45.824219 154.523438 45.257812 Z M 225.332031 216.746094 C 233.300781 215.507812 241.121094 212.285156 248.460938 209.015625 C 249.144531 208.710938 248.554688 207.714844 247.875 208.011719 C 240.558594 211.246094 232.941406 214.238281 225.097656 215.894531 C 224.53125 216.011719 224.78125 216.832031 225.332031 216.746094 Z M 167.761719 5.648438 C 172.210938 7.644531 176.816406 9.246094 181.0625 11.667969 C 186.824219 14.953125 190.1875 19.730469 192.386719 25.875 C 192.523438 26.257812 193.089844 26.109375 193 25.707031 C 190.265625 13.613281 178.601562 8.777344 167.960938 5.179688 C 167.683594 5.085938 167.492188 5.527344 167.761719 5.648438 Z M 235.824219 224.160156 C 235.519531 224.390625 235.6875 225.011719 236.109375 224.835938 C 238.214844 223.964844 241.644531 223.050781 244.503906 221.605469 C 244.257812 222.699219 244.277344 223.996094 244.101562 224.957031 C 243.765625 226.800781 243.128906 229.027344 241.183594 229.730469 C 240.886719 229.839844 240.90625 230.351562 241.261719 230.316406 C 243.238281 230.113281 244.136719 228.585938 244.742188 226.851562 C 245.308594 225.222656 245.988281 222.683594 245.828125 220.867188 C 247.523438 219.816406 248.855469 218.511719 249.304688 216.820312 C 249.339844 216.679688 249.375 216.539062 249.398438 216.390625 C 249.40625 216.355469 249.390625 216.328125 249.386719 216.292969 C 249.351562 216.089844 249.125 215.953125 248.945312 216.128906 C 247.027344 218.007812 245.53125 219.589844 243.035156 220.753906 C 240.628906 221.871094 237.96875 222.554688 235.824219 224.160156 Z M 194.539062 44.132812 C 200.957031 42.648438 207.464844 40.1875 213.085938 36.714844 C 213.796875 36.273438 213.175781 35.261719 212.4375 35.609375 C 206.460938 38.421875 200.234375 40.675781 194.3125 43.589844 C 193.996094 43.746094 194.222656 44.207031 194.539062 44.132812 Z M 230.332031 201.847656 C 223.171875 203.644531 216.300781 206.371094 209.230469 208.492188 C 208.164062 208.8125 208.617188 210.46875 209.691406 210.160156 C 216.792969 208.109375 223.609375 205.183594 230.601562 202.8125 C 231.210938 202.609375 230.964844 201.6875 230.332031 201.847656 Z M 230.332031 201.847656 " fill-opacity="1" fill-rule="nonzero"/><path fill="#7a3b0d" d="M 198.371094 348.730469 C 198.9375 349.164062 198.457031 350.074219 197.796875 349.710938 C 188.140625 344.402344 185.488281 330.957031 184.394531 320.976562 C 183.5 312.84375 183.445312 304.628906 183.964844 296.46875 C 184.667969 285.445312 187.679688 274.867188 190.75 264.308594 C 192.597656 257.957031 194.488281 251.492188 195.746094 244.9375 C 196.28125 244.726562 196.820312 244.53125 197.371094 244.347656 C 194.054688 262.964844 186.175781 280.625 185.402344 299.773438 C 184.761719 315.554688 184.402344 338.113281 198.371094 348.730469 Z M 193.828125 211.195312 C 194.257812 210.75 194.6875 210.296875 195.113281 209.847656 C 194.140625 206.789062 193.035156 203.738281 191.855469 200.671875 C 189.015625 193.292969 186.84375 186.027344 185.089844 178.351562 C 183.363281 170.8125 181.523438 163.292969 179.097656 155.945312 C 177.105469 149.910156 174.691406 143.554688 170.476562 138.695312 C 161.582031 128.441406 152.859375 145.453125 148.082031 152.351562 C 138.5625 143.765625 125.597656 131.949219 125.097656 118.394531 C 125.074219 117.707031 124.011719 117.703125 124.027344 118.394531 C 124.398438 132.644531 137.925781 144.984375 147.714844 153.847656 C 148.0625 154.164062 148.515625 154.070312 148.78125 153.710938 C 152.796875 148.230469 156.726562 139.339844 163.394531 136.71875 C 169.230469 134.429688 174.367188 147.523438 175.789062 151.0625 C 181.1875 164.511719 182.726562 178.992188 187.28125 192.664062 C 189.386719 198.984375 191.871094 205.023438 193.828125 211.195312 Z M 115.8125 96.535156 C 123.6875 98.28125 122.8125 100.03125 126.3125 90.414062 C 128.0625 84.292969 128.9375 80.796875 135.066406 76.421875 C 136.96875 75.472656 138.863281 74.78125 140.484375 74.066406 C 141.386719 74.839844 142.363281 75.5 143.4375 75.980469 C 143.445312 75.984375 143.453125 75.984375 143.460938 75.988281 C 144.746094 76.566406 145.703125 77.003906 147.050781 76.679688 C 147.460938 76.582031 147.832031 76.425781 148.1875 76.238281 C 150.070312 75.234375 151.207031 73.027344 152.164062 70.375 C 150.101562 65.625 148.519531 60.03125 148.613281 57.457031 C 148.625 56.710938 148.695312 56.042969 148.796875 55.425781 C 142.765625 56.828125 136.976562 58.390625 132.25 60.070312 C 132.722656 61.695312 133.21875 63.0625 133.6875 64.0625 C 133.964844 64.648438 134.261719 65.253906 134.570312 65.863281 C 129.484375 65.679688 124.398438 65.207031 119.3125 65.929688 C 110.558594 67.679688 94.804688 82.542969 100.058594 91.289062 C 103.558594 97.40625 109.683594 95.660156 115.8125 96.535156 Z M 134.980469 50.941406 C 135.238281 50.855469 135.335938 50.621094 135.351562 50.371094 C 135.703125 44.09375 133.824219 38.011719 129.777344 33.757812 C 128.984375 39.367188 129.480469 46.265625 130.492188 52.234375 C 131.996094 51.832031 133.496094 51.425781 134.980469 50.941406 Z M 164.441406 54.210938 C 171.058594 53.566406 172.738281 60.664062 178.542969 57.742188 C 180.0625 57.199219 180.007812 54.652344 182.285156 53.84375 C 183.804688 53.300781 187.65625 54.496094 189.445312 54.714844 C 189.609375 52.585938 189.664062 50.6875 189.726562 48.898438 C 188.589844 48.574219 187.925781 48.367188 187.925781 48.367188 C 187.925781 48.367188 175.53125 50.03125 161.398438 52.765625 C 162.097656 53.238281 162.773438 53.761719 163.410156 54.328125 C 163.746094 54.277344 164.085938 54.234375 164.441406 54.210938 Z M 196.808594 56.210938 C 198.121094 55.882812 199.460938 55.757812 200.804688 55.671875 C 200.414062 63.226562 207.511719 60.28125 206.289062 55.144531 C 206.640625 55.070312 206.988281 54.996094 207.335938 54.894531 C 207.660156 54.800781 207.855469 54.398438 207.660156 54.097656 C 207.410156 53.710938 207.164062 53.324219 206.914062 52.933594 C 206.367188 52.839844 205.820312 52.742188 205.273438 52.640625 C 205.617188 53.117188 205.960938 53.59375 206.304688 54.070312 C 203.144531 54.929688 199.765625 54.523438 196.671875 55.714844 C 196.367188 55.832031 196.480469 56.292969 196.808594 56.210938 Z M 209.226562 81.441406 C 207.023438 80.886719 202.679688 84.074219 200.488281 84.074219 C 202.242188 85.824219 206.859375 93.199219 208.722656 91.453125 C 210.09375 90.164062 209.445312 87.964844 209.007812 86.898438 C 208.855469 86.519531 208.726562 86.277344 208.726562 86.277344 C 208.820312 86.257812 208.910156 86.226562 209 86.195312 C 210.949219 85.5 211.332031 81.976562 209.226562 81.441406 Z M 197.453125 124.773438 C 197.417969 123.859375 196.042969 123.851562 196.027344 124.773438 C 195.976562 127.996094 196.171875 131.480469 196.875 134.71875 C 193.601562 131.449219 187.894531 125.316406 184.808594 127.621094 C 182.921875 129.027344 182.179688 132.324219 181.582031 134.425781 C 180.625 137.804688 180.121094 141.523438 180.613281 145.015625 C 180.675781 145.449219 181.429688 145.351562 181.378906 144.914062 C 180.824219 139.980469 182.183594 134.242188 184.523438 129.882812 C 186.417969 126.347656 190.257812 130.648438 191.949219 132.160156 C 193.839844 133.847656 195.621094 135.648438 197.613281 137.222656 C 198.109375 137.617188 198.914062 137.273438 198.726562 136.574219 C 197.699219 132.757812 197.613281 128.703125 197.453125 124.773438 Z M 95.679688 144.121094 C 95.023438 144.089844 95.050781 145.0625 95.679688 145.125 C 112.773438 146.816406 124.269531 163.316406 128.539062 178.660156 C 130.914062 187.195312 132.980469 196.621094 132.558594 205.5 C 132.363281 209.609375 130.636719 213.738281 129.445312 217.632812 C 128.695312 220.101562 127.25 223.546875 128.289062 226.117188 C 128.574219 226.8125 129.558594 226.726562 129.613281 225.9375 C 130.195312 217.589844 134.539062 210.210938 134.3125 201.707031 C 134.066406 192.609375 131.796875 182.671875 128.78125 174.105469 C 123.777344 159.898438 111.863281 144.863281 95.679688 144.121094 Z M 117.109375 225.21875 C 114.457031 223.488281 110.800781 223.359375 107.742188 223.1875 C 102.644531 222.90625 97.496094 223.324219 92.453125 224.066406 C 90.277344 224.382812 74.347656 227.324219 79.449219 232.535156 C 79.941406 233.035156 80.71875 232.519531 80.578125 231.878906 C 79.492188 227.019531 93.28125 225.796875 96.0625 225.457031 C 100.613281 224.902344 107.492188 223.902344 112.703125 225.203125 C 104.488281 225.835938 96.546875 229.148438 89.570312 233.390625 C 81.941406 238.027344 74.25 245.003906 71.636719 253.804688 C 71.472656 254.351562 72.257812 254.523438 72.464844 254.03125 C 79.222656 237.9375 99.335938 226.035156 116.6875 226.773438 C 117.5625 226.808594 117.769531 225.648438 117.109375 225.21875 Z M 232.589844 247.503906 C 230.148438 251.941406 228.871094 256.753906 227.871094 261.691406 C 226.921875 266.394531 225.390625 271.851562 225.574219 276.652344 C 225.59375 277.117188 226.3125 277.410156 226.535156 276.910156 C 228.332031 272.871094 228.359375 267.722656 229.109375 263.386719 C 230.007812 258.15625 231.199219 252.855469 233.59375 248.089844 C 233.929688 247.425781 232.953125 246.84375 232.589844 247.503906 Z M 232.589844 247.503906 " fill-opacity="1" fill-rule="nonzero"/></svg>