<svg xmlns="http://www.w3.org/2000/svg" xmlns:xlink="http://www.w3.org/1999/xlink" width="500" zoomAndPan="magnify" viewBox="0 0 375 374.999991" height="500" preserveAspectRatio="xMidYMid meet" version="1.0"><defs><clipPath id="6902646b9e"><path d="M 5 12 L 371.25 12 L 371.25 368.972656 L 5 368.972656 Z M 5 12 " clip-rule="nonzero"/></clipPath></defs><g clip-path="url(#6902646b9e)"><path fill="#000000" d="M 233.058594 172.839844 C 238.332031 174.824219 243.417969 177.285156 248.21875 180.242188 C 250.699219 181.753906 253.089844 183.386719 255.40625 185.136719 C 257.535156 186.769531 259.875 188.449219 261.648438 190.457031 C 262.285156 191.167969 261.269531 192.398438 260.488281 191.804688 C 258.265625 190.175781 256.257812 188.210938 254.058594 186.53125 C 251.929688 184.875 249.707031 183.339844 247.414062 181.921875 C 242.707031 178.964844 237.71875 176.457031 232.515625 174.421875 C 231.476562 174.019531 232.089844 172.484375 233.082031 172.839844 Z M 371.203125 291.375 C 371.203125 301.6875 371.203125 312.023438 371.132812 322.332031 C 371.085938 327.535156 371.039062 332.738281 370.988281 337.964844 C 370.988281 340.519531 370.941406 343.074219 370.917969 345.628906 C 370.917969 348.019531 371.132812 350.570312 370.777344 352.960938 C 371.0625 353.695312 370.613281 354.78125 369.546875 354.78125 C 357.722656 354.921875 345.902344 354.972656 334.078125 354.996094 C 334.078125 355.300781 334.078125 355.609375 334.078125 355.917969 C 334.054688 359.464844 334.195312 363.035156 333.582031 366.511719 C 333.367188 367.648438 331.382812 368.238281 331.167969 366.796875 C 330.601562 362.917969 330.886719 358.945312 330.933594 355.019531 C 318.730469 355.019531 306.554688 355.019531 294.351562 354.921875 C 285.792969 354.875 277.230469 354.804688 268.671875 354.710938 C 268.671875 355.113281 268.671875 355.515625 268.671875 355.894531 C 268.71875 359.371094 268.929688 362.894531 268.457031 366.347656 C 278.816406 365.898438 289.195312 366.203125 299.554688 366.253906 C 304.660156 366.277344 309.746094 366.300781 314.851562 366.371094 C 317.5 366.394531 320.148438 366.417969 322.796875 366.464844 C 325.164062 366.488281 328.023438 366.0625 330.246094 366.9375 C 330.789062 367.152344 330.671875 367.765625 330.175781 367.953125 C 327.8125 368.804688 324.832031 368.332031 322.347656 368.332031 C 319.796875 368.332031 317.242188 368.332031 314.710938 368.332031 C 309.605469 368.332031 304.519531 368.285156 299.410156 368.238281 C 289.03125 368.167969 278.625 368.308594 268.269531 367.71875 C 268.007812 367.71875 267.867188 367.601562 267.773438 367.457031 C 267.109375 367.835938 266.210938 367.742188 266.046875 366.820312 C 265.335938 362.941406 265.550781 358.96875 265.527344 355.042969 C 265.527344 354.945312 265.527344 354.828125 265.527344 354.734375 C 230.71875 354.402344 195.886719 353.859375 161.078125 353.410156 C 148.617188 353.246094 136.15625 353.125 123.671875 353.03125 C 123.671875 354 123.671875 354.996094 123.671875 355.964844 C 123.648438 359.511719 123.789062 363.082031 123.175781 366.558594 C 123.152344 366.703125 123.078125 366.84375 123.007812 366.984375 C 123.007812 366.984375 123.054688 366.984375 123.078125 366.984375 C 123.625 367.175781 123.503906 367.835938 123.007812 368.003906 C 120.3125 368.828125 117.097656 368.378906 114.308594 368.378906 C 111.351562 368.378906 108.417969 368.378906 105.464844 368.378906 C 99.574219 368.378906 93.6875 368.332031 87.800781 368.285156 C 75.929688 368.214844 64.035156 368.355469 52.1875 367.765625 C 52.046875 367.765625 51.976562 367.695312 51.878906 367.625 C 51.832031 367.601562 51.738281 367.578125 51.691406 367.554688 C 51.503906 367.410156 51.335938 367.199219 51.289062 366.890625 C 50.578125 363.011719 50.792969 359.039062 50.769531 355.113281 C 50.769531 354.261719 50.769531 353.433594 50.769531 352.582031 C 43.226562 352.582031 35.660156 352.582031 28.117188 352.605469 C 28.09375 352.867188 28.066406 353.125 28.019531 353.386719 C 27.878906 354.167969 26.554688 354.546875 26.414062 353.574219 C 26.011719 351.042969 26.34375 348.277344 26.367188 345.699219 C 26.390625 343.144531 26.4375 340.589844 26.460938 338.035156 C 26.53125 332.929688 26.578125 327.820312 26.648438 322.710938 C 26.769531 312.375 27.003906 302.042969 27.195312 291.730469 C 26.058594 291.730469 26.269531 290.121094 27.3125 290.097656 C 35.257812 289.980469 43.203125 289.859375 51.125 289.765625 C 51.265625 277.515625 51.40625 265.289062 51.550781 253.039062 C 43.722656 253.039062 35.917969 253.039062 28.09375 253.0625 C 28.066406 253.320312 28.042969 253.582031 27.996094 253.839844 C 27.855469 254.621094 26.53125 255 26.390625 254.03125 C 25.988281 251.5 26.320312 248.734375 26.34375 246.15625 C 26.367188 243.601562 26.414062 241.046875 26.4375 238.492188 C 26.507812 233.382812 26.554688 228.277344 26.625 223.167969 C 26.746094 212.761719 26.980469 202.378906 27.167969 191.972656 C 26.34375 191.972656 26.484375 190.765625 27.265625 190.742188 C 31.046875 190.695312 34.832031 190.648438 38.613281 190.601562 C 36.886719 188.09375 35.328125 185.515625 34.003906 182.773438 C 30.929688 176.386719 29.320312 169.125 30.503906 162.054688 C 31.070312 158.671875 32.253906 155.503906 34.050781 152.570312 C 35.800781 149.730469 37.90625 147.105469 39.558594 144.199219 C 41.144531 141.359375 42.160156 138.097656 41.050781 134.902344 C 40.058594 132.066406 37.667969 130.007812 35.234375 128.421875 C 32.75 126.816406 30.101562 125.539062 27.523438 124.070312 C 24.617188 122.417969 21.898438 120.453125 19.390625 118.230469 C 10.027344 109.882812 -0.09375 93.5625 8.394531 81.40625 C 10.144531 78.898438 12.554688 76.960938 15.488281 75.992188 C 18.917969 74.855469 22.605469 75.210938 26.128906 74.546875 C 33.082031 73.246094 38.117188 67.664062 41.808594 62.011719 C 45.78125 55.957031 48.804688 49.242188 53.820312 43.921875 C 58.097656 39.402344 64.4375 35.925781 70.820312 36.566406 C 85.457031 38.007812 85.90625 55.980469 91.464844 66.011719 C 99.269531 80.105469 117.546875 74.972656 129.488281 82.421875 C 134.785156 85.710938 138.519531 91.222656 137.71875 97.628906 C 136.9375 103.875 132.871094 109.101562 131.804688 115.273438 C 131.238281 118.5625 131.972656 121.542969 133.625 124.402344 C 135.234375 127.167969 137.363281 129.605469 138.851562 132.445312 C 142.351562 139.089844 140.816406 146.730469 138.023438 153.328125 C 135.117188 160.1875 130.457031 166.761719 129.796875 174.351562 C 129.324219 179.722656 131.261719 186.296875 136.511719 188.730469 C 137.667969 180.3125 139.066406 171.726562 143.441406 164.324219 C 146.914062 158.460938 152.613281 153.683594 159.304688 152.050781 C 162.476562 151.269531 165.878906 151.269531 169 152.261719 C 171.722656 153.136719 174.109375 154.699219 176.617188 156 C 176.992188 149.070312 170.277344 143.796875 165.832031 139.277344 C 161.601562 134.972656 158.125 129.890625 155.664062 124.355469 C 154.457031 121.636719 153.324219 118.726562 152.734375 115.816406 C 152.210938 113.3125 152.78125 110.828125 155.144531 109.550781 C 160.324219 106.757812 165.21875 112.152344 168.316406 115.628906 C 172.195312 120.003906 175.386719 124.96875 177.820312 130.269531 C 178.71875 128.730469 177.300781 126.035156 176.78125 124.59375 C 175.929688 122.320312 175.21875 120.003906 174.558594 117.664062 C 173.1875 112.835938 172.242188 107.917969 171.695312 102.929688 C 170.796875 94.460938 170.726562 85.332031 172.714844 76.984375 C 173.542969 73.53125 176.378906 71.566406 179.902344 72.585938 C 183.09375 73.53125 185.484375 76.273438 186.949219 79.160156 C 190.285156 85.734375 189.597656 93.5625 189.882812 100.707031 C 190.210938 109.125 191.441406 117.449219 193.332031 125.65625 C 196.242188 117.898438 199.054688 110.046875 202.34375 102.457031 C 203.550781 99.710938 205.132812 96.921875 207.78125 95.335938 C 210.074219 93.988281 213.269531 93.585938 215.632812 95.027344 C 221.804688 98.859375 216.390625 107.871094 214.285156 112.410156 C 207.214844 127.761719 200.121094 143.109375 193.003906 158.4375 C 196.953125 158.199219 200.925781 157.820312 204.800781 158.082031 C 208.539062 158.339844 212.394531 159.167969 215.417969 161.488281 C 217.097656 162.789062 218.421875 164.5625 219.109375 166.546875 C 223.484375 156.851562 228.070312 147.25 232.730469 137.695312 C 235.542969 131.949219 238.425781 126.199219 241.429688 120.546875 C 244.054688 115.582031 246.679688 110.542969 249.753906 105.859375 C 250.511719 104.703125 252.308594 105.648438 251.597656 106.902344 C 248.429688 112.484375 245.191406 117.992188 242.1875 123.691406 C 239.609375 128.566406 237.152344 133.507812 234.738281 138.476562 C 234.785156 138.476562 234.855469 138.476562 234.902344 138.476562 C 246.871094 140.816406 257.984375 146.5625 266.804688 154.984375 C 266.804688 153.210938 266.804688 151.410156 266.757812 149.636719 C 266.757812 148.882812 267.394531 148.503906 268.03125 148.527344 C 268.128906 148.433594 268.246094 148.359375 268.410156 148.359375 C 276.757812 148.101562 285.105469 148.195312 293.476562 148.289062 C 293.570312 148.148438 293.664062 148.007812 293.738281 147.863281 C 293.3125 147.957031 292.816406 147.792969 292.648438 147.296875 C 287.375 131.070312 270.871094 120.359375 253.867188 122.722656 C 252.898438 122.867188 252.640625 121.46875 253.585938 121.328125 C 262.664062 120.003906 272.078125 121.894531 279.761719 127.003906 C 286.808594 131.6875 291.914062 138.6875 294.398438 146.753906 C 294.730469 146.183594 295.085938 145.617188 295.390625 145.050781 C 297.472656 141.3125 298.726562 137.269531 297.875 133.011719 C 297.117188 129.226562 295.039062 125.84375 292.578125 122.9375 C 287.351562 116.738281 280.542969 112.4375 273.09375 109.859375 C 272.761719 110.023438 272.429688 109.859375 272.289062 109.574219 C 266.023438 107.539062 259.308594 106.6875 252.6875 107.042969 C 251.8125 107.089844 251.8125 105.789062 252.617188 105.648438 C 258.148438 104.65625 263.753906 104.9375 269.167969 106.167969 C 269.167969 106.050781 269.167969 105.957031 269.191406 105.8125 C 271.105469 98.8125 267.890625 91.269531 262.617188 86.585938 C 256.894531 81.5 248.902344 79.773438 241.429688 79.867188 C 238.78125 79.894531 235.660156 80.625 233.203125 79.347656 C 230.742188 78.070312 230.480469 75.164062 232.019531 73.058594 C 233.863281 70.550781 236.796875 70.125 239.351562 68.683594 C 243.179688 66.507812 240.792969 62.605469 238.285156 60.429688 C 235.566406 58.039062 232.304688 56.171875 228.96875 54.777344 C 225.871094 53.476562 222.417969 52.578125 220.195312 49.832031 C 215.609375 44.179688 221.496094 38.101562 226.535156 35.59375 C 229.347656 34.199219 232.5625 33.394531 235.707031 34.011719 C 238.925781 34.648438 241.429688 36.871094 243.582031 39.214844 C 246.277344 42.148438 248.902344 45.175781 251.550781 48.152344 C 253.324219 50.164062 257.605469 55.25 260.300781 51.582031 C 262.003906 49.265625 261.910156 46.050781 264.699219 44.488281 C 267.207031 43.070312 269.855469 44.675781 270.585938 47.277344 C 271.082031 49.027344 270.753906 50.945312 270.753906 52.71875 C 270.753906 54.492188 270.871094 56.3125 271.367188 58.015625 C 272.101562 60.523438 274.015625 63.054688 276.570312 63.785156 C 276.332031 62.535156 276.121094 61.28125 276.023438 60.003906 C 275.859375 57.804688 276.378906 55.484375 278.273438 54.136719 C 280.046875 52.882812 281.984375 53.332031 283.757812 54.304688 C 284.84375 54.894531 285.980469 55.722656 287.28125 55.628906 C 288.558594 55.507812 289.621094 54.5625 290.238281 53.523438 C 291.773438 50.96875 291.464844 47.421875 291.65625 44.558594 C 291.867188 41.507812 292.152344 38.480469 292.507812 35.453125 C 292.933594 31.789062 293.5 25.804688 298.371094 25.566406 C 300.949219 25.449219 302.910156 27.339844 305.277344 28.027344 C 307.6875 28.738281 310.503906 28.167969 312.441406 26.5625 C 314.523438 24.859375 315.445312 22.160156 316.769531 19.914062 C 317.972656 17.859375 319.605469 16.132812 321.617188 14.832031 C 329.539062 9.652344 341.761719 13.339844 343.960938 23.035156 C 345.074219 27.933594 342.589844 31.835938 338.261719 33.964844 C 336.039062 35.074219 333.558594 35.808594 331.714844 37.558594 C 329.84375 39.332031 328.992188 42.027344 331.261719 43.898438 C 334.761719 46.734375 340.53125 45.550781 342.898438 50.046875 C 345.144531 54.28125 342.140625 59.007812 338.382812 61.042969 C 333.488281 63.691406 327.644531 63.007812 322.46875 64.757812 C 317.621094 66.386719 312.628906 69.863281 310.125 74.429688 C 308.703125 77.03125 309.035156 79.917969 311.992188 81.027344 C 313.625 81.621094 315.585938 82.019531 316.53125 83.675781 C 316.722656 84.007812 316.839844 84.316406 316.910156 84.621094 C 319.039062 83.84375 321.519531 83.511719 322.988281 85.59375 C 323.742188 86.65625 323.648438 87.886719 323.367188 89.070312 C 322.941406 90.796875 322.585938 92.59375 324.832031 93.066406 C 326.582031 93.445312 328.519531 92.285156 330.058594 91.625 C 331.59375 90.960938 333.15625 90.347656 334.714844 89.753906 C 337.910156 88.546875 341.171875 87.320312 344.503906 86.539062 C 349.328125 85.402344 354.980469 85.6875 357.722656 90.488281 C 360.230469 94.839844 358.882812 100.089844 355.546875 103.589844 C 351.550781 107.777344 345.6875 108.699219 340.179688 108.507812 C 338.570312 108.460938 336.585938 108.320312 335.332031 109.550781 C 334.195312 110.660156 334.386719 112.058594 335.683594 112.886719 C 337.507812 114.042969 339.585938 114.492188 340.628906 116.574219 C 342.804688 120.902344 339.398438 125.445312 334.976562 126.035156 C 329.417969 126.769531 326.179688 122.015625 322.492188 118.773438 C 313.671875 111.015625 300.359375 110.804688 291.089844 117.757812 C 292.863281 119.4375 294.492188 121.234375 295.910156 123.195312 C 298.253906 126.460938 300.050781 130.246094 300.359375 134.289062 C 300.40625 134.878906 300.40625 135.449219 300.382812 136.015625 C 307.59375 134.335938 315.824219 133.199219 322.230469 137.671875 C 323.863281 138.804688 325.328125 140.175781 327.21875 140.863281 C 329.089844 141.550781 331.121094 141.644531 333.085938 141.878906 C 336.300781 142.234375 339.375 143.0625 342.28125 144.480469 C 347.933594 147.226562 352.6875 151.910156 355.476562 157.535156 C 361.128906 169.03125 357.34375 184.949219 346.398438 192.066406 C 345.167969 192.871094 343.84375 191.050781 344.980469 190.128906 C 350.371094 185.65625 354.175781 179.980469 355.195312 172.933594 C 356.945312 160.847656 349.328125 148.976562 337.742188 145.214844 C 334.621094 144.199219 331.40625 144.222656 328.214844 143.535156 C 324.691406 142.777344 322.609375 140.296875 319.652344 138.523438 C 313.859375 135.023438 306.578125 136.109375 300.285156 137.503906 C 299.933594 140.367188 298.867188 143.0625 297.472656 145.617188 C 296.976562 146.515625 296.457031 147.390625 295.9375 148.265625 C 297.140625 148.265625 298.347656 148.289062 299.554688 148.289062 C 304.660156 148.3125 309.746094 148.359375 314.851562 148.40625 C 317.5 148.433594 320.148438 148.457031 322.796875 148.480469 C 325.210938 148.503906 327.90625 148.195312 330.222656 148.855469 C 330.625 148.976562 330.53125 149.519531 330.175781 149.613281 C 327.714844 150.253906 324.925781 149.898438 322.394531 149.875 L 314.757812 149.875 C 309.652344 149.828125 304.566406 149.78125 299.460938 149.757812 C 297.96875 149.757812 296.503906 149.757812 295.011719 149.757812 C 294.164062 149.757812 293.335938 149.757812 292.484375 149.757812 C 284.679688 149.734375 276.875 149.707031 269.097656 149.378906 C 269.097656 149.472656 269.167969 149.542969 269.167969 149.660156 C 269.308594 160.753906 269.378906 171.84375 269.429688 182.9375 C 269.429688 184.214844 269.429688 185.515625 269.429688 186.792969 C 269.429688 188.613281 269.429688 190.410156 269.429688 192.230469 C 289.667969 192.421875 309.933594 192.515625 330.175781 192.515625 C 330.175781 178.230469 330.292969 163.945312 330.460938 149.660156 C 330.460938 148.195312 332.917969 148.101562 332.894531 149.660156 C 332.730469 163.945312 332.730469 178.230469 332.777344 192.515625 C 345.097656 192.515625 357.394531 192.445312 369.710938 192.304688 C 369.785156 192.304688 369.832031 192.328125 369.902344 192.328125 C 369.902344 192.183594 369.902344 192.042969 369.902344 191.925781 C 369.902344 191.144531 371.203125 191.097656 371.203125 191.925781 C 371.203125 202.238281 371.203125 212.570312 371.132812 222.882812 C 371.085938 228.085938 371.035156 233.289062 370.988281 238.515625 C 370.988281 241.070312 370.941406 243.625 370.917969 246.179688 C 370.917969 248.566406 371.132812 251.121094 370.777344 253.511719 C 371.0625 254.242188 370.613281 255.332031 369.546875 255.332031 C 357.464844 255.472656 345.378906 255.542969 333.296875 255.566406 C 333.390625 264.296875 333.488281 273.046875 333.605469 281.773438 C 333.652344 285.109375 333.699219 288.417969 333.722656 291.753906 C 345.734375 291.753906 357.722656 291.683594 369.738281 291.539062 C 369.808594 291.539062 369.855469 291.5625 369.902344 291.5625 C 369.902344 291.539062 369.902344 291.492188 369.902344 291.46875 C 369.902344 290.6875 371.203125 290.640625 371.203125 291.46875 Z M 273.566406 107.328125 C 274.84375 105.742188 275.90625 104.015625 276.734375 102.171875 C 281.535156 91.601562 279.667969 79.867188 277.539062 68.894531 C 277.351562 67.949219 277.160156 67.003906 276.949219 66.058594 C 274.535156 65.773438 272.359375 64.402344 270.847656 62.367188 C 268.625 59.363281 268.269531 55.460938 268.386719 51.84375 C 268.433594 50.164062 269.003906 47.136719 267.085938 46.191406 C 265.148438 45.222656 263.988281 48.4375 263.515625 49.714844 C 262.40625 52.671875 260.585938 55.226562 257.0625 54.800781 C 253.867188 54.421875 251.765625 51.867188 249.777344 49.597656 C 247.128906 46.617188 244.503906 43.589844 241.808594 40.632812 C 239.515625 38.125 236.914062 35.855469 233.34375 35.832031 C 229.890625 35.832031 226.34375 37.558594 223.789062 39.804688 C 221.140625 42.148438 219.558594 45.671875 222.347656 48.601562 C 224.761719 51.132812 228.542969 51.867188 231.617188 53.308594 C 234.714844 54.777344 237.789062 56.667969 240.320312 59.03125 C 242.304688 60.878906 244.246094 63.644531 243.558594 66.507812 C 242.875 69.367188 240.152344 70.621094 237.671875 71.613281 C 236.203125 72.207031 234.691406 72.84375 233.792969 74.214844 C 232.917969 75.542969 233.34375 76.914062 234.832031 77.410156 C 236.179688 77.882812 237.742188 77.667969 239.136719 77.597656 C 240.746094 77.503906 242.351562 77.480469 243.984375 77.527344 C 247.222656 77.667969 250.464844 78.117188 253.5625 79.042969 C 259.496094 80.816406 264.792969 84.246094 268.246094 89.449219 C 271.53125 94.390625 272.785156 100.46875 271.035156 106.191406 C 270.988281 106.308594 270.941406 106.40625 270.871094 106.5 C 271.769531 106.734375 272.667969 107.019531 273.566406 107.328125 Z M 321.261719 114.964844 C 323.390625 116.386719 325.164062 118.136719 326.960938 119.933594 C 328.734375 121.707031 330.742188 123.621094 333.34375 123.90625 C 335.734375 124.167969 338.382812 123.007812 338.972656 120.5 C 339.609375 117.828125 337.980469 116.339844 335.78125 115.25 C 334.125 114.445312 332.375 113.335938 332.398438 111.277344 C 332.398438 109.148438 334.148438 107.445312 336.0625 106.832031 C 338.734375 105.957031 341.738281 106.640625 344.503906 106.382812 C 347.460938 106.097656 350.488281 105.152344 352.828125 103.28125 C 356.683594 100.183594 358.503906 94.226562 354.816406 90.226562 C 350.914062 86.019531 344.082031 88.621094 339.539062 90.15625 C 336.65625 91.125 333.792969 92.214844 330.980469 93.421875 C 328.710938 94.390625 326.203125 95.738281 323.671875 94.957031 C 321.664062 94.34375 320.457031 92.617188 320.742188 90.511719 C 320.929688 89.210938 322.019531 87.390625 320.671875 86.398438 C 319.535156 85.570312 317.949219 86.253906 316.792969 86.796875 C 315.75 89.921875 311.210938 92.59375 308.894531 93.800781 C 300.664062 98.101562 288.085938 99.828125 285.011719 110.117188 C 284.632812 111.394531 282.550781 110.945312 282.929688 109.574219 C 283.496094 107.46875 284.539062 105.578125 285.957031 103.921875 C 292.578125 96.140625 303.410156 95.667969 311.257812 89.824219 C 312.75 88.714844 316.4375 85.710938 313.648438 84.007812 C 312.0625 83.039062 310.101562 82.992188 308.679688 81.667969 C 304.851562 78.140625 308.28125 72.796875 310.976562 69.839844 C 314.285156 66.246094 318.660156 63.597656 323.367188 62.296875 C 328.402344 60.902344 334.738281 61.707031 338.949219 58.109375 C 340.792969 56.550781 341.976562 53.855469 341.007812 51.488281 C 340.058594 49.171875 337.363281 48.507812 335.164062 47.941406 C 331.5 46.996094 326.722656 44.984375 327.597656 40.300781 C 328.496094 35.476562 333.652344 33.917969 337.410156 31.976562 C 339.730469 30.792969 341.550781 29.113281 341.832031 26.394531 C 342.09375 23.863281 341.148438 21.238281 339.5625 19.277344 C 336.441406 15.445312 331.265625 13.578125 326.464844 14.832031 C 324.144531 15.421875 321.996094 16.675781 320.339844 18.402344 C 318.542969 20.269531 317.621094 22.707031 316.296875 24.882812 C 313.929688 28.761719 309.722656 30.984375 305.179688 30.0625 C 302.839844 29.589844 300.5 27.222656 298.0625 27.554688 C 295.746094 27.863281 295.132812 30.867188 294.847656 32.78125 C 294.421875 35.738281 294.140625 38.71875 293.878906 41.695312 C 293.617188 44.605469 293.640625 47.609375 293.191406 50.496094 C 292.578125 54.492188 289.386719 58.9375 284.84375 57.140625 C 282.90625 56.382812 280.328125 53.878906 278.601562 56.335938 C 277.207031 58.347656 277.988281 61.445312 278.554688 63.90625 C 278.648438 63.90625 278.722656 63.90625 278.816406 63.90625 C 280.28125 63.667969 280.683594 65.773438 279.242188 66.011719 C 279.171875 66.011719 279.074219 66.011719 279.003906 66.011719 C 280.046875 71.496094 281.15625 76.984375 281.535156 82.566406 C 282.125 91.457031 280.566406 100.777344 274.820312 107.730469 C 275.8125 108.085938 276.804688 108.484375 277.773438 108.910156 C 282.101562 110.804688 286.242188 113.382812 289.859375 116.527344 C 298.796875 109.335938 311.566406 108.507812 321.238281 114.941406 Z M 217.097656 176.765625 C 214.921875 181.683594 212.792969 186.628906 210.335938 191.429688 C 218.800781 191.546875 227.265625 191.664062 235.753906 191.757812 C 244.882812 191.878906 254.011719 191.972656 263.113281 192.066406 C 263.066406 191.832031 263.113281 191.570312 263.304688 191.285156 C 264.460938 189.65625 265.667969 188.023438 266.851562 186.390625 C 266.851562 176.648438 266.851562 166.902344 266.757812 157.160156 C 266.496094 157.183594 266.234375 157.136719 266 156.921875 C 257.226562 148.457031 246.160156 142.613281 234.21875 140.226562 C 234.078125 140.203125 233.957031 140.152344 233.863281 140.082031 C 230.789062 146.445312 227.808594 152.855469 224.902344 159.3125 C 222.277344 165.128906 219.675781 170.945312 217.097656 176.789062 Z M 265.3125 192.089844 C 265.808594 192.089844 266.332031 192.089844 266.828125 192.089844 C 266.828125 191.429688 266.828125 190.742188 266.828125 190.078125 C 266.332031 190.742188 265.808594 191.429688 265.3125 192.089844 Z M 177.84375 156.496094 C 178.484375 156.78125 179.121094 157.0625 179.785156 157.277344 C 183.355469 158.460938 187.042969 158.601562 190.757812 158.484375 C 194.304688 150.796875 197.851562 143.109375 201.398438 135.398438 C 204.660156 128.351562 207.921875 121.304688 211.1875 114.257812 C 212.652344 111.0625 214.378906 107.917969 215.539062 104.582031 C 216.460938 101.980469 217.191406 98.152344 214.285156 96.496094 C 211.542969 94.933594 208.183594 96.660156 206.410156 98.882812 C 204.351562 101.507812 203.335938 104.890625 202.152344 107.964844 C 199.410156 115.109375 196.691406 122.25 193.972656 129.394531 C 193.617188 130.316406 192.222656 130.410156 191.9375 129.394531 C 189.457031 119.789062 188.011719 109.929688 187.636719 100.019531 C 187.375 93.089844 188.085938 85.167969 184.324219 78.992188 C 182.929688 76.675781 179.214844 72.703125 176.167969 74.617188 C 174.34375 75.753906 174.320312 78.992188 174.0625 80.886719 C 173.777344 82.824219 173.589844 84.789062 173.445312 86.75 C 172.832031 95.242188 173.496094 103.78125 175.410156 112.058594 C 176.402344 116.339844 177.773438 120.453125 179.359375 124.542969 C 180.445312 127.335938 181.441406 131.523438 177.796875 132.964844 C 177.277344 133.175781 176.472656 133.175781 176.191406 132.539062 C 173.636719 126.507812 170.113281 120.902344 165.667969 116.078125 C 163.871094 114.113281 161.789062 111.632812 159.117188 110.921875 C 157.910156 110.589844 156.46875 110.710938 155.476562 111.535156 C 154.246094 112.554688 154.507812 114.234375 154.8125 115.628906 C 156.066406 121.066406 158.550781 126.292969 161.648438 130.929688 C 164.933594 135.851562 169.425781 139.539062 173.234375 144.007812 C 176.238281 147.53125 178.4375 151.882812 177.820312 156.496094 Z M 137.882812 190.480469 C 161.527344 190.71875 185.175781 191.050781 208.820312 191.378906 C 208.820312 191.332031 208.820312 191.261719 208.820312 191.214844 C 210.761719 185.113281 213.386719 179.273438 215.941406 173.40625 C 216.269531 172.625 216.648438 171.84375 216.980469 171.066406 C 216.980469 170.96875 216.957031 170.898438 216.980469 170.804688 C 217.691406 166.476562 214.425781 163 210.59375 161.558594 C 206.695312 160.089844 202.367188 160.136719 198.277344 160.328125 C 191.109375 160.636719 183.664062 161.628906 176.898438 158.648438 C 176.710938 158.648438 176.542969 158.578125 176.402344 158.460938 C 176.402344 158.460938 176.378906 158.460938 176.355469 158.460938 C 173.070312 156.898438 170.136719 154.605469 166.519531 153.847656 C 163.46875 153.210938 160.253906 153.632812 157.34375 154.722656 C 142.964844 160.089844 140.058594 176.742188 138.09375 190.078125 C 138.070312 190.269531 137.976562 190.410156 137.882812 190.53125 Z M 40.71875 190.480469 C 44.480469 190.433594 48.261719 190.386719 52.023438 190.363281 C 52.070312 176.765625 52.023438 163.164062 51.878906 149.542969 C 51.878906 149.402344 51.925781 149.28125 51.953125 149.164062 C 51.527344 148.953125 51.667969 148.265625 52.210938 148.242188 C 62.804688 147.957031 73.421875 148.125 84.039062 148.195312 C 83.519531 146.207031 83.355469 144.105469 83.023438 142.09375 C 82.621094 139.492188 82.171875 136.867188 81.675781 134.265625 C 78.292969 116.101562 72.902344 98.175781 65.476562 81.265625 C 65.050781 80.269531 66.636719 79.417969 67.0625 80.414062 C 69.285156 85.308594 71.390625 90.25 73.304688 95.265625 C 76.589844 103.875 79.359375 112.671875 81.582031 121.613281 C 82.714844 126.222656 83.707031 130.859375 84.558594 135.519531 C 84.960938 137.765625 85.339844 140.011719 85.671875 142.257812 C 85.953125 144.175781 86.355469 146.207031 86.285156 148.195312 C 86.804688 148.195312 87.304688 148.195312 87.824219 148.195312 C 93.804688 148.21875 99.789062 148.265625 105.792969 148.3125 C 108.75 148.335938 111.683594 148.359375 114.636719 148.382812 C 116.695312 148.382812 118.847656 148.242188 120.953125 148.429688 C 121.304688 148.359375 121.683594 148.40625 121.96875 148.597656 C 122.300781 148.644531 122.628906 148.667969 122.960938 148.761719 C 123.363281 148.855469 123.269531 149.425781 122.914062 149.519531 C 122.773438 149.542969 122.605469 149.566406 122.441406 149.589844 C 122.300781 163.164062 122.277344 176.765625 122.324219 190.339844 C 126.34375 190.363281 130.339844 190.386719 134.359375 190.433594 C 132.632812 189.464844 131.191406 188.140625 130.03125 186.460938 C 126.652344 181.566406 126.460938 175.25 127.976562 169.667969 C 129.960938 162.410156 134.476562 156.1875 136.820312 149.070312 C 138 145.523438 138.710938 141.691406 138.046875 137.953125 C 137.433594 134.550781 135.542969 131.757812 133.601562 128.96875 C 131.828125 126.414062 130.03125 123.789062 129.324219 120.714844 C 128.683594 117.945312 129.0625 115.0625 129.867188 112.363281 C 131.570312 106.617188 135.683594 101.082031 135.257812 94.886719 C 134.785156 88.003906 128.28125 83.582031 122.253906 81.714844 C 115.300781 79.5625 107.851562 79.539062 101.019531 76.914062 C 98.0625 75.777344 95.273438 74.242188 93 72.015625 C 90.613281 69.675781 88.933594 66.695312 87.679688 63.621094 C 85.246094 57.707031 84.15625 51.253906 80.730469 45.742188 C 79.097656 43.140625 76.898438 40.796875 74.035156 39.519531 C 71.058594 38.195312 67.699219 38.292969 64.625 39.238281 C 57.746094 41.367188 53.203125 47.160156 49.585938 53.050781 C 45.992188 58.890625 42.894531 65.109375 37.976562 69.984375 C 35.777344 72.160156 33.199219 74.074219 30.316406 75.28125 C 27.003906 76.652344 23.597656 76.746094 20.097656 77.078125 C 16.550781 77.410156 13.382812 78.496094 11.019531 81.265625 C 8.84375 83.820312 7.683594 87.152344 7.519531 90.488281 C 7.164062 97.914062 11.113281 105.246094 15.628906 110.898438 C 19.863281 116.195312 25.113281 120.214844 31.023438 123.433594 C 35.707031 125.988281 41.308594 128.800781 43.058594 134.242188 C 45.046875 140.390625 40.765625 145.925781 37.480469 150.679688 C 35.539062 153.492188 33.839844 156.378906 32.941406 159.714844 C 31.945312 163.402344 31.851562 167.328125 32.394531 171.089844 C 33.4375 178.136719 36.769531 184.59375 40.742188 190.410156 Z M 114.285156 149.828125 C 111.328125 149.828125 108.394531 149.828125 105.441406 149.804688 C 99.550781 149.804688 93.664062 149.730469 87.777344 149.707031 C 87.183594 149.707031 86.59375 149.707031 86.003906 149.707031 C 85.578125 150.109375 84.867188 150.253906 84.535156 149.707031 C 74.4375 149.660156 64.34375 149.683594 54.269531 149.332031 C 54.269531 149.402344 54.316406 149.472656 54.316406 149.566406 C 54.480469 163.164062 54.574219 176.742188 54.601562 190.339844 C 70.539062 190.199219 86.5 190.128906 102.4375 190.199219 C 108.207031 190.222656 113.976562 190.292969 119.746094 190.339844 C 119.769531 176.859375 119.839844 163.355469 120.007812 149.875 C 118.089844 149.945312 116.128906 149.828125 114.234375 149.804688 Z M 51.527344 251.003906 C 52.496094 251.003906 53.464844 251.003906 54.433594 250.980469 C 70.441406 250.789062 86.453125 250.695312 102.484375 250.789062 C 108.324219 250.8125 114.140625 250.886719 119.980469 250.933594 C 120.929688 250.933594 121.875 250.933594 122.820312 250.933594 C 160.464844 251.265625 198.109375 251.832031 235.753906 252.304688 C 245.945312 252.421875 256.113281 252.539062 266.308594 252.660156 C 267.277344 252.660156 268.246094 252.683594 269.214844 252.683594 C 289.597656 252.871094 310.003906 252.988281 330.390625 252.964844 C 331.335938 252.964844 332.28125 252.964844 333.25 252.964844 C 345.167969 252.964844 357.085938 252.894531 369.003906 252.753906 C 368.839844 250.554688 369.050781 248.238281 369.074219 246.0625 C 369.097656 243.507812 369.144531 240.953125 369.167969 238.398438 C 369.238281 233.289062 369.289062 228.179688 369.359375 223.074219 C 369.476562 213.375 369.6875 203.679688 369.878906 193.980469 C 369.785156 194.007812 369.6875 194.054688 369.570312 194.054688 C 357.320312 194.195312 345.050781 194.265625 332.800781 194.289062 C 331.925781 194.289062 331.050781 194.289062 330.199219 194.289062 C 318.257812 194.289062 306.339844 194.289062 294.398438 194.21875 C 286.074219 194.171875 277.773438 194.101562 269.453125 194.007812 C 268.578125 194.007812 267.726562 194.007812 266.851562 194.007812 C 231.59375 193.675781 196.359375 193.105469 161.128906 192.679688 C 148.214844 192.515625 135.304688 192.375 122.394531 192.230469 C 121.519531 192.230469 120.644531 192.230469 119.792969 192.207031 C 98.085938 191.972656 76.355469 191.832031 54.648438 191.855469 C 53.796875 191.855469 52.921875 191.855469 52.070312 191.855469 C 48.5 191.855469 44.929688 191.855469 41.382812 191.902344 C 41.167969 192.46875 40.175781 192.753906 39.726562 192.136719 C 39.679688 192.066406 39.632812 191.996094 39.585938 191.925781 C 35.894531 191.925781 32.183594 191.925781 28.492188 191.972656 C 28.492188 202.285156 28.492188 212.570312 28.421875 222.882812 C 28.375 228.085938 28.328125 233.289062 28.28125 238.515625 C 28.28125 241.070312 28.234375 243.625 28.210938 246.179688 C 28.210938 247.882812 28.304688 249.679688 28.234375 251.429688 C 36.011719 251.3125 43.792969 251.214844 51.574219 251.121094 Z M 330.4375 255.449219 C 318.398438 255.449219 306.386719 255.449219 294.351562 255.378906 C 285.980469 255.332031 277.585938 255.261719 269.214844 255.167969 C 269.144531 263.988281 269.097656 272.808594 269.003906 281.65625 C 268.980469 284.894531 268.929688 288.109375 268.90625 291.351562 C 289.527344 291.539062 310.125 291.660156 330.742188 291.636719 C 330.625 279.574219 330.554688 267.535156 330.4375 255.472656 Z M 161.078125 253.816406 C 148.335938 253.652344 135.613281 253.535156 122.867188 253.414062 C 122.984375 262.828125 123.078125 272.242188 123.199219 281.65625 C 123.222656 284.304688 123.269531 286.953125 123.292969 289.601562 C 160.796875 289.933594 198.277344 290.5 235.777344 290.972656 C 245.804688 291.089844 255.855469 291.210938 265.882812 291.304688 C 266.023438 279.242188 266.164062 267.203125 266.308594 255.140625 C 231.238281 254.8125 196.171875 254.242188 161.078125 253.816406 Z M 120.007812 253.390625 C 111.375 253.320312 102.71875 253.25 94.089844 253.179688 C 80.871094 253.085938 67.652344 252.964844 54.410156 252.917969 C 54.339844 262.496094 54.292969 272.050781 54.175781 281.628906 C 54.152344 284.28125 54.125 286.953125 54.078125 289.601562 C 70.207031 289.410156 86.332031 289.316406 102.460938 289.410156 C 108.394531 289.433594 114.332031 289.507812 120.289062 289.554688 C 120.171875 277.492188 120.101562 265.429688 119.980469 253.390625 Z M 120.738281 366.464844 C 120.21875 362.679688 120.503906 358.800781 120.527344 354.996094 C 120.527344 354.308594 120.527344 353.621094 120.527344 352.9375 C 111.707031 352.867188 102.910156 352.796875 94.089844 352.722656 C 80.683594 352.628906 67.25 352.511719 53.84375 352.464844 C 53.84375 353.597656 53.84375 354.734375 53.867188 355.894531 C 53.914062 359.371094 54.125 362.871094 53.652344 366.300781 C 65.050781 365.921875 76.496094 366.179688 87.894531 366.253906 C 93.875 366.277344 99.859375 366.300781 105.867188 366.371094 C 108.820312 366.394531 111.753906 366.417969 114.710938 366.464844 C 116.625 366.464844 118.730469 366.300781 120.738281 366.464844 Z M 369.878906 293.8125 C 369.878906 293.8125 369.6875 293.882812 369.570312 293.882812 C 357.652344 294.023438 345.710938 294.070312 333.792969 294.09375 C 332.800781 294.09375 331.785156 294.09375 330.789062 294.09375 C 318.660156 294.09375 306.53125 294.09375 294.398438 294.023438 C 285.910156 293.976562 277.398438 293.90625 268.90625 293.8125 C 267.890625 293.8125 266.898438 293.8125 265.882812 293.789062 C 230.957031 293.457031 196.03125 292.914062 161.101562 292.460938 C 148.523438 292.296875 135.945312 292.179688 123.363281 292.0625 C 122.371094 292.0625 121.355469 292.0625 120.359375 292.035156 C 111.613281 291.964844 102.863281 291.894531 94.136719 291.824219 C 80.800781 291.730469 67.464844 291.613281 54.125 291.5625 C 53.109375 291.5625 52.117188 291.5625 51.101562 291.5625 C 43.558594 291.5625 36.011719 291.5625 28.46875 291.585938 C 28.46875 301.828125 28.46875 312.046875 28.398438 322.285156 C 28.351562 327.488281 28.304688 332.691406 28.257812 337.917969 C 28.257812 340.472656 28.210938 343.027344 28.1875 345.582031 C 28.1875 347.285156 28.28125 349.082031 28.210938 350.832031 C 35.707031 350.714844 43.203125 350.621094 50.722656 350.523438 C 51.761719 350.523438 52.800781 350.523438 53.867188 350.5 C 70.089844 350.3125 86.285156 350.21875 102.507812 350.3125 C 108.539062 350.335938 114.542969 350.40625 120.574219 350.453125 C 121.613281 350.453125 122.679688 350.453125 123.71875 350.476562 C 161.078125 350.808594 198.441406 351.375 235.804688 351.847656 C 245.710938 351.96875 255.640625 352.085938 265.550781 352.179688 C 266.589844 352.179688 267.65625 352.203125 268.695312 352.203125 C 289.457031 352.394531 310.21875 352.511719 330.980469 352.488281 C 332.019531 352.488281 333.085938 352.488281 334.125 352.488281 C 345.757812 352.488281 357.417969 352.394531 369.050781 352.273438 C 368.886719 350.074219 369.097656 347.757812 369.121094 345.582031 C 369.144531 343.027344 369.191406 340.472656 369.214844 337.917969 C 369.289062 332.808594 369.335938 327.703125 369.40625 322.59375 C 369.523438 312.992188 369.714844 303.390625 369.902344 293.8125 Z M 69.613281 223.097656 C 69.332031 222.171875 69.945312 221.417969 70.679688 220.945312 C 72.523438 219.785156 74.886719 219.3125 77.039062 219.382812 C 77.160156 219.382812 77.230469 219.453125 77.300781 219.5 C 78.625 219.453125 79.925781 219.972656 81.132812 220.472656 C 82.03125 220.824219 83.257812 221.25 83.304688 222.386719 C 83.425781 224.585938 80.136719 224.941406 78.601562 225.152344 C 76.308594 225.4375 73.941406 225.320312 71.695312 224.679688 C 70.84375 224.445312 69.875 224.019531 69.589844 223.121094 Z M 72.640625 223.355469 C 73.707031 223.640625 74.816406 223.804688 75.929688 223.875 C 77.039062 223.949219 78.152344 223.921875 79.261719 223.757812 C 79.785156 223.6875 80.304688 223.59375 80.824219 223.449219 C 81.226562 223.355469 81.746094 223.238281 82.007812 222.882812 C 82.691406 221.960938 80.707031 221.488281 80.160156 221.296875 C 79.191406 220.945312 78.175781 220.730469 77.230469 220.328125 C 77.160156 220.375 77.085938 220.445312 76.96875 220.445312 C 75.859375 220.445312 74.769531 220.613281 73.707031 220.945312 C 73.210938 221.109375 72.738281 221.296875 72.261719 221.535156 C 71.910156 221.699219 71.390625 221.914062 71.128906 222.246094 C 70.609375 222.882812 72.261719 223.238281 72.640625 223.332031 Z M 88.957031 223.097656 C 88.675781 222.171875 89.289062 221.417969 90.023438 220.945312 C 91.867188 219.785156 94.230469 219.3125 96.382812 219.382812 C 96.5 219.382812 96.570312 219.453125 96.644531 219.5 C 97.96875 219.453125 99.269531 219.972656 100.472656 220.472656 C 101.371094 220.824219 102.601562 221.25 102.648438 222.386719 C 102.769531 224.585938 99.480469 224.941406 97.945312 225.152344 C 95.648438 225.4375 93.285156 225.320312 91.039062 224.679688 C 90.1875 224.445312 89.21875 224.019531 88.933594 223.121094 Z M 91.984375 223.355469 C 93.050781 223.640625 94.160156 223.804688 95.273438 223.875 C 96.382812 223.949219 97.496094 223.921875 98.605469 223.757812 C 99.125 223.6875 99.644531 223.59375 100.167969 223.449219 C 100.570312 223.355469 101.089844 223.238281 101.347656 222.882812 C 102.035156 221.960938 100.046875 221.488281 99.503906 221.296875 C 98.535156 220.945312 97.519531 220.730469 96.570312 220.328125 C 96.5 220.375 96.429688 220.445312 96.3125 220.445312 C 95.199219 220.445312 94.113281 220.613281 93.050781 220.945312 C 92.550781 221.109375 92.078125 221.296875 91.605469 221.535156 C 91.25 221.699219 90.730469 221.914062 90.472656 222.246094 C 89.953125 222.882812 91.605469 223.238281 91.984375 223.332031 Z M 83.304688 320.914062 C 83.425781 323.113281 80.136719 323.492188 78.601562 323.679688 C 76.308594 323.964844 73.941406 323.847656 71.695312 323.207031 C 70.84375 322.972656 69.875 322.546875 69.589844 321.648438 C 69.308594 320.726562 69.921875 319.96875 70.65625 319.496094 C 72.5 318.335938 74.863281 317.863281 77.015625 317.933594 C 77.136719 317.933594 77.207031 318.003906 77.277344 318.050781 C 78.601562 318.003906 79.902344 318.527344 81.105469 319.023438 C 82.007812 319.375 83.234375 319.800781 83.28125 320.9375 Z M 80.160156 319.898438 C 79.191406 319.542969 78.175781 319.328125 77.230469 318.925781 C 77.160156 318.976562 77.085938 319.046875 76.96875 319.046875 C 75.859375 319.046875 74.769531 319.210938 73.707031 319.542969 C 73.210938 319.707031 72.738281 319.898438 72.261719 320.132812 C 71.910156 320.300781 71.390625 320.511719 71.128906 320.84375 C 70.609375 321.480469 72.261719 321.835938 72.640625 321.929688 C 73.707031 322.214844 74.816406 322.378906 75.929688 322.453125 C 77.039062 322.523438 78.152344 322.5 79.261719 322.332031 C 79.785156 322.261719 80.304688 322.167969 80.824219 322.027344 C 81.226562 321.929688 81.746094 321.8125 82.007812 321.457031 C 82.691406 320.535156 80.707031 320.0625 80.160156 319.875 Z M 102.671875 320.914062 C 102.792969 323.113281 99.503906 323.492188 97.96875 323.679688 C 95.671875 323.964844 93.308594 323.847656 91.0625 323.207031 C 90.210938 322.972656 89.242188 322.546875 88.957031 321.648438 C 88.675781 320.726562 89.289062 319.96875 90.023438 319.496094 C 91.867188 318.335938 94.230469 317.863281 96.382812 317.933594 C 96.5 317.933594 96.570312 318.003906 96.644531 318.050781 C 97.96875 318.003906 99.269531 318.527344 100.472656 319.023438 C 101.371094 319.375 102.601562 319.800781 102.648438 320.9375 Z M 99.527344 319.898438 C 98.558594 319.542969 97.542969 319.328125 96.597656 318.925781 C 96.523438 318.976562 96.453125 319.046875 96.335938 319.046875 C 95.222656 319.046875 94.136719 319.210938 93.074219 319.542969 C 92.574219 319.707031 92.101562 319.898438 91.628906 320.132812 C 91.277344 320.300781 90.753906 320.511719 90.496094 320.84375 C 89.976562 321.480469 91.628906 321.835938 92.007812 321.929688 C 93.074219 322.214844 94.183594 322.378906 95.296875 322.453125 C 96.40625 322.523438 97.519531 322.5 98.628906 322.332031 C 99.148438 322.261719 99.667969 322.167969 100.191406 322.027344 C 100.59375 321.929688 101.113281 321.8125 101.371094 321.457031 C 102.058594 320.535156 100.070312 320.0625 99.527344 319.875 Z M 284.726562 223.074219 C 284.445312 222.148438 285.058594 221.394531 285.792969 220.921875 C 287.636719 219.761719 290 219.289062 292.152344 219.359375 C 292.269531 219.359375 292.339844 219.429688 292.414062 219.476562 C 293.738281 219.429688 295.039062 219.949219 296.242188 220.445312 C 297.140625 220.800781 298.371094 221.226562 298.417969 222.363281 C 298.535156 224.5625 295.25 224.917969 293.714844 225.128906 C 291.417969 225.414062 289.054688 225.296875 286.808594 224.65625 C 285.957031 224.421875 284.988281 223.996094 284.703125 223.097656 Z M 287.753906 223.332031 C 288.816406 223.617188 289.929688 223.78125 291.039062 223.851562 C 292.152344 223.921875 293.265625 223.898438 294.375 223.734375 C 294.894531 223.664062 295.414062 223.570312 295.9375 223.425781 C 296.335938 223.332031 296.859375 223.214844 297.117188 222.859375 C 297.804688 221.9375 295.816406 221.464844 295.273438 221.273438 C 294.304688 220.921875 293.289062 220.707031 292.339844 220.304688 C 292.269531 220.351562 292.199219 220.421875 292.082031 220.421875 C 290.96875 220.421875 289.882812 220.589844 288.816406 220.921875 C 288.320312 221.085938 287.847656 221.273438 287.375 221.511719 C 287.019531 221.675781 286.5 221.890625 286.242188 222.222656 C 285.71875 222.859375 287.375 223.214844 287.753906 223.308594 Z M 304.070312 223.074219 C 303.785156 222.148438 304.402344 221.394531 305.132812 220.921875 C 306.980469 219.761719 309.34375 219.289062 311.496094 219.359375 C 311.613281 219.359375 311.683594 219.429688 311.753906 219.476562 C 313.078125 219.429688 314.378906 219.949219 315.585938 220.445312 C 316.484375 220.800781 317.714844 221.226562 317.761719 222.363281 C 317.878906 224.5625 314.59375 224.917969 313.054688 225.128906 C 310.761719 225.414062 308.398438 225.296875 306.152344 224.65625 C 305.300781 224.421875 304.332031 223.996094 304.046875 223.097656 Z M 307.097656 223.332031 C 308.160156 223.617188 309.273438 223.78125 310.382812 223.851562 C 311.496094 223.921875 312.605469 223.898438 313.71875 223.734375 C 314.238281 223.664062 314.757812 223.570312 315.277344 223.425781 C 315.679688 223.332031 316.199219 223.214844 316.460938 222.859375 C 317.148438 221.9375 315.160156 221.464844 314.617188 221.273438 C 313.648438 220.921875 312.628906 220.707031 311.683594 220.304688 C 311.613281 220.351562 311.542969 220.421875 311.425781 220.421875 C 310.3125 220.421875 309.226562 220.589844 308.160156 220.921875 C 307.664062 221.085938 307.191406 221.273438 306.71875 221.511719 C 306.363281 221.675781 305.84375 221.890625 305.582031 222.222656 C 305.0625 222.859375 306.71875 223.214844 307.097656 223.308594 Z M 298.417969 320.890625 C 298.535156 323.089844 295.25 323.46875 293.714844 323.65625 C 291.417969 323.941406 289.054688 323.824219 286.808594 323.183594 C 285.957031 322.949219 284.988281 322.523438 284.703125 321.625 C 284.421875 320.703125 285.035156 319.945312 285.769531 319.472656 C 287.613281 318.3125 289.976562 317.839844 292.128906 317.910156 C 292.246094 317.910156 292.316406 317.980469 292.390625 318.027344 C 293.714844 317.980469 295.011719 318.5 296.21875 319 C 297.117188 319.351562 298.347656 319.777344 298.394531 320.914062 Z M 295.273438 319.875 C 294.304688 319.519531 293.289062 319.304688 292.339844 318.902344 C 292.269531 318.953125 292.199219 319.023438 292.082031 319.023438 C 290.96875 319.023438 289.882812 319.1875 288.816406 319.519531 C 288.320312 319.683594 287.847656 319.875 287.375 320.109375 C 287.019531 320.277344 286.5 320.488281 286.242188 320.820312 C 285.71875 321.457031 287.375 321.8125 287.753906 321.90625 C 288.816406 322.191406 289.929688 322.355469 291.039062 322.429688 C 292.152344 322.5 293.265625 322.476562 294.375 322.308594 C 294.894531 322.238281 295.414062 322.144531 295.9375 322.003906 C 296.335938 321.90625 296.859375 321.789062 297.117188 321.433594 C 297.804688 320.511719 295.816406 320.039062 295.273438 319.851562 Z M 317.785156 320.890625 C 317.902344 323.089844 314.617188 323.46875 313.078125 323.65625 C 310.785156 323.941406 308.421875 323.824219 306.175781 323.183594 C 305.324219 322.949219 304.355469 322.523438 304.070312 321.625 C 303.785156 320.703125 304.402344 319.945312 305.132812 319.472656 C 306.980469 318.3125 309.34375 317.839844 311.496094 317.910156 C 311.613281 317.910156 311.683594 317.980469 311.753906 318.027344 C 313.078125 317.980469 314.378906 318.5 315.585938 319 C 316.484375 319.351562 317.714844 319.777344 317.761719 320.914062 Z M 314.640625 319.875 C 313.671875 319.519531 312.652344 319.304688 311.707031 318.902344 C 311.636719 318.953125 311.566406 319.023438 311.449219 319.023438 C 310.335938 319.023438 309.25 319.1875 308.183594 319.519531 C 307.6875 319.683594 307.214844 319.875 306.742188 320.109375 C 306.386719 320.277344 305.867188 320.488281 305.605469 320.820312 C 305.085938 321.457031 306.742188 321.8125 307.121094 321.90625 C 308.183594 322.191406 309.296875 322.355469 310.40625 322.429688 C 311.519531 322.5 312.628906 322.476562 313.742188 322.308594 C 314.261719 322.238281 314.78125 322.144531 315.300781 322.003906 C 315.703125 321.90625 316.222656 321.789062 316.484375 321.433594 C 317.171875 320.511719 315.183594 320.039062 314.640625 319.851562 Z M 314.640625 319.875 " fill-opacity="1" fill-rule="nonzero"/></g></svg>