<svg xmlns="http://www.w3.org/2000/svg" xmlns:xlink="http://www.w3.org/1999/xlink" width="500" zoomAndPan="magnify" viewBox="0 0 375 374.999991" height="500" preserveAspectRatio="xMidYMid meet" version="1.0"><defs><clipPath id="782985526c"><path d="M 3 4 L 374.203125 4 L 374.203125 375 L 3 375 Z M 3 4 " clip-rule="nonzero"/></clipPath></defs><g clip-path="url(#782985526c)"><path fill="#000000" d="M 38.882812 276.800781 C 40.488281 279.566406 39.566406 283.109375 36.800781 284.71875 C 35.878906 285.253906 34.890625 285.503906 33.902344 285.503906 C 31.921875 285.503906 29.976562 284.472656 28.882812 282.625 C 9.023438 248.460938 0.695312 209.574219 4.859375 170.175781 C 10.011719 120.96875 34.039062 76.726562 72.503906 45.597656 C 110.929688 14.46875 159.191406 0.179688 208.40625 5.351562 C 241.375 8.828125 272.398438 20.890625 298.8125 40.40625 L 294.820312 26.339844 C 293.933594 23.269531 295.707031 20.0625 298.777344 19.183594 C 301.851562 18.308594 305.058594 20.089844 305.945312 23.164062 L 315.023438 55 C 315.503906 56.710938 315.195312 58.550781 314.136719 59.988281 C 313.078125 61.429688 311.441406 62.308594 309.667969 62.367188 L 276.59375 63.558594 C 276.527344 63.5625 276.457031 63.5625 276.390625 63.5625 C 273.285156 63.5625 270.691406 61.105469 270.589844 57.980469 C 270.484375 54.785156 272.976562 52.101562 276.152344 51.988281 L 294.105469 51.34375 C 268.882812 32.09375 239.019531 20.21875 207.175781 16.867188 C 161.066406 12.011719 115.8125 25.414062 79.769531 54.597656 C 43.730469 83.777344 21.207031 125.253906 16.359375 171.386719 C 12.46875 208.328125 20.25 244.78125 38.882812 276.800781 Z M 374.203125 190.800781 L 374.203125 187.949219 C 373.972656 155.828125 365.441406 124.570312 349.121094 96.503906 C 347.515625 93.738281 343.964844 92.804688 341.203125 94.410156 C 338.4375 96.023438 337.515625 99.566406 339.121094 102.328125 C 357.753906 134.347656 365.535156 170.796875 361.644531 207.742188 C 351.644531 302.96875 266.050781 372.289062 170.828125 362.257812 C 139.019531 358.90625 109.121094 347.027344 83.902344 327.785156 L 101.851562 327.140625 C 105.027344 327.023438 107.519531 324.339844 107.417969 321.140625 C 107.3125 317.953125 104.652344 315.449219 101.410156 315.570312 L 68.339844 316.757812 C 66.5625 316.824219 64.925781 317.699219 63.867188 319.136719 C 62.8125 320.578125 62.503906 322.414062 62.980469 324.132812 L 72.058594 355.964844 C 72.808594 358.511719 75.128906 360.167969 77.621094 360.167969 C 78.167969 360.167969 78.714844 360.09375 79.226562 359.945312 C 82.296875 359.066406 84.070312 355.859375 83.21875 352.785156 L 79.191406 338.726562 C 105.609375 358.238281 136.632812 370.304688 169.601562 373.769531 C 176.222656 374.472656 182.808594 374.8125 189.359375 374.8125 C 231.578125 374.8125 272.226562 360.484375 305.503906 333.53125 C 343.964844 302.402344 367.992188 258.160156 373.179688 208.953125 C 373.816406 202.886719 374.15625 196.828125 374.203125 190.800781 Z M 109.078125 243.246094 C 109.078125 243.246094 118.941406 224.789062 118.976562 224.78125 C 121.371094 220.261719 119.621094 214.382812 115.082031 211.976562 C 110.542969 209.546875 104.71875 211.316406 102.289062 215.851562 L 92.429688 234.28125 C 89.964844 238.890625 91.714844 244.632812 96.289062 247.089844 C 100.898438 249.546875 106.613281 247.820312 109.078125 243.246094 Z M 55.445312 175.320312 C 64.558594 179.429688 81.53125 187.078125 84.640625 188.285156 C 92.429688 191.304688 94.609375 198.492188 95.859375 204.585938 C 102.433594 198.429688 112.4375 196.8125 120.800781 201.285156 C 125.835938 203.976562 129.554688 208.503906 131.234375 214.03125 C 131.589844 215.1875 131.839844 216.351562 131.984375 217.515625 C 136.84375 216.59375 141.773438 217.335938 146.167969 219.679688 C 151.207031 222.367188 154.921875 226.898438 156.601562 232.425781 C 156.636719 232.5625 156.675781 232.699219 156.710938 232.835938 C 156.851562 232.800781 156.960938 232.753906 157.101562 232.714844 C 162.640625 231.039062 168.464844 231.609375 173.539062 234.320312 C 178.578125 237.007812 182.292969 241.542969 183.972656 247.070312 C 184.007812 247.210938 184.046875 247.339844 184.082031 247.480469 C 184.222656 247.441406 184.332031 247.394531 184.472656 247.359375 C 190.011719 245.683594 195.835938 246.25 200.910156 248.964844 C 203.339844 250.257812 205.449219 251.988281 207.199219 254.050781 L 230.640625 267.019531 C 235.210938 269.535156 241 267.859375 243.503906 263.292969 C 246.003906 258.761719 244.289062 252.980469 239.714844 250.40625 L 206.589844 231.753906 C 203.660156 230.113281 202.625 226.417969 204.265625 223.503906 C 205.910156 220.585938 209.59375 219.546875 212.523438 221.195312 L 254.433594 244.617188 C 259.007812 247.132812 264.761719 245.457031 267.296875 240.890625 C 269.765625 236.359375 268.085938 230.578125 263.511719 228 C 263.367188 227.925781 230.386719 209.261719 230.386719 209.261719 C 227.457031 207.617188 226.421875 203.917969 228.066406 201.003906 C 229.710938 198.089844 233.425781 197.0625 236.355469 198.707031 L 274.804688 220.449219 C 276.945312 221.65625 279.449219 221.933594 281.84375 221.25 C 284.34375 220.539062 286.378906 218.921875 287.59375 216.683594 C 290.097656 212.183594 288.382812 206.394531 283.808594 203.785156 L 230.101562 173.183594 C 221.167969 168.078125 209.84375 172.65625 196.765625 177.957031 C 186.832031 181.980469 175.683594 186.488281 164.390625 186.492188 C 152.851562 186.492188 141.164062 181.769531 130.410156 166.972656 C 129.410156 165.578125 129.050781 163.824219 129.410156 162.140625 C 129.765625 160.457031 130.804688 159.011719 132.304688 158.152344 C 148.203125 149.050781 161.570312 139.082031 172.003906 128.527344 C 174.46875 126.03125 176.96875 123.710938 179.46875 121.582031 C 168.179688 116.8125 158.460938 119.101562 148.277344 121.503906 C 137.949219 123.945312 127.265625 126.472656 116.261719 120.390625 L 86.28125 106.558594 L 54.230469 174.777344 C 54.625 174.949219 55.015625 175.128906 55.445312 175.320312 Z M 193.730469 125.894531 C 189.371094 128.90625 184.976562 132.664062 180.617188 137.054688 C 170.789062 146.976562 158.675781 156.367188 144.488281 165.027344 C 158.960938 180.199219 174.46875 173.902344 192.226562 166.722656 C 201.875 162.816406 211.738281 158.824219 221.347656 158.824219 C 226.351562 158.824219 231.320312 159.910156 236.105469 162.652344 L 289.8125 193.253906 C 292.097656 194.554688 294.027344 196.21875 295.671875 198.121094 L 324.113281 185.996094 L 296.351562 114.429688 L 275.054688 125.835938 C 263.691406 131.742188 252.972656 127.359375 242.609375 123.125 C 228.746094 117.457031 214.417969 111.589844 193.730469 125.894531 Z M 220.347656 275.191406 L 220.242188 275.128906 L 212.132812 270.671875 C 211.808594 273.269531 211.023438 275.804688 209.773438 278.175781 L 204.484375 288.054688 L 211.238281 291.78125 C 215.8125 294.296875 221.601562 292.625 224.101562 288.046875 C 226.601562 283.496094 224.921875 277.722656 220.347656 275.191406 Z M 189.621094 290.128906 C 189.621094 290.128906 199.054688 272.480469 199.054688 272.457031 C 201.484375 267.980469 199.695312 262.046875 195.195312 259.65625 C 190.65625 257.238281 184.796875 259.011719 182.402344 263.53125 L 172.933594 281.207031 C 170.46875 285.8125 172.21875 291.554688 176.828125 294.019531 C 181.402344 296.476562 187.152344 294.738281 189.621094 290.128906 Z M 160.890625 278.019531 C 160.890625 278.019531 171.683594 257.828125 171.683594 257.8125 C 174.113281 253.308594 172.324219 247.421875 167.824219 245.011719 C 163.285156 242.59375 157.425781 244.359375 154.996094 248.890625 L 144.203125 269.085938 C 141.773438 273.695312 143.488281 279.433594 148.097656 281.894531 C 152.601562 284.316406 158.496094 282.53125 160.890625 278.019531 Z M 130.984375 268.144531 C 130.984375 268.144531 144.3125 243.191406 144.3125 243.179688 C 146.742188 238.652344 144.992188 232.777344 140.453125 230.363281 C 135.949219 227.96875 130.089844 229.714844 127.660156 234.207031 L 114.296875 259.222656 C 111.832031 263.820312 113.582031 269.570312 118.15625 272.035156 C 120.371094 273.214844 122.945312 273.457031 125.375 272.722656 C 127.804688 271.988281 129.804688 270.359375 130.984375 268.144531 Z M 130.984375 268.144531 " fill-opacity="1" fill-rule="evenodd"/></g></svg>