<svg xmlns="http://www.w3.org/2000/svg" viewBox="0 0 512 512" id="withdrawbitcoin"><path d="M170.5 376a30.493 30.493 0 0 0-26.552 45.5 30.5 30.5 0 1 0 53.104 0A30.493 30.493 0 0 0 170.5 376Zm11.746 50.396a15.5 15.5 0 1 1-23.492 0 7.5 7.5 0 0 0 0-9.791 15.5 15.5 0 1 1 23.492 0 7.5 7.5 0 0 0 0 9.79ZM474.5 0h-437A37.542 37.542 0 0 0 0 37.5v143A37.542 37.542 0 0 0 37.5 218H95v256.5a37.542 37.542 0 0 0 37.5 37.5h247a37.542 37.542 0 0 0 37.5-37.5V218h57.5a37.542 37.542 0 0 0 37.5-37.5v-143A37.542 37.542 0 0 0 474.5 0ZM402 474.5a22.526 22.526 0 0 1-22.5 22.5h-247a22.526 22.526 0 0 1-22.5-22.5v-358h30v26a17.52 17.52 0 0 0 17.5 17.5h31a17.52 17.52 0 0 0 17.5-17.5v-26h150.581l.42 28.112a7.5 7.5 0 0 0 7.497 7.388l.114-.001a7.5 7.5 0 0 0 7.387-7.611l-.416-27.888H402Zm-247-332v-26h36v26a2.503 2.503 0 0 1-2.5 2.5h-31a2.503 2.503 0 0 1-2.5-2.5Zm342 38a22.526 22.526 0 0 1-22.5 22.5H417v-86.5h14.5a7.5 7.5 0 0 0 0-15h-351a7.5 7.5 0 0 0 0 15H95V203H37.5A22.526 22.526 0 0 1 15 180.5v-143A22.526 22.526 0 0 1 37.5 15h437A22.526 22.526 0 0 1 497 37.5Zm-216 33.152v-10.233a7.5 7.5 0 0 0-15 0v9.905h-15v-9.905a7.5 7.5 0 0 0-15 0v9.905h-20.76a7.5 7.5 0 0 0 0 15h5.794v103.352h-5.795a7.5 7.5 0 0 0 0 15H236v9.905a7.5 7.5 0 0 0 15 0v-9.905h15v9.905a7.5 7.5 0 0 0 15 0v-10.233a27.543 27.543 0 0 0 23.26-27.172V300a27.42 27.42 0 0 0-8.654-20 27.42 27.42 0 0 0 8.655-20v-19.176A27.543 27.543 0 0 0 281 213.652Zm8.26 105.524a12.514 12.514 0 0 1-12.5 12.5h-40.726V287.5h40.727a12.514 12.514 0 0 1 12.5 12.5Zm0-59.176a12.514 12.514 0 0 1-12.5 12.5h-40.726v-44.176h40.727a12.514 12.514 0 0 1 12.5 12.5Zm75.24-76a7.5 7.5 0 0 0-7.5 7.5v58a7.5 7.5 0 0 0 15 0v-58a7.5 7.5 0 0 0-7.5-7.5Zm0 105a7.5 7.5 0 0 0-7.5 7.5v58a7.5 7.5 0 0 0 15 0v-58a7.5 7.5 0 0 0-7.5-7.5Zm0 105a7.5 7.5 0 0 0-7.5 7.5v58a7.5 7.5 0 0 0 15 0v-58a7.5 7.5 0 0 0-7.5-7.5Z" fill="#333333" class="color000000 svgShape"></path></svg>