<svg xmlns="http://www.w3.org/2000/svg" xmlns:xlink="http://www.w3.org/1999/xlink" width="500" zoomAndPan="magnify" viewBox="0 0 375 374.999991" height="500" preserveAspectRatio="xMidYMid meet" version="1.0"><defs><clipPath id="86d8806dfa"><path d="M 29.316406 57 L 148 57 L 148 218 L 29.316406 218 Z M 29.316406 57 " clip-rule="nonzero"/></clipPath><clipPath id="71d44968f0"><path d="M 227 15 L 345.816406 15 L 345.816406 177 L 227 177 Z M 227 15 " clip-rule="nonzero"/></clipPath></defs><path fill="#000000" d="M 66.796875 0.183594 C 67.34375 0.183594 67.886719 0.234375 68.421875 0.34375 C 68.960938 0.449219 69.480469 0.605469 69.984375 0.816406 C 70.492188 1.023438 70.972656 1.28125 71.425781 1.585938 C 71.878906 1.890625 72.300781 2.234375 72.6875 2.621094 C 73.074219 3.007812 73.417969 3.425781 73.722656 3.882812 C 74.027344 4.335938 74.285156 4.816406 74.492188 5.320312 C 74.703125 5.828125 74.859375 6.347656 74.96875 6.882812 C 75.074219 7.417969 75.128906 7.960938 75.128906 8.507812 L 75.128906 366.492188 C 75.128906 367.039062 75.074219 367.582031 74.96875 368.117188 C 74.859375 368.652344 74.703125 369.171875 74.492188 369.679688 C 74.285156 370.183594 74.027344 370.664062 73.722656 371.117188 C 73.417969 371.574219 73.074219 371.992188 72.6875 372.378906 C 72.300781 372.765625 71.878906 373.109375 71.425781 373.414062 C 70.972656 373.71875 70.492188 373.976562 69.984375 374.183594 C 69.480469 374.394531 68.960938 374.550781 68.421875 374.65625 C 67.886719 374.765625 67.34375 374.816406 66.796875 374.816406 C 66.25 374.816406 65.710938 374.765625 65.171875 374.65625 C 64.636719 374.550781 64.117188 374.394531 63.609375 374.183594 C 63.105469 373.976562 62.625 373.71875 62.171875 373.414062 C 61.714844 373.109375 61.296875 372.765625 60.910156 372.378906 C 60.523438 371.992188 60.175781 371.574219 59.875 371.117188 C 59.570312 370.664062 59.3125 370.183594 59.101562 369.679688 C 58.894531 369.171875 58.734375 368.652344 58.628906 368.117188 C 58.523438 367.582031 58.46875 367.039062 58.46875 366.492188 L 58.46875 8.507812 C 58.46875 7.960938 58.523438 7.417969 58.628906 6.882812 C 58.734375 6.347656 58.894531 5.828125 59.101562 5.320312 C 59.3125 4.816406 59.570312 4.335938 59.875 3.882812 C 60.175781 3.425781 60.523438 3.007812 60.910156 2.621094 C 61.296875 2.234375 61.714844 1.890625 62.171875 1.585938 C 62.625 1.28125 63.105469 1.023438 63.609375 0.816406 C 64.117188 0.605469 64.636719 0.449219 65.171875 0.34375 C 65.710938 0.234375 66.25 0.183594 66.796875 0.183594 Z M 66.796875 0.183594 " fill-opacity="1" fill-rule="evenodd"/><path fill="#000000" d="M 100.113281 137.546875 C 100.113281 138.640625 100.0625 139.726562 99.953125 140.8125 C 99.847656 141.898438 99.6875 142.976562 99.472656 144.046875 C 99.261719 145.113281 98.996094 146.171875 98.679688 147.214844 C 98.363281 148.257812 97.996094 149.285156 97.578125 150.292969 C 97.160156 151.300781 96.695312 152.285156 96.179688 153.246094 C 95.664062 154.207031 95.105469 155.144531 94.5 156.050781 C 93.894531 156.957031 93.242188 157.832031 92.550781 158.675781 C 91.859375 159.515625 91.128906 160.324219 90.355469 161.097656 C 89.585938 161.867188 88.777344 162.597656 87.933594 163.289062 C 87.089844 163.984375 86.214844 164.632812 85.308594 165.238281 C 84.402344 165.84375 83.464844 166.402344 82.503906 166.917969 C 81.542969 167.429688 80.554688 167.898438 79.546875 168.316406 C 78.539062 168.730469 77.511719 169.097656 76.46875 169.414062 C 75.425781 169.730469 74.367188 169.996094 73.296875 170.210938 C 72.226562 170.421875 71.148438 170.582031 70.0625 170.6875 C 68.976562 170.796875 67.890625 170.847656 66.796875 170.847656 C 65.707031 170.847656 64.617188 170.796875 63.53125 170.6875 C 62.445312 170.582031 61.367188 170.421875 60.300781 170.210938 C 59.230469 169.996094 58.171875 169.730469 57.128906 169.414062 C 56.082031 169.097656 55.058594 168.730469 54.050781 168.316406 C 53.039062 167.898438 52.054688 167.429688 51.09375 166.917969 C 50.132812 166.402344 49.195312 165.84375 48.289062 165.238281 C 47.382812 164.632812 46.507812 163.984375 45.664062 163.289062 C 44.820312 162.597656 44.011719 161.867188 43.242188 161.097656 C 42.46875 160.324219 41.738281 159.515625 41.046875 158.675781 C 40.351562 157.832031 39.703125 156.957031 39.097656 156.050781 C 38.492188 155.144531 37.929688 154.207031 37.417969 153.246094 C 36.902344 152.285156 36.4375 151.300781 36.019531 150.292969 C 35.601562 149.285156 35.234375 148.257812 34.917969 147.214844 C 34.601562 146.171875 34.335938 145.113281 34.121094 144.046875 C 33.910156 142.976562 33.75 141.898438 33.644531 140.8125 C 33.535156 139.726562 33.484375 138.640625 33.484375 137.546875 C 33.484375 136.457031 33.535156 135.371094 33.644531 134.285156 C 33.75 133.199219 33.910156 132.121094 34.121094 131.050781 C 34.335938 129.980469 34.601562 128.925781 34.917969 127.882812 C 35.234375 126.839844 35.601562 125.8125 36.019531 124.804688 C 36.4375 123.796875 36.902344 122.8125 37.417969 121.851562 C 37.929688 120.886719 38.492188 119.953125 39.097656 119.046875 C 39.703125 118.140625 40.351562 117.265625 41.046875 116.421875 C 41.738281 115.578125 42.46875 114.773438 43.242188 114 C 44.011719 113.230469 44.820312 112.5 45.664062 111.804688 C 46.507812 111.113281 47.382812 110.464844 48.289062 109.859375 C 49.195312 109.253906 50.132812 108.695312 51.09375 108.179688 C 52.054688 107.664062 53.039062 107.199219 54.050781 106.78125 C 55.058594 106.363281 56.082031 106 57.128906 105.679688 C 58.171875 105.363281 59.230469 105.101562 60.300781 104.886719 C 61.367188 104.675781 62.445312 104.515625 63.53125 104.40625 C 64.617188 104.300781 65.707031 104.246094 66.796875 104.246094 C 67.890625 104.246094 68.976562 104.300781 70.0625 104.40625 C 71.148438 104.515625 72.226562 104.675781 73.296875 104.886719 C 74.367188 105.101562 75.425781 105.363281 76.46875 105.679688 C 77.511719 106 78.539062 106.363281 79.546875 106.78125 C 80.554688 107.199219 81.542969 107.664062 82.503906 108.179688 C 83.464844 108.695312 84.402344 109.253906 85.308594 109.859375 C 86.214844 110.464844 87.089844 111.113281 87.933594 111.804688 C 88.777344 112.5 89.585938 113.230469 90.355469 114 C 91.128906 114.773438 91.859375 115.578125 92.550781 116.421875 C 93.242188 117.265625 93.894531 118.140625 94.5 119.046875 C 95.105469 119.953125 95.664062 120.886719 96.179688 121.851562 C 96.695312 122.8125 97.160156 123.796875 97.578125 124.804688 C 97.996094 125.8125 98.363281 126.839844 98.679688 127.882812 C 98.996094 128.925781 99.261719 129.980469 99.472656 131.050781 C 99.6875 132.121094 99.847656 133.199219 99.953125 134.285156 C 100.0625 135.371094 100.113281 136.457031 100.113281 137.546875 Z M 100.113281 137.546875 " fill-opacity="1" fill-rule="nonzero"/><g clip-path="url(#86d8806dfa)"><path stroke-linecap="butt" transform="matrix(4.164473, 0, 0, 4.162623, 33.482657, 0.181949)" fill="none" stroke-linejoin="miter" d="M 15.999771 32.999605 C 15.999771 33.26236 15.987577 33.523238 15.961314 33.784116 C 15.935988 34.044995 15.89753 34.303996 15.84594 34.56112 C 15.795289 34.817307 15.731505 35.071616 15.655528 35.322171 C 15.57955 35.572727 15.491379 35.819529 15.391013 36.061639 C 15.290648 36.303749 15.179027 36.540228 15.055212 36.771077 C 14.931397 37.001926 14.797263 37.227145 14.651874 37.444856 C 14.506485 37.662568 14.34984 37.872772 14.183816 38.075468 C 14.017791 38.277227 13.842386 38.471478 13.656663 38.657283 C 13.471878 38.84215 13.277714 39.017633 13.075107 39.183731 C 12.8725 39.350768 12.66239 39.506544 12.444775 39.651998 C 12.227161 39.797452 12.002042 39.931644 11.771296 40.055515 C 11.540549 40.178446 11.303237 40.291056 11.061234 40.391466 C 10.819232 40.490937 10.57254 40.579148 10.322095 40.655159 C 10.071651 40.73117 9.817455 40.794982 9.560444 40.846595 C 9.303434 40.897269 9.044548 40.935744 8.783786 40.961081 C 8.523023 40.987356 8.262261 40.999556 7.999623 40.999556 C 7.737923 40.999556 7.476222 40.987356 7.21546 40.961081 C 6.954698 40.935744 6.695812 40.897269 6.439739 40.846595 C 6.182729 40.794982 5.928533 40.73117 5.678088 40.655159 C 5.426706 40.579148 5.180952 40.490937 4.938949 40.391466 C 4.696009 40.291056 4.459635 40.178446 4.228888 40.055515 C 3.998142 39.931644 3.773023 39.797452 3.555409 39.651998 C 3.337794 39.506544 3.127684 39.350768 2.925077 39.183731 C 2.72247 39.017633 2.528306 38.84215 2.343521 38.657283 C 2.157798 38.471478 1.982393 38.277227 1.816368 38.075468 C 1.649405 37.872772 1.493698 37.662568 1.348309 37.444856 C 1.20292 37.227145 1.067849 37.001926 0.944972 36.771077 C 0.821157 36.540228 0.709536 36.303749 0.60917 36.061639 C 0.508805 35.819529 0.420634 35.572727 0.344656 35.322171 C 0.268679 35.071616 0.204895 34.817307 0.153305 34.56112 C 0.102654 34.303996 0.064196 34.044995 0.0388702 33.784116 C 0.0126064 33.523238 0.000412436 33.26236 0.000412436 32.999605 C 0.000412436 32.737789 0.0126064 32.47691 0.0388702 32.216032 C 0.064196 31.955154 0.102654 31.696153 0.153305 31.439028 C 0.204895 31.181904 0.268679 30.928533 0.344656 30.677977 C 0.420634 30.427422 0.508805 30.18062 0.60917 29.93851 C 0.709536 29.6964 0.821157 29.45992 0.944972 29.229071 C 1.067849 28.997284 1.20292 28.773004 1.348309 28.555292 C 1.493698 28.337581 1.649405 28.127377 1.816368 27.92468 C 1.982393 27.721984 2.157798 27.528671 2.343521 27.342866 C 2.528306 27.157999 2.72247 26.982516 2.925077 26.815479 C 3.127684 26.64938 3.337794 26.493604 3.555409 26.348151 C 3.773023 26.202697 3.998142 26.068504 4.228888 25.944634 C 4.459635 25.820764 4.696009 25.709093 4.938949 25.608683 C 5.180952 25.508273 5.426706 25.421001 5.678088 25.344051 C 5.928533 25.26804 6.182729 25.205166 6.439739 25.153554 C 6.695812 25.10288 6.954698 25.064405 7.21546 25.038129 C 7.476222 25.012792 7.737923 24.999654 7.999623 24.999654 C 8.262261 24.999654 8.523023 25.012792 8.783786 25.038129 C 9.044548 25.064405 9.303434 25.10288 9.560444 25.153554 C 9.817455 25.205166 10.071651 25.26804 10.322095 25.344051 C 10.57254 25.421001 10.819232 25.508273 11.061234 25.608683 C 11.303237 25.709093 11.540549 25.820764 11.771296 25.944634 C 12.002042 26.068504 12.227161 26.202697 12.444775 26.348151 C 12.66239 26.493604 12.8725 26.64938 13.075107 26.815479 C 13.277714 26.982516 13.471878 27.157999 13.656663 27.342866 C 13.842386 27.528671 14.017791 27.721984 14.183816 27.92468 C 14.34984 28.127377 14.506485 28.337581 14.651874 28.555292 C 14.797263 28.773004 14.931397 28.997284 15.055212 29.229071 C 15.179027 29.45992 15.290648 29.6964 15.391013 29.93851 C 15.491379 30.18062 15.57955 30.427422 15.655528 30.677977 C 15.731505 30.928533 15.795289 31.181904 15.84594 31.439028 C 15.89753 31.696153 15.935988 31.955154 15.961314 32.216032 C 15.987577 32.47691 15.999771 32.737789 15.999771 32.999605 Z M 15.999771 32.999605 " stroke="#000000" stroke-width="2" stroke-opacity="1" stroke-miterlimit="4"/></g><path fill="#000000" d="M 187.566406 0.183594 C 188.113281 0.183594 188.65625 0.234375 189.191406 0.34375 C 189.730469 0.449219 190.25 0.605469 190.753906 0.816406 C 191.261719 1.023438 191.742188 1.28125 192.195312 1.585938 C 192.648438 1.890625 193.070312 2.234375 193.457031 2.621094 C 193.84375 3.007812 194.191406 3.425781 194.492188 3.882812 C 194.796875 4.335938 195.054688 4.816406 195.261719 5.320312 C 195.472656 5.828125 195.628906 6.347656 195.738281 6.882812 C 195.84375 7.417969 195.898438 7.960938 195.898438 8.507812 L 195.898438 366.492188 C 195.898438 367.039062 195.84375 367.582031 195.738281 368.117188 C 195.628906 368.652344 195.472656 369.171875 195.261719 369.679688 C 195.054688 370.183594 194.796875 370.664062 194.492188 371.117188 C 194.191406 371.574219 193.84375 371.992188 193.457031 372.378906 C 193.070312 372.765625 192.648438 373.109375 192.195312 373.414062 C 191.742188 373.71875 191.261719 373.976562 190.753906 374.183594 C 190.25 374.394531 189.730469 374.550781 189.191406 374.65625 C 188.65625 374.765625 188.113281 374.816406 187.566406 374.816406 C 187.019531 374.816406 186.480469 374.765625 185.941406 374.65625 C 185.40625 374.550781 184.886719 374.394531 184.378906 374.183594 C 183.875 373.976562 183.394531 373.71875 182.941406 373.414062 C 182.484375 373.109375 182.066406 372.765625 181.679688 372.378906 C 181.292969 371.992188 180.945312 371.574219 180.644531 371.117188 C 180.339844 370.664062 180.082031 370.183594 179.875 369.679688 C 179.664062 369.171875 179.507812 368.652344 179.398438 368.117188 C 179.292969 367.582031 179.238281 367.039062 179.238281 366.492188 L 179.238281 8.507812 C 179.238281 7.960938 179.292969 7.417969 179.398438 6.882812 C 179.507812 6.347656 179.664062 5.828125 179.875 5.320312 C 180.082031 4.816406 180.339844 4.335938 180.644531 3.882812 C 180.945312 3.425781 181.292969 3.007812 181.679688 2.621094 C 182.066406 2.234375 182.484375 1.890625 182.941406 1.585938 C 183.394531 1.28125 183.875 1.023438 184.378906 0.816406 C 184.886719 0.605469 185.40625 0.449219 185.941406 0.34375 C 186.480469 0.234375 187.019531 0.183594 187.566406 0.183594 Z M 187.566406 0.183594 " fill-opacity="1" fill-rule="evenodd"/><path stroke-linecap="butt" transform="matrix(4.164473, 0, 0, 4.162623, 154.252377, 0.181949)" fill-opacity="1" fill="#000000" fill-rule="evenodd" stroke-linejoin="miter" d="M 7.999578 70.999605 C 12.418466 70.999605 15.999726 67.41863 15.999726 62.999655 C 15.999726 58.581617 12.418466 54.999704 7.999578 54.999704 C 3.581627 54.999704 0.000367268 58.581617 0.000367268 62.999655 C 0.000367268 67.41863 3.581627 70.999605 7.999578 70.999605 Z M 7.999578 70.999605 " stroke="#000000" stroke-width="2" stroke-opacity="1" stroke-miterlimit="4"/><path fill="#000000" d="M 308.339844 0.183594 C 308.886719 0.183594 309.425781 0.234375 309.960938 0.34375 C 310.5 0.449219 311.019531 0.605469 311.523438 0.816406 C 312.03125 1.023438 312.511719 1.28125 312.964844 1.585938 C 313.421875 1.890625 313.839844 2.234375 314.226562 2.621094 C 314.613281 3.007812 314.960938 3.425781 315.261719 3.882812 C 315.566406 4.335938 315.824219 4.816406 316.03125 5.320312 C 316.242188 5.828125 316.398438 6.347656 316.507812 6.882812 C 316.613281 7.417969 316.667969 7.960938 316.667969 8.507812 L 316.667969 366.492188 C 316.667969 367.039062 316.613281 367.582031 316.507812 368.117188 C 316.398438 368.652344 316.242188 369.171875 316.03125 369.679688 C 315.824219 370.183594 315.566406 370.664062 315.261719 371.117188 C 314.960938 371.574219 314.613281 371.992188 314.226562 372.378906 C 313.839844 372.765625 313.421875 373.109375 312.964844 373.414062 C 312.511719 373.71875 312.03125 373.976562 311.523438 374.183594 C 311.019531 374.394531 310.5 374.550781 309.960938 374.65625 C 309.425781 374.765625 308.886719 374.816406 308.339844 374.816406 C 307.789062 374.816406 307.25 374.765625 306.714844 374.65625 C 306.175781 374.550781 305.65625 374.394531 305.152344 374.183594 C 304.644531 373.976562 304.164062 373.71875 303.710938 373.414062 C 303.257812 373.109375 302.835938 372.765625 302.449219 372.378906 C 302.0625 371.992188 301.714844 371.574219 301.414062 371.117188 C 301.109375 370.664062 300.851562 370.183594 300.644531 369.679688 C 300.433594 369.171875 300.277344 368.652344 300.167969 368.117188 C 300.0625 367.582031 300.007812 367.039062 300.007812 366.492188 L 300.007812 8.507812 C 300.007812 7.960938 300.0625 7.417969 300.167969 6.882812 C 300.277344 6.347656 300.433594 5.828125 300.644531 5.320312 C 300.851562 4.816406 301.109375 4.335938 301.414062 3.882812 C 301.714844 3.425781 302.0625 3.007812 302.449219 2.621094 C 302.835938 2.234375 303.257812 1.890625 303.710938 1.585938 C 304.164062 1.28125 304.644531 1.023438 305.152344 0.816406 C 305.65625 0.605469 306.175781 0.449219 306.714844 0.34375 C 307.25 0.234375 307.789062 0.183594 308.339844 0.183594 Z M 308.339844 0.183594 " fill-opacity="1" fill-rule="evenodd"/><path fill="#000000" d="M 308.339844 129.222656 C 326.738281 129.222656 341.652344 114.3125 341.652344 95.921875 C 341.652344 77.53125 326.738281 62.621094 308.339844 62.621094 C 289.9375 62.621094 275.023438 77.53125 275.023438 95.921875 C 275.023438 114.3125 289.9375 129.222656 308.339844 129.222656 Z M 308.339844 129.222656 " fill-opacity="1" fill-rule="evenodd"/><g clip-path="url(#71d44968f0)"><path stroke-linecap="butt" transform="matrix(4.164473, 0, 0, 4.162623, 275.022116, 0.181949)" fill="none" stroke-linejoin="miter" d="M 8.000466 30.999852 C 12.418416 30.999852 15.999676 27.417939 15.999676 22.999901 C 15.999676 18.581864 12.418416 14.999951 8.000466 14.999951 C 3.581577 14.999951 0.000317317 18.581864 0.000317317 22.999901 C 0.000317317 27.417939 3.581577 30.999852 8.000466 30.999852 Z M 8.000466 30.999852 " stroke="#000000" stroke-width="2" stroke-opacity="1" stroke-miterlimit="4"/></g></svg>