<svg xmlns="http://www.w3.org/2000/svg" xmlns:xlink="http://www.w3.org/1999/xlink" width="500" zoomAndPan="magnify" viewBox="0 0 375 374.999991" height="500" preserveAspectRatio="xMidYMid meet" version="1.0"><defs><clipPath id="3b8615dc93"><path d="M 0 37.265625 L 297 37.265625 L 297 98 L 0 98 Z M 0 37.265625 " clip-rule="nonzero"/></clipPath><clipPath id="56a3b659f0"><path d="M 0.496094 157 L 374.519531 157 L 374.519531 218 L 0.496094 218 Z M 0.496094 157 " clip-rule="nonzero"/></clipPath><clipPath id="3f5b2a5807"><path d="M 0.496094 277.472656 L 233 277.472656 L 233 338.015625 L 0.496094 338.015625 Z M 0.496094 277.472656 " clip-rule="nonzero"/></clipPath></defs><g clip-path="url(#3b8615dc93)"><path fill="#1e1e1e" d="M 266.003906 97.425781 L 30.550781 97.425781 C 13.949219 97.425781 0.496094 83.960938 0.496094 67.347656 C 0.496094 50.738281 13.949219 37.269531 30.550781 37.269531 L 266.003906 37.269531 C 282.601562 37.269531 296.054688 50.738281 296.054688 67.347656 C 296.054688 83.960938 282.601562 97.425781 266.003906 97.425781 " fill-opacity="1" fill-rule="nonzero"/></g><g clip-path="url(#56a3b659f0)"><path fill="#1e1e1e" d="M 344.460938 217.75 L 30.550781 217.75 C 13.949219 217.75 0.496094 204.285156 0.496094 187.667969 C 0.496094 171.054688 13.949219 157.589844 30.550781 157.589844 L 344.460938 157.589844 C 361.0625 157.589844 374.515625 171.054688 374.515625 187.667969 C 374.515625 204.285156 361.0625 217.75 344.460938 217.75 " fill-opacity="1" fill-rule="nonzero"/></g><g clip-path="url(#3f5b2a5807)"><path fill="#1e1e1e" d="M 202.636719 338.074219 L 30.550781 338.074219 C 13.949219 338.074219 0.496094 324.605469 0.496094 307.992188 C 0.496094 291.375 13.949219 277.910156 30.550781 277.910156 L 202.636719 277.910156 C 219.234375 277.910156 232.6875 291.375 232.6875 307.992188 C 232.6875 324.605469 219.234375 338.074219 202.636719 338.074219 " fill-opacity="1" fill-rule="nonzero"/></g></svg>