<svg xmlns="http://www.w3.org/2000/svg" xmlns:xlink="http://www.w3.org/1999/xlink" width="500" zoomAndPan="magnify" viewBox="0 0 375 374.999991" height="500" preserveAspectRatio="xMidYMid meet" version="1.0"><defs><clipPath id="5c0a0fcc03"><path d="M 11.71875 195 L 363.46875 195 L 363.46875 360 L 11.71875 360 Z M 11.71875 195 " clip-rule="nonzero"/></clipPath></defs><g clip-path="url(#5c0a0fcc03)"><path fill="#000000" d="M 249.75 195.960938 C 231.25 210.511719 207.953125 219.222656 182.636719 219.222656 C 157.953125 219.222656 135.167969 210.945312 116.894531 197.035156 C 57.265625 206.667969 11.71875 258.339844 11.71875 320.660156 C 11.71875 389.84375 67.828125 344.867188 137.039062 344.867188 L 238.140625 344.867188 C 307.355469 344.867188 363.46875 389.84375 363.46875 320.660156 C 363.46875 255.402344 313.519531 201.816406 249.75 195.960938 Z M 249.75 195.960938 " fill-opacity="1" fill-rule="nonzero"/></g><path fill="#000000" d="M 182.636719 204.644531 C 234.558594 204.644531 276.796875 162.421875 276.796875 110.523438 C 276.796875 58.628906 234.558594 16.40625 182.636719 16.40625 C 130.714844 16.40625 88.472656 58.628906 88.472656 110.523438 C 88.476562 162.421875 130.71875 204.644531 182.636719 204.644531 Z M 182.636719 204.644531 " fill-opacity="1" fill-rule="nonzero"/></svg>