<svg xmlns="http://www.w3.org/2000/svg" xmlns:xlink="http://www.w3.org/1999/xlink" width="500" zoomAndPan="magnify" viewBox="0 0 375 374.999991" height="500" preserveAspectRatio="xMidYMid meet" version="1.0"><defs><clipPath id="04a3f690bd"><path d="M 13 13 L 374 13 L 374 374.71875 L 13 374.71875 Z M 13 13 " clip-rule="nonzero"/></clipPath></defs><g clip-path="url(#04a3f690bd)"><path fill="#272324" d="M 229.933594 230.605469 C 207.984375 252.566406 179.160156 263.546875 150.328125 263.542969 C 121.503906 263.539062 92.667969 252.5625 70.726562 230.605469 C 26.832031 186.691406 26.832031 115.234375 70.726562 71.320312 C 92.671875 49.359375 121.5 38.382812 150.328125 38.382812 C 179.160156 38.382812 207.988281 49.359375 229.933594 71.320312 C 251.195312 92.59375 262.90625 120.875 262.90625 150.960938 C 262.90625 181.046875 251.195312 209.332031 229.933594 230.605469 Z M 370.191406 353.621094 L 255.503906 238.878906 C 276.136719 214.257812 287.378906 183.476562 287.378906 150.960938 C 287.378906 114.335938 273.125 79.902344 247.238281 54.003906 C 193.804688 0.539062 106.855469 0.539062 53.421875 54.003906 C -0.015625 107.46875 -0.015625 194.457031 53.421875 247.917969 C 80.136719 274.652344 115.234375 288.015625 150.328125 288.015625 C 181.59375 288.015625 212.851562 277.398438 238.195312 256.1875 L 352.886719 370.933594 C 355.277344 373.324219 358.40625 374.523438 361.539062 374.523438 C 364.667969 374.523438 367.804688 373.324219 370.191406 370.933594 C 374.972656 366.152344 374.972656 358.402344 370.191406 353.621094 " fill-opacity="1" fill-rule="nonzero"/><path fill="#272324" d="M 150.328125 38.546875 C 120.269531 38.546875 92.039062 50.226562 70.839844 71.433594 C 49.644531 92.640625 37.96875 120.886719 37.96875 150.960938 C 37.96875 181.039062 49.644531 209.28125 70.839844 230.488281 C 92.035156 251.695312 120.265625 263.375 150.328125 263.378906 C 150.332031 263.378906 150.335938 263.378906 150.339844 263.378906 C 180.394531 263.378906 208.617188 251.699219 229.816406 230.488281 C 251.050781 209.25 262.742188 181.003906 262.742188 150.960938 C 262.742188 120.921875 251.050781 92.675781 229.816406 71.433594 C 208.621094 50.226562 180.390625 38.546875 150.328125 38.546875 Z M 150.339844 263.707031 C 150.335938 263.707031 150.332031 263.707031 150.328125 263.707031 C 135.675781 263.703125 121.394531 260.929688 107.886719 255.457031 C 93.894531 249.792969 81.351562 241.46875 70.609375 230.722656 C 59.867188 219.972656 51.546875 207.425781 45.882812 193.425781 C 40.414062 179.910156 37.640625 165.621094 37.640625 150.960938 C 37.640625 136.300781 40.414062 122.015625 45.882812 108.496094 C 51.546875 94.5 59.867188 81.953125 70.609375 71.203125 C 81.351562 60.453125 93.894531 52.128906 107.886719 46.464844 C 121.394531 40.992188 135.675781 38.21875 150.328125 38.21875 C 164.984375 38.21875 179.261719 40.992188 192.773438 46.464844 C 206.765625 52.128906 219.304688 60.453125 230.050781 71.203125 C 251.34375 92.507812 263.070312 120.832031 263.070312 150.960938 C 263.070312 181.09375 251.34375 209.417969 230.050781 230.722656 L 229.933594 230.605469 L 230.050781 230.722656 C 219.304688 241.472656 206.761719 249.796875 192.773438 255.460938 C 179.265625 260.933594 164.988281 263.707031 150.339844 263.707031 Z M 238.207031 255.964844 L 238.3125 256.070312 L 353 370.816406 C 355.28125 373.101562 358.316406 374.359375 361.539062 374.359375 C 364.765625 374.359375 367.792969 373.101562 370.074219 370.816406 C 372.355469 368.539062 373.613281 365.503906 373.613281 362.277344 C 373.613281 359.054688 372.355469 356.019531 370.074219 353.738281 L 255.285156 238.886719 L 255.378906 238.773438 C 276.207031 213.917969 287.214844 183.554688 287.214844 150.960938 C 287.214844 114.378906 272.976562 79.988281 247.125 54.121094 C 221.308594 28.292969 186.933594 14.070312 150.328125 14.070312 C 113.726562 14.070312 79.347656 28.292969 53.535156 54.121094 C 27.722656 79.945312 13.507812 114.339844 13.507812 150.960938 C 13.507812 187.585938 27.722656 221.976562 53.535156 247.804688 C 79.347656 273.628906 113.722656 287.851562 150.328125 287.851562 C 182.433594 287.851562 213.601562 276.5625 238.089844 256.058594 Z M 361.539062 374.6875 C 358.226562 374.6875 355.113281 373.394531 352.773438 371.050781 L 238.183594 256.40625 C 213.652344 276.898438 182.457031 288.179688 150.328125 288.179688 C 132.496094 288.179688 115.113281 284.804688 98.671875 278.144531 C 81.644531 271.246094 66.378906 261.117188 53.304688 248.035156 C 40.230469 234.953125 30.105469 219.683594 23.210938 202.644531 C 16.554688 186.195312 13.179688 168.804688 13.179688 150.960938 C 13.179688 133.121094 16.554688 115.730469 23.210938 99.277344 C 30.105469 82.242188 40.230469 66.972656 53.304688 53.890625 C 66.378906 40.804688 81.644531 30.675781 98.671875 23.78125 C 115.117188 17.117188 132.496094 13.742188 150.328125 13.742188 C 168.164062 13.742188 185.542969 17.117188 201.988281 23.78125 C 219.015625 30.675781 234.277344 40.804688 247.355469 53.890625 C 273.269531 79.816406 287.542969 114.292969 287.542969 150.960938 C 287.542969 167.136719 284.78125 182.9375 279.332031 197.933594 C 273.921875 212.835938 265.980469 226.609375 255.726562 238.867188 L 370.308594 353.507812 C 372.648438 355.847656 373.941406 358.964844 373.941406 362.277344 C 373.941406 365.59375 372.648438 368.707031 370.308594 371.050781 C 367.964844 373.394531 364.851562 374.6875 361.539062 374.6875 " fill-opacity="1" fill-rule="nonzero"/></g></svg>